<svg version="1.1" viewBox="0.0 0.0 858.0734908136483 548.3569553805775" fill="none" stroke="none" stroke-linecap="square" stroke-miterlimit="10" xmlns:xlink="http://www.w3.org/1999/xlink" xmlns="http://www.w3.org/2000/svg"><clipPath id="p.0"><path d="m0 0l858.0735 0l0 548.35693l-858.0735 0l0 -548.35693z" clip-rule="nonzero"/></clipPath><g clip-path="url(#p.0)"><path fill="#000000" fill-opacity="0.0" d="m0 0l858.0735 0l0 548.35693l-858.0735 0z" fill-rule="evenodd"/><path fill="#000000" fill-opacity="0.0" d="m264.62094 489.5449l168.0 0l0 47.99997l-168.0 0z" fill-rule="evenodd"/><path stroke="#3c78d8" stroke-width="1.0" stroke-linejoin="round" stroke-linecap="butt" d="m264.62094 489.5449l168.0 0l0 47.99997l-168.0 0z" fill-rule="evenodd"/><path fill="#3c78d8" d="m295.4523 508.02737l1.34375 0l0 5.5937805l6.625 0l0 -5.5937805l1.34375 0l0 12.4375305l-1.34375 0l0 -5.578125l-6.625 0l0 5.578125l-1.34375 0l0 -12.4375305zm15.324768 12.5937805q-1.03125 0 -1.6875 -0.625q-0.640625 -0.625 -0.640625 -1.78125l0 -5.828125l-1.625 0l0 -1.2344055l1.625 0l0 -2.625l1.34375 0l0 2.625l2.40625 0l0 1.2344055l-2.40625 0l0 5.390625q0 0.828125 0.25 1.203125q0.265625 0.359375 0.984375 0.359375q0.6875 0 1.171875 -0.21875l0 1.265625q-0.265625 0.09375 -0.671875 0.15625q-0.390625 0.078125 -0.75 0.078125zm6.772217 0q-1.03125 0 -1.6875 -0.625q-0.640625 -0.625 -0.640625 -1.78125l0 -5.828125l-1.625 0l0 -1.2344055l1.625 0l0 -2.625l1.34375 0l0 2.625l2.40625 0l0 1.2344055l-2.40625 0l0 5.390625q0 0.828125 0.25 1.203125q0.265625 0.359375 0.984375 0.359375q0.6875 0 1.171875 -0.21875l0 1.265625q-0.265625 0.09375 -0.671875 0.15625q-0.390625 0.078125 -0.75 0.078125zm7.615967 -9.6406555q1.859375 0 3.09375 1.2031555q1.234375 1.203125 1.234375 3.859375q0 2.1875 -1.15625 3.4375q-1.15625 1.25 -3.28125 1.25q-0.484375 0 -1.125 -0.15625q-0.640625 -0.140625 -1.203125 -0.390625l0 4.328125l-1.328125 0l0 -11.671875q0 -1.0312805 1.125 -1.4219055q1.125 -0.40625 2.640625 -0.4375zm-0.109375 8.5156555q1.46875 0 2.234375 -0.921875q0.78125 -0.9375 0.78125 -2.53125q0 -1.75 -0.640625 -2.78125q-0.625 -1.046875 -2.28125 -1.046875q-1.015625 0 -1.71875 0.234375q-0.703125 0.234375 -0.703125 0.625l0 5.765625q1.125 0.65625 2.328125 0.65625zm12.2560425 1.125q-2.875 0 -4.328125 -1.609375q-1.4375 -1.609375 -1.4375 -4.78125q0 -3.1719055 1.4375 -4.7656555q1.453125 -1.609375 4.328125 -1.609375q1.890625 0 3.78125 0.90625l0 1.296875q-1.75 -0.9375 -3.640625 -0.9375q-2.34375 0 -3.4375 1.234375q-1.078125 1.234375 -1.078125 3.8750305q0 2.671875 1.078125 3.890625q1.078125 1.21875 3.4375 1.21875q1.984375 0 3.640625 -0.90625l0 1.28125q-1.90625 0.90625 -3.78125 0.90625zm6.307312 -0.15625l0 -12.8594055l1.328125 0l0 12.8594055l-1.328125 0zm4.328247 -12.4375305l1.484375 0l0 1.46875l-1.484375 0l0 -1.46875zm0.0625 3.125l1.34375 0l0 9.3125305l-1.34375 0l0 -9.3125305zm8.024384 -0.171875q2.125 0 3.109375 1.3906555q1.0 1.375 0.953125 3.671875l-6.78125 0q0 1.671875 0.78125 2.578125q0.78125 0.890625 2.234375 0.890625q1.875 0 3.1875 -0.796875l0 1.375q-1.359375 0.65625 -3.265625 0.65625q-2.03125 0 -3.171875 -1.25q-1.125 -1.265625 -1.125 -3.703125q0 -2.359375 1.0625 -3.578125q1.078125 -1.2344055 3.015625 -1.2344055zm0 1.2344055q-1.234375 0 -1.875 0.578125q-0.625 0.5625 -0.796875 2.015625l5.328125 0q-0.09375 -1.296875 -0.75 -1.9375q-0.640625 -0.65625 -1.90625 -0.65625zm6.595581 -0.31253052q1.796875 -0.921875 3.921875 -0.921875q1.96875 0 2.828125 0.859375q0.875 0.8594055 0.875 2.5625305l0 6.0625l-1.34375 0l0 -6.0625q0 -2.203125 -2.5 -2.203125q-1.15625 0 -2.453125 0.375l0 7.890625l-1.328125 0l0 -8.5625305zm13.5372925 8.7187805q-1.03125 0 -1.6875 -0.625q-0.640625 -0.625 -0.640625 -1.78125l0 -5.828125l-1.625 0l0 -1.2344055l1.625 0l0 -2.625l1.34375 0l0 2.625l2.40625 0l0 1.2344055l-2.40625 0l0 5.390625q0 0.828125 0.25 1.203125q0.265625 0.359375 0.984375 0.359375q0.6875 0 1.171875 -0.21875l0 1.265625q-0.265625 0.09375 -0.671875 0.15625q-0.390625 0.078125 -0.75 0.078125zm3.9284668 -12.5937805l1.34375 0l0 11.1250305l6.375 0l0 1.3125l-7.71875 0l0 -12.4375305zm9.679077 0l1.484375 0l0 1.46875l-1.484375 0l0 -1.46875zm0.0625 3.125l1.34375 0l0 9.3125305l-1.34375 0l0 -9.3125305zm8.243134 -0.140625q2.109375 0 3.1875 1.2344055q1.078125 1.234375 1.078125 3.4375q-0.015625 2.84375 -1.3125 3.953125q-1.28125 1.109375 -3.0625 1.109375q-3.71875 0 -3.71875 -1.859375l0 -11.6719055l1.328125 0l0 4.328125q0.59375 -0.21875 1.296875 -0.375q0.71875 -0.15625 1.203125 -0.15625zm-0.296875 8.5000305q1.8125 0 2.46875 -1.015625q0.671875 -1.03125 0.671875 -2.8125q0 -1.59375 -0.6875 -2.515625q-0.6875 -0.9375 -2.15625 -0.9375q-0.609375 0 -1.28125 0.171875q-0.65625 0.171875 -1.21875 0.484375l0 5.671875q0 0.546875 0.65625 0.75q0.65625 0.203125 1.546875 0.203125z" fill-rule="nonzero"/><path fill="#000000" fill-opacity="0.0" d="m700.5299 297.5134l144.0 0l0 48.0l-144.0 0z" fill-rule="evenodd"/><path stroke="#a64d79" stroke-width="1.0" stroke-linejoin="round" stroke-linecap="butt" d="m700.5299 297.5134l144.0 0l0 48.0l-144.0 0z" fill-rule="evenodd"/><path fill="#a64d79" d="m720.51245 328.62088q-2.765625 0 -4.171875 -1.609375q-1.40625 -1.625 -1.40625 -4.796875q0 -3.171875 1.40625 -4.78125q1.40625 -1.609375 4.171875 -1.609375q2.78125 0 4.1875 1.609375q1.40625 1.609375 1.40625 4.78125q0 3.171875 -1.40625 4.796875q-1.40625 1.609375 -4.1875 1.609375zm0 -1.265625q2.203125 0 3.203125 -1.234375q1.0 -1.234375 1.0 -3.90625q0 -2.640625 -1.0 -3.875q-1.0 -1.25 -3.203125 -1.25q-2.1875 0 -3.203125 1.25q-1.0 1.234375 -1.0 3.875q0 2.671875 1.0 3.90625q1.015625 1.234375 3.203125 1.234375zm11.976379 -8.40625q1.859375 0 3.09375 1.203125q1.234375 1.203125 1.234375 3.859375q0 2.1875 -1.15625 3.4375q-1.15625 1.25 -3.28125 1.25q-0.484375 0 -1.125 -0.15625q-0.640625 -0.140625 -1.203125 -0.390625l0 4.328125l-1.328125 0l0 -11.671875q0 -1.03125 1.125 -1.421875q1.125 -0.40625 2.640625 -0.4375zm-0.109375 8.515625q1.46875 0 2.234375 -0.921875q0.78125 -0.9375 0.78125 -2.53125q0 -1.75 -0.640625 -2.78125q-0.625 -1.046875 -2.28125 -1.046875q-1.015625 0 -1.71875 0.234375q-0.703125 0.234375 -0.703125 0.625l0 5.765625q1.125 0.65625 2.328125 0.65625zm10.5685425 -8.515625q2.125 0 3.109375 1.390625q1.0 1.375 0.953125 3.671875l-6.78125 0q0 1.671875 0.78125 2.578125q0.78125 0.890625 2.234375 0.890625q1.875 0 3.1875 -0.796875l0 1.375q-1.359375 0.65625 -3.265625 0.65625q-2.03125 0 -3.171875 -1.25q-1.125 -1.265625 -1.125 -3.703125q0 -2.359375 1.0625 -3.578125q1.078125 -1.234375 3.015625 -1.234375zm0 1.234375q-1.234375 0 -1.875 0.578125q-0.625 0.5625 -0.796875 2.015625l5.328125 0q-0.09375 -1.296875 -0.75 -1.9375q-0.640625 -0.65625 -1.90625 -0.65625zm6.595581 -0.3125q0.703125 -0.296875 1.859375 -0.609375q1.171875 -0.3125 2.421875 -0.3125q0.1875 0 0.59375 0.125l0 1.1875q-0.4375 -0.0625 -0.890625 -0.0625q-0.609375 0 -1.140625 0.078125q-0.515625 0.078125 -1.515625 0.25l0 7.90625l-1.328125 0l0 -8.5625zm11.002136 -0.921875q1.5625 0 2.46875 0.765625q0.90625 0.765625 0.90625 2.21875l0 4.515625q0 1.34375 -1.109375 1.8125q-1.09375 0.453125 -3.03125 0.453125q-1.46875 0 -2.53125 -0.65625q-1.046875 -0.65625 -1.046875 -2.1875q0 -1.65625 0.90625 -2.40625q0.921875 -0.765625 2.515625 -0.765625q1.8125 0 2.9375 0.65625l0 -1.09375q0 -2.09375 -2.453125 -2.09375q-0.796875 0 -1.625 0.234375q-0.8125 0.21875 -1.375 0.65625l0 -1.34375q0.5625 -0.34375 1.515625 -0.546875q0.96875 -0.21875 1.921875 -0.21875zm-0.453125 8.5625q1.3125 0 1.890625 -0.1875q0.578125 -0.203125 0.578125 -0.796875l0 -2.09375q-0.5 -0.234375 -1.171875 -0.375q-0.671875 -0.140625 -1.40625 -0.140625q-1.171875 0 -1.8125 0.453125q-0.625 0.4375 -0.625 1.296875q0 0.96875 0.734375 1.40625q0.75 0.4375 1.8125 0.4375zm9.741821 1.078125q-1.03125 0 -1.6875 -0.625q-0.640625 -0.625 -0.640625 -1.78125l0 -5.828125l-1.625 0l0 -1.234375l1.625 0l0 -2.625l1.34375 0l0 2.625l2.40625 0l0 1.234375l-2.40625 0l0 5.390625q0 0.828125 0.25 1.203125q0.265625 0.359375 0.984375 0.359375q0.6875 0 1.171875 -0.21875l0 1.265625q-0.265625 0.09375 -0.671875 0.15625q-0.390625 0.078125 -0.75 0.078125zm3.8503418 -12.59375l1.484375 0l0 1.46875l-1.484375 0l0 -1.46875zm0.0625 3.125l1.34375 0l0 9.3125l-1.34375 0l0 -9.3125zm8.227539 9.59375q-2.140625 0 -3.21875 -1.265625q-1.0625 -1.265625 -1.0625 -3.640625q0 -2.40625 1.078125 -3.625q1.09375 -1.234375 3.171875 -1.234375q2.1875 0 3.25 1.296875q1.0625 1.296875 1.0625 3.5625q0 2.3125 -1.125 3.609375q-1.125 1.296875 -3.15625 1.296875zm-0.015625 -1.234375q2.953125 0 2.953125 -3.671875q0 -1.75 -0.703125 -2.6875q-0.6875 -0.9375 -2.25 -0.9375q-2.921875 0 -2.921875 3.625q0 3.671875 2.921875 3.671875zm6.8184814 -7.609375q1.796875 -0.921875 3.921875 -0.921875q1.96875 0 2.828125 0.859375q0.875 0.859375 0.875 2.5625l0 6.0625l-1.34375 0l0 -6.0625q0 -2.203125 -2.5 -2.203125q-1.15625 0 -2.453125 0.375l0 7.890625l-1.328125 0l0 -8.5625zm13.2404175 8.84375q-0.953125 0 -1.625 -0.1875q-0.671875 -0.1875 -1.46875 -0.59375l0 -1.421875q0.953125 0.546875 1.546875 0.765625q0.609375 0.203125 1.453125 0.203125q0.9375 0 1.515625 -0.40625q0.59375 -0.40625 0.59375 -1.0625q0 -0.578125 -0.359375 -0.859375q-0.359375 -0.296875 -1.109375 -0.59375l-0.5 -0.203125q-1.0625 -0.3125 -1.65625 -0.546875q-0.578125 -0.25 -1.015625 -0.765625q-0.4375 -0.515625 -0.4375 -1.421875q0 -0.890625 0.46875 -1.484375q0.46875 -0.609375 1.203125 -0.890625q0.75 -0.296875 1.578125 -0.296875q0.75 0 1.25 0.171875q0.515625 0.171875 1.421875 0.5625l0 1.34375q-0.9375 -0.46875 -1.4375 -0.65625q-0.484375 -0.1875 -1.15625 -0.1875q-0.828125 0 -1.40625 0.328125q-0.578125 0.328125 -0.578125 0.921875q0 0.484375 0.28125 0.796875q0.296875 0.3125 0.734375 0.484375q0.4375 0.171875 1.1875 0.390625q0.9375 0.296875 1.484375 0.546875q0.546875 0.234375 0.96875 0.765625q0.421875 0.53125 0.421875 1.421875q0 0.953125 -0.484375 1.59375q-0.484375 0.640625 -1.265625 0.96875q-0.765625 0.3125 -1.609375 0.3125zm5.960388 -12.71875l1.34375 0l0 11.125l6.375 0l0 1.3125l-7.71875 0l0 -12.4375zm9.679077 0l1.484375 0l0 1.46875l-1.484375 0l0 -1.46875zm0.0625 3.125l1.34375 0l0 9.3125l-1.34375 0l0 -9.3125zm8.243164 -0.140625q2.109375 0 3.1875 1.234375q1.078125 1.234375 1.078125 3.4375q-0.015625 2.84375 -1.3125 3.953125q-1.28125 1.109375 -3.0625 1.109375q-3.71875 0 -3.71875 -1.859375l0 -11.671875l1.328125 0l0 4.328125q0.59375 -0.21875 1.296875 -0.375q0.71875 -0.15625 1.203125 -0.15625zm-0.296875 8.5q1.8125 0 2.46875 -1.015625q0.671875 -1.03125 0.671875 -2.8125q0 -1.59375 -0.6875 -2.515625q-0.6875 -0.9375 -2.15625 -0.9375q-0.609375 0 -1.28125 0.171875q-0.65625 0.171875 -1.21875 0.484375l0 5.671875q0 0.546875 0.65625 0.75q0.65625 0.203125 1.546875 0.203125z" fill-rule="nonzero"/><path fill="#000000" fill-opacity="0.0" d="m672.10645 9.600158l144.0 0l0 48.0l-144.0 0z" fill-rule="evenodd"/><path stroke="#6aa84f" stroke-width="1.0" stroke-linejoin="round" stroke-linecap="butt" d="m672.10645 9.600158l144.0 0l0 48.0l-144.0 0z" fill-rule="evenodd"/><path fill="#6aa84f" d="m698.1672 28.082655l7.640625 0l0 1.265625l-6.296875 0l0 4.281252l5.53125 0l0 1.3125l-5.53125 0l0 5.578125l-1.34375 0l0 -12.437502zm13.323486 12.718752q-2.140625 0 -3.21875 -1.265625q-1.0625 -1.265625 -1.0625 -3.640625q0 -2.40625 1.078125 -3.625q1.09375 -1.2343769 3.171875 -1.2343769q2.1875 0 3.25 1.2968769q1.0625 1.296875 1.0625 3.5625q0 2.3125 -1.125 3.609375q-1.125 1.296875 -3.15625 1.296875zm-0.015625 -1.234375q2.953125 0 2.953125 -3.671875q0 -1.75 -0.703125 -2.6875q-0.6875 -0.9375 -2.25 -0.9375q-2.921875 0 -2.921875 3.625q0 3.671875 2.921875 3.671875zm10.709106 1.234375q-1.859375 0 -2.875 -0.953125q-1.015625 -0.96875 -1.015625 -2.75l0 -5.890627l1.328125 0l0 5.593752q0 1.421875 0.609375 2.09375q0.625 0.65625 1.953125 0.65625q1.3125 0 1.9375 -0.65625q0.625 -0.671875 0.625 -2.09375l0 -5.593752l1.34375 0l0 5.890627q0 1.78125 -1.03125 2.75q-1.015625 0.953125 -2.875 0.953125zm6.8927 -8.843752q1.796875 -0.921875 3.921875 -0.921875q1.96875 0 2.828125 0.859375q0.875 0.8593769 0.875 2.562502l0 6.0625l-1.34375 0l0 -6.0625q0 -2.203125 -2.5 -2.203125q-1.15625 0 -2.453125 0.375l0 7.890625l-1.328125 0l0 -8.562502zm18.240417 -4.6875l0 11.640627q0 0.953125 -1.203125 1.421875q-1.203125 0.46875 -2.625 0.46875q-1.71875 0 -2.984375 -1.109375q-1.265625 -1.109375 -1.28125 -3.953125q0 -2.203125 1.0625 -3.4375q1.078125 -1.2343769 3.1875 -1.2343769q0.484375 0 1.203125 0.15625q0.71875 0.15625 1.296875 0.375l0 -4.328125l1.34375 0zm-1.34375 5.671877q-0.5625 -0.3125 -1.234375 -0.484375q-0.65625 -0.171875 -1.265625 -0.171875q-1.453125 0 -2.15625 0.9375q-0.6875 0.921875 -0.6875 2.515625q0 1.765625 0.640625 2.796875q0.640625 1.03125 2.296875 1.03125q0.984375 0 1.6875 -0.21875q0.71875 -0.234375 0.71875 -0.5625l0 -5.84375zm8.3029175 -1.9062519q1.5625 0 2.46875 0.765625q0.90625 0.7656269 0.90625 2.218752l0 4.515625q0 1.34375 -1.109375 1.8125q-1.09375 0.453125 -3.03125 0.453125q-1.46875 0 -2.53125 -0.65625q-1.046875 -0.65625 -1.046875 -2.1875q0 -1.65625 0.90625 -2.40625q0.921875 -0.765625 2.515625 -0.765625q1.8125 0 2.9375 0.65625l0 -1.09375q0 -2.09375 -2.453125 -2.09375q-0.796875 0 -1.625 0.234375q-0.8125 0.21875 -1.375 0.65625l0 -1.3437519q0.5625 -0.34375 1.515625 -0.546875q0.96875 -0.21875 1.921875 -0.21875zm-0.453125 8.562502q1.3125 0 1.890625 -0.1875q0.578125 -0.203125 0.578125 -0.796875l0 -2.09375q-0.5 -0.234375 -1.171875 -0.375q-0.671875 -0.140625 -1.40625 -0.140625q-1.171875 0 -1.8125 0.453125q-0.625 0.4375 -0.625 1.296875q0 0.96875 0.734375 1.40625q0.75 0.4375 1.8125 0.4375zm9.741821 1.078125q-1.03125 0 -1.6875 -0.625q-0.640625 -0.625 -0.640625 -1.78125l0 -5.828125l-1.625 0l0 -1.2343769l1.625 0l0 -2.625l1.34375 0l0 2.625l2.40625 0l0 1.2343769l-2.40625 0l0 5.390625q0 0.828125 0.25 1.203125q0.265625 0.359375 0.984375 0.359375q0.6875 0 1.171875 -0.21875l0 1.265625q-0.265625 0.09375 -0.671875 0.15625q-0.390625 0.078125 -0.75 0.078125zm3.8503418 -12.593752l1.484375 0l0 1.46875l-1.484375 0l0 -1.46875zm0.0625 3.125l1.34375 0l0 9.312502l-1.34375 0l0 -9.312502zm8.227478 9.593752q-2.140625 0 -3.21875 -1.265625q-1.0625 -1.265625 -1.0625 -3.640625q0 -2.40625 1.078125 -3.625q1.09375 -1.2343769 3.171875 -1.2343769q2.1875 0 3.25 1.2968769q1.0625 1.296875 1.0625 3.5625q0 2.3125 -1.125 3.609375q-1.125 1.296875 -3.15625 1.296875zm-0.015625 -1.234375q2.953125 0 2.953125 -3.671875q0 -1.75 -0.703125 -2.6875q-0.6875 -0.9375 -2.25 -0.9375q-2.921875 0 -2.921875 3.625q0 3.671875 2.921875 3.671875zm6.8185425 -7.609377q1.796875 -0.921875 3.921875 -0.921875q1.96875 0 2.828125 0.859375q0.875 0.8593769 0.875 2.562502l0 6.0625l-1.34375 0l0 -6.0625q0 -2.203125 -2.5 -2.203125q-1.15625 0 -2.453125 0.375l0 7.890625l-1.328125 0l0 -8.562502z" fill-rule="nonzero"/><path fill="#000000" fill-opacity="0.0" d="m264.58813 393.5449l168.0 0l0 48.0l-168.0 0z" fill-rule="evenodd"/><path stroke="#ff00ff" stroke-width="1.0" stroke-linejoin="round" stroke-linecap="butt" d="m264.58813 393.5449l168.0 0l0 48.0l-168.0 0z" fill-rule="evenodd"/><path fill="#ff00ff" d="m300.1628 424.46487l-3.25 -5.015625l-3.171875 0l0 5.015625l-1.34375 0l0 -12.4375l5.125 0q1.796875 0 2.734375 0.921875q0.9375 0.90625 0.9375 2.6875q0 1.4375 -0.765625 2.4375q-0.765625 0.984375 -2.046875 1.21875l3.375 5.171875l-1.59375 0zm-6.421875 -6.28125l3.15625 0q1.53125 0 2.234375 -0.609375q0.71875 -0.625 0.71875 -1.84375q0 -1.1875 -0.5625 -1.8125q-0.5625 -0.625 -1.921875 -0.625l-3.625 0l0 4.890625zm13.959595 -3.203125q2.125 0 3.109375 1.390625q1.0 1.375 0.953125 3.671875l-6.78125 0q0 1.671875 0.78125 2.578125q0.78125 0.890625 2.234375 0.890625q1.875 0 3.1875 -0.796875l0 1.375q-1.359375 0.65625 -3.265625 0.65625q-2.03125 0 -3.171875 -1.25q-1.125 -1.265625 -1.125 -3.703125q0 -2.359375 1.0625 -3.578125q1.078125 -1.234375 3.015625 -1.234375zm0 1.234375q-1.234375 0 -1.875 0.578125q-0.625 0.5625 -0.796875 2.015625l5.328125 0q-0.09375 -1.296875 -0.75 -1.9375q-0.640625 -0.65625 -1.90625 -0.65625zm10.361206 -1.234375q1.859375 0 3.09375 1.203125q1.234375 1.203125 1.234375 3.859375q0 2.1875 -1.15625 3.4375q-1.15625 1.25 -3.28125 1.25q-0.484375 0 -1.125 -0.15625q-0.640625 -0.140625 -1.203125 -0.390625l0 4.328125l-1.328125 0l0 -11.671875q0 -1.03125 1.125 -1.421875q1.125 -0.40625 2.640625 -0.4375zm-0.109375 8.515625q1.46875 0 2.234375 -0.921875q0.78125 -0.9375 0.78125 -2.53125q0 -1.75 -0.640625 -2.78125q-0.625 -1.046875 -2.28125 -1.046875q-1.015625 0 -1.71875 0.234375q-0.703125 0.234375 -0.703125 0.625l0 5.765625q1.125 0.65625 2.328125 0.65625zm10.7716675 1.25q-2.140625 0 -3.21875 -1.265625q-1.0625 -1.265625 -1.0625 -3.640625q0 -2.40625 1.078125 -3.625q1.09375 -1.234375 3.171875 -1.234375q2.1875 0 3.25 1.296875q1.0625 1.296875 1.0625 3.5625q0 2.3125 -1.125 3.609375q-1.125 1.296875 -3.15625 1.296875zm-0.015625 -1.234375q2.953125 0 2.953125 -3.671875q0 -1.75 -0.703125 -2.6875q-0.6875 -0.9375 -2.25 -0.9375q-2.921875 0 -2.921875 3.625q0 3.671875 2.921875 3.671875zm9.443512 1.234375q-0.953125 0 -1.625 -0.1875q-0.671875 -0.1875 -1.46875 -0.59375l0 -1.421875q0.953125 0.546875 1.546875 0.765625q0.609375 0.203125 1.453125 0.203125q0.9375 0 1.515625 -0.40625q0.59375 -0.40625 0.59375 -1.0625q0 -0.578125 -0.359375 -0.859375q-0.359375 -0.296875 -1.109375 -0.59375l-0.5 -0.203125q-1.0625 -0.3125 -1.65625 -0.546875q-0.578125 -0.25 -1.015625 -0.765625q-0.4375 -0.515625 -0.4375 -1.421875q0 -0.890625 0.46875 -1.484375q0.46875 -0.609375 1.203125 -0.890625q0.75 -0.296875 1.578125 -0.296875q0.75 0 1.25 0.171875q0.515625 0.171875 1.421875 0.5625l0 1.34375q-0.9375 -0.46875 -1.4375 -0.65625q-0.484375 -0.1875 -1.15625 -0.1875q-0.828125 0 -1.40625 0.328125q-0.578125 0.328125 -0.578125 0.921875q0 0.484375 0.28125 0.796875q0.296875 0.3125 0.734375 0.484375q0.4375 0.171875 1.1875 0.390625q0.9375 0.296875 1.484375 0.546875q0.546875 0.234375 0.96875 0.765625q0.421875 0.53125 0.421875 1.421875q0 0.953125 -0.484375 1.59375q-0.484375 0.640625 -1.265625 0.96875q-0.765625 0.3125 -1.609375 0.3125zm5.882263 -12.71875l1.484375 0l0 1.46875l-1.484375 0l0 -1.46875zm0.0625 3.125l1.34375 0l0 9.3125l-1.34375 0l0 -9.3125zm7.3368835 9.46875q-1.03125 0 -1.6875 -0.625q-0.640625 -0.625 -0.640625 -1.78125l0 -5.828125l-1.625 0l0 -1.234375l1.625 0l0 -2.625l1.34375 0l0 2.625l2.40625 0l0 1.234375l-2.40625 0l0 5.390625q0 0.828125 0.25 1.203125q0.265625 0.359375 0.984375 0.359375q0.6875 0 1.171875 -0.21875l0 1.265625q-0.265625 0.09375 -0.671875 0.15625q-0.390625 0.078125 -0.75 0.078125zm7.662842 0.125q-2.140625 0 -3.21875 -1.265625q-1.0625 -1.265625 -1.0625 -3.640625q0 -2.40625 1.078125 -3.625q1.09375 -1.234375 3.171875 -1.234375q2.1875 0 3.25 1.296875q1.0625 1.296875 1.0625 3.5625q0 2.3125 -1.125 3.609375q-1.125 1.296875 -3.15625 1.296875zm-0.015625 -1.234375q2.953125 0 2.953125 -3.671875q0 -1.75 -0.703125 -2.6875q-0.6875 -0.9375 -2.25 -0.9375q-2.921875 0 -2.921875 3.625q0 3.671875 2.921875 3.671875zm6.818512 -7.609375q0.703125 -0.296875 1.859375 -0.609375q1.171875 -0.3125 2.421875 -0.3125q0.1875 0 0.59375 0.125l0 1.1875q-0.4375 -0.0625 -0.890625 -0.0625q-0.609375 0 -1.140625 0.078125q-0.515625 0.078125 -1.515625 0.25l0 7.90625l-1.328125 0l0 -8.5625zm14.955292 -0.75l-4.0 10.234375q-0.578125 1.484375 -1.359375 2.078125q-0.765625 0.59375 -1.5625 0.59375q-0.453125 0 -0.875 -0.15625l0 -1.234375q0.375 0.171875 0.796875 0.171875q0.8125 0 1.25 -0.578125q0.453125 -0.578125 0.84375 -1.765625l-3.859375 -9.34375l1.53125 0l2.9375 7.59375l2.953125 -7.59375l1.34375 0zm2.2306213 -3.125l1.34375 0l0 11.125l6.375 0l0 1.3125l-7.71875 0l0 -12.4375zm9.679077 0l1.484375 0l0 1.46875l-1.484375 0l0 -1.46875zm0.0625 3.125l1.34375 0l0 9.3125l-1.34375 0l0 -9.3125zm8.243134 -0.140625q2.109375 0 3.1875 1.234375q1.078125 1.234375 1.078125 3.4375q-0.015625 2.84375 -1.3125 3.953125q-1.28125 1.109375 -3.0625 1.109375q-3.71875 0 -3.71875 -1.859375l0 -11.671875l1.328125 0l0 4.328125q0.59375 -0.21875 1.296875 -0.375q0.71875 -0.15625 1.203125 -0.15625zm-0.296875 8.5q1.8125 0 2.46875 -1.015625q0.671875 -1.03125 0.671875 -2.8125q0 -1.59375 -0.6875 -2.515625q-0.6875 -0.9375 -2.15625 -0.9375q-0.609375 0 -1.28125 0.171875q-0.65625 0.171875 -1.21875 0.484375l0 5.671875q0 0.546875 0.65625 0.75q0.65625 0.203125 1.546875 0.203125z" fill-rule="nonzero"/><path fill="#000000" fill-opacity="0.0" d="m504.5614 297.59424l144.0 0l0 48.0l-144.0 0z" fill-rule="evenodd"/><path stroke="#cc0000" stroke-width="1.0" stroke-linejoin="round" stroke-linecap="butt" d="m504.5614 297.59424l144.0 0l0 48.0l-144.0 0z" fill-rule="evenodd"/><path fill="#cc0000" d="m542.6237 328.70172q-2.3125 0 -3.59375 -1.359375q-1.28125 -1.359375 -1.28125 -3.90625l0 -7.359375l1.34375 0l0 7.4375q0 3.921875 3.53125 3.921875q3.5625 0 3.5625 -3.921875l0 -7.4375l1.3125 0l0 7.359375q0 2.546875 -1.28125 3.90625q-1.28125 1.359375 -3.59375 1.359375zm10.582031 0.09375q-0.953125 0 -1.625 -0.1875q-0.671875 -0.1875 -1.46875 -0.59375l0 -1.421875q0.953125 0.546875 1.546875 0.765625q0.609375 0.203125 1.453125 0.203125q0.9375 0 1.515625 -0.40625q0.59375 -0.40625 0.59375 -1.0625q0 -0.578125 -0.359375 -0.859375q-0.359375 -0.296875 -1.109375 -0.59375l-0.5 -0.203125q-1.0625 -0.3125 -1.65625 -0.546875q-0.578125 -0.25 -1.015625 -0.765625q-0.4375 -0.515625 -0.4375 -1.421875q0 -0.890625 0.46875 -1.484375q0.46875 -0.609375 1.203125 -0.890625q0.75 -0.296875 1.578125 -0.296875q0.75 0 1.25 0.171875q0.515625 0.171875 1.421875 0.5625l0 1.34375q-0.9375 -0.46875 -1.4375 -0.65625q-0.484375 -0.1875 -1.15625 -0.1875q-0.828125 0 -1.40625 0.328125q-0.578125 0.328125 -0.578125 0.921875q0 0.484375 0.28125 0.796875q0.296875 0.3125 0.734375 0.484375q0.4375 0.171875 1.1875 0.390625q0.9375 0.296875 1.484375 0.546875q0.546875 0.234375 0.96875 0.765625q0.421875 0.53125 0.421875 1.421875q0 0.953125 -0.484375 1.59375q-0.484375 0.640625 -1.265625 0.96875q-0.765625 0.3125 -1.609375 0.3125zm9.491577 -9.765625q2.125 0 3.109375 1.390625q1.0 1.375 0.953125 3.671875l-6.78125 0q0 1.671875 0.78125 2.578125q0.78125 0.890625 2.234375 0.890625q1.875 0 3.1875 -0.796875l0 1.375q-1.359375 0.65625 -3.265625 0.65625q-2.03125 0 -3.171875 -1.25q-1.125 -1.265625 -1.125 -3.703125q0 -2.359375 1.0625 -3.578125q1.078125 -1.234375 3.015625 -1.234375zm0 1.234375q-1.234375 0 -1.875 0.578125q-0.625 0.5625 -0.796875 2.015625l5.328125 0q-0.09375 -1.296875 -0.75 -1.9375q-0.640625 -0.65625 -1.90625 -0.65625zm11.892517 8.40625q-2.875 0 -4.328125 -1.609375q-1.4375 -1.609375 -1.4375 -4.78125q0 -3.171875 1.4375 -4.765625q1.453125 -1.609375 4.328125 -1.609375q1.890625 0 3.78125 0.90625l0 1.296875q-1.75 -0.9375 -3.640625 -0.9375q-2.34375 0 -3.4375 1.234375q-1.078125 1.234375 -1.078125 3.875q0 2.671875 1.078125 3.890625q1.078125 1.21875 3.4375 1.21875q1.984375 0 3.640625 -0.90625l0 1.28125q-1.90625 0.90625 -3.78125 0.90625zm10.276062 -9.640625q1.5625 0 2.46875 0.765625q0.90625 0.765625 0.90625 2.21875l0 4.515625q0 1.34375 -1.109375 1.8125q-1.09375 0.453125 -3.03125 0.453125q-1.46875 0 -2.53125 -0.65625q-1.046875 -0.65625 -1.046875 -2.1875q0 -1.65625 0.90625 -2.40625q0.921875 -0.765625 2.515625 -0.765625q1.8125 0 2.9375 0.65625l0 -1.09375q0 -2.09375 -2.453125 -2.09375q-0.796875 0 -1.625 0.234375q-0.8125 0.21875 -1.375 0.65625l0 -1.34375q0.5625 -0.34375 1.515625 -0.546875q0.96875 -0.21875 1.921875 -0.21875zm-0.453125 8.5625q1.3125 0 1.890625 -0.1875q0.578125 -0.203125 0.578125 -0.796875l0 -2.09375q-0.5 -0.234375 -1.171875 -0.375q-0.671875 -0.140625 -1.40625 -0.140625q-1.171875 0 -1.8125 0.453125q-0.625 0.4375 -0.625 1.296875q0 0.96875 0.734375 1.40625q0.75 0.4375 1.8125 0.4375zm9.444946 1.203125q-0.953125 0 -1.625 -0.1875q-0.671875 -0.1875 -1.46875 -0.59375l0 -1.421875q0.953125 0.546875 1.546875 0.765625q0.609375 0.203125 1.453125 0.203125q0.9375 0 1.515625 -0.40625q0.59375 -0.40625 0.59375 -1.0625q0 -0.578125 -0.359375 -0.859375q-0.359375 -0.296875 -1.109375 -0.59375l-0.5 -0.203125q-1.0625 -0.3125 -1.65625 -0.546875q-0.578125 -0.25 -1.015625 -0.765625q-0.4375 -0.515625 -0.4375 -1.421875q0 -0.890625 0.46875 -1.484375q0.46875 -0.609375 1.203125 -0.890625q0.75 -0.296875 1.578125 -0.296875q0.75 0 1.25 0.171875q0.515625 0.171875 1.421875 0.5625l0 1.34375q-0.9375 -0.46875 -1.4375 -0.65625q-0.484375 -0.1875 -1.15625 -0.1875q-0.828125 0 -1.40625 0.328125q-0.578125 0.328125 -0.578125 0.921875q0 0.484375 0.28125 0.796875q0.296875 0.3125 0.734375 0.484375q0.4375 0.171875 1.1875 0.390625q0.9375 0.296875 1.484375 0.546875q0.546875 0.234375 0.96875 0.765625q0.421875 0.53125 0.421875 1.421875q0 0.953125 -0.484375 1.59375q-0.484375 0.640625 -1.265625 0.96875q-0.765625 0.3125 -1.609375 0.3125zm9.491577 -9.765625q2.125 0 3.109375 1.390625q1.0 1.375 0.953125 3.671875l-6.78125 0q0 1.671875 0.78125 2.578125q0.78125 0.890625 2.234375 0.890625q1.875 0 3.1875 -0.796875l0 1.375q-1.359375 0.65625 -3.265625 0.65625q-2.03125 0 -3.171875 -1.25q-1.125 -1.265625 -1.125 -3.703125q0 -2.359375 1.0625 -3.578125q1.078125 -1.234375 3.015625 -1.234375zm0 1.234375q-1.234375 0 -1.875 0.578125q-0.625 0.5625 -0.796875 2.015625l5.328125 0q-0.09375 -1.296875 -0.75 -1.9375q-0.640625 -0.65625 -1.90625 -0.65625zm9.220642 8.53125q-0.953125 0 -1.625 -0.1875q-0.671875 -0.1875 -1.46875 -0.59375l0 -1.421875q0.953125 0.546875 1.546875 0.765625q0.609375 0.203125 1.453125 0.203125q0.9375 0 1.515625 -0.40625q0.59375 -0.40625 0.59375 -1.0625q0 -0.578125 -0.359375 -0.859375q-0.359375 -0.296875 -1.109375 -0.59375l-0.5 -0.203125q-1.0625 -0.3125 -1.65625 -0.546875q-0.578125 -0.25 -1.015625 -0.765625q-0.4375 -0.515625 -0.4375 -1.421875q0 -0.890625 0.46875 -1.484375q0.46875 -0.609375 1.203125 -0.890625q0.75 -0.296875 1.578125 -0.296875q0.75 0 1.25 0.171875q0.515625 0.171875 1.421875 0.5625l0 1.34375q-0.9375 -0.46875 -1.4375 -0.65625q-0.484375 -0.1875 -1.15625 -0.1875q-0.828125 0 -1.40625 0.328125q-0.578125 0.328125 -0.578125 0.921875q0 0.484375 0.28125 0.796875q0.296875 0.3125 0.734375 0.484375q0.4375 0.171875 1.1875 0.390625q0.9375 0.296875 1.484375 0.546875q0.546875 0.234375 0.96875 0.765625q0.421875 0.53125 0.421875 1.421875q0 0.953125 -0.484375 1.59375q-0.484375 0.640625 -1.265625 0.96875q-0.765625 0.3125 -1.609375 0.3125z" fill-rule="nonzero"/><path fill="#000000" fill-opacity="0.0" d="m348.58813 441.5449l0.03149414 48.0" fill-rule="evenodd"/><path stroke="#666666" stroke-width="1.0" stroke-linejoin="round" stroke-linecap="butt" d="m348.59207 447.54486l0.027557373 42.0" fill-rule="evenodd"/><path stroke="#666666" stroke-width="1.0" stroke-linecap="butt" d="m350.2438 447.5438l-1.6547241 -4.537018l-1.6487427 4.5391846z" fill-rule="evenodd"/><path fill="#000000" fill-opacity="0.0" d="m643.68243 57.601006l200.8504 0l0 18.992126l-200.8504 0z" fill-rule="evenodd"/><path fill="#434343" d="m660.56213 72.97644q-0.515625 -0.921875 -0.9375 -2.203125q-0.40625 -1.296875 -0.40625 -2.8125q0 -1.53125 0.40625 -2.828125q0.421875 -1.2968712 0.9375 -2.2031212l0.90625 0q-0.4375 0.75 -0.90625 2.0781212q-0.46875 1.3125 -0.46875 2.953125q0 1.625 0.46875 2.96875q0.46875 1.328125 0.90625 2.046875l-0.90625 0zm4.9681396 -7.453125q1.375 0 2.0 0.890625q0.640625 0.890625 0.625 2.359375l-4.375 0q0 1.078125 0.5 1.65625q0.515625 0.578125 1.453125 0.578125q1.203125 0 2.046875 -0.515625l0 0.890625q-0.875 0.421875 -2.09375 0.421875q-1.3125 0 -2.046875 -0.8125q-0.734375 -0.8125 -0.734375 -2.375q0 -1.53125 0.6875 -2.3125q0.703125 -0.78125 1.9375 -0.78125zm0 0.796875q-0.78125 0 -1.1875 0.359375q-0.40625 0.359375 -0.515625 1.296875l3.40625 0q-0.046875 -0.828125 -0.46875 -1.234375q-0.40625 -0.421875 -1.234375 -0.421875zm9.237793 -0.6875l-2.546875 5.984375l-0.875 0l-2.53125 -5.984375l0.921875 0l2.125 5.03125l2.046875 -5.03125l0.859375 0zm3.2783203 -0.109375q1.375 0 2.0 0.890625q0.640625 0.890625 0.625 2.359375l-4.375 0q0 1.078125 0.5 1.65625q0.515625 0.578125 1.453125 0.578125q1.203125 0 2.046875 -0.515625l0 0.890625q-0.875 0.421875 -2.09375 0.421875q-1.3125 0 -2.046875 -0.8125q-0.734375 -0.8125 -0.734375 -2.375q0 -1.53125 0.6875 -2.3125q0.703125 -0.78125 1.9375 -0.78125zm0 0.796875q-0.78125 0 -1.1875 0.359375q-0.40625 0.359375 -0.515625 1.296875l3.40625 0q-0.046875 -0.828125 -0.46875 -1.234375q-0.40625 -0.421875 -1.234375 -0.421875zm4.235901 -0.21875q0.46875 -0.1875 1.21875 -0.375q0.75 -0.203125 1.546875 -0.203125q0.125 0 0.390625 0.0625l0 0.78125q-0.296875 -0.046875 -0.578125 -0.046875q-0.40625 0 -0.75 0.046875q-0.328125 0.046875 -0.953125 0.15625l0 5.09375l-0.875 0l0 -5.515625zm9.633423 -0.46875l-2.578125 6.578125q-0.359375 0.953125 -0.859375 1.328125q-0.5 0.390625 -1.015625 0.390625q-0.296875 0 -0.5625 -0.109375l0 -0.78125q0.234375 0.109375 0.515625 0.109375q0.515625 0 0.796875 -0.375q0.296875 -0.375 0.546875 -1.125l-2.484375 -6.015625l0.984375 0l1.890625 4.875l1.90625 -4.875l0.859375 0zm11.163147 -0.109375q1.25 0 1.8125 0.5625q0.5625 0.546875 0.5625 1.625l0 3.90625l-0.875 0l0 -3.90625q0 -1.40625 -1.609375 -1.40625q-0.765625 0 -1.4375 0.40625q0.15625 0.421875 0.15625 1.0l0 3.90625l-0.875 0l0 -3.90625q0 -1.40625 -1.609375 -1.40625q-0.734375 0 -1.5625 0.234375l0 5.078125l-0.875 0l0 -5.515625q1.171875 -0.578125 2.53125 -0.578125q1.171875 0 1.765625 0.484375q0.890625 -0.484375 2.015625 -0.484375zm6.7523193 6.28125q-1.375 0 -2.078125 -0.8125q-0.6875 -0.828125 -0.6875 -2.34375q0 -1.5625 0.703125 -2.34375q0.703125 -0.78125 2.03125 -0.78125q1.40625 0 2.09375 0.84375q0.6875 0.828125 0.6875 2.28125q0 1.484375 -0.71875 2.328125q-0.71875 0.828125 -2.03125 0.828125zm-0.015625 -0.796875q1.890625 0 1.890625 -2.359375q0 -1.140625 -0.4375 -1.734375q-0.4375 -0.59375 -1.453125 -0.59375q-1.875 0 -1.875 2.328125q0 2.359375 1.875 2.359375zm9.296814 -7.906246l0 7.484371q0 0.609375 -0.78125 0.921875q-0.78125 0.296875 -1.6875 0.296875q-1.109375 0 -1.921875 -0.71875q-0.8125 -0.71875 -0.828125 -2.546875q0 -1.40625 0.6875 -2.203125q0.703125 -0.796875 2.046875 -0.796875q0.3125 0 0.765625 0.109375q0.46875 0.09375 0.84375 0.234375l0 -2.7812462l0.875 0zm-0.875 3.6406212q-0.359375 -0.203125 -0.78125 -0.3125q-0.421875 -0.109375 -0.828125 -0.109375q-0.9375 0 -1.375 0.59375q-0.4375 0.59375 -0.4375 1.625q0 1.140625 0.40625 1.8125q0.40625 0.65625 1.46875 0.65625q0.640625 0 1.09375 -0.140625q0.453125 -0.15625 0.453125 -0.359375l0 -3.765625zm5.296814 5.0625q-1.203125 0 -1.859375 -0.625q-0.65625 -0.625 -0.65625 -1.765625l0 -3.78125l0.875 0l0 3.59375q0 0.921875 0.390625 1.34375q0.390625 0.421875 1.25 0.421875q0.84375 0 1.234375 -0.421875q0.40625 -0.421875 0.40625 -1.34375l0 -3.59375l0.859375 0l0 3.78125q0 1.140625 -0.65625 1.765625q-0.640625 0.625 -1.84375 0.625zm4.42041 -0.1875l0 -8.265621l0.875 0l0 8.265621l-0.875 0zm5.1121826 -6.09375q1.375 0 2.0 0.890625q0.640625 0.890625 0.625 2.359375l-4.375 0q0 1.078125 0.5 1.65625q0.515625 0.578125 1.453125 0.578125q1.203125 0 2.046875 -0.515625l0 0.890625q-0.875 0.421875 -2.09375 0.421875q-1.3125 0 -2.046875 -0.8125q-0.734375 -0.8125 -0.734375 -2.375q0 -1.53125 0.6875 -2.3125q0.703125 -0.78125 1.9375 -0.78125zm0 0.796875q-0.78125 0 -1.1875 0.359375q-0.40625 0.359375 -0.515625 1.296875l3.40625 0q-0.046875 -0.828125 -0.46875 -1.234375q-0.40625 -0.421875 -1.234375 -0.421875zm12.637817 -3.2187462l0 7.484371q0 0.609375 -0.78125 0.921875q-0.78125 0.296875 -1.6875 0.296875q-1.109375 0 -1.921875 -0.71875q-0.8125 -0.71875 -0.828125 -2.546875q0 -1.40625 0.6875 -2.203125q0.703125 -0.796875 2.046875 -0.796875q0.3125 0 0.765625 0.109375q0.46875 0.09375 0.84375 0.234375l0 -2.7812462l0.875 0zm-0.875 3.6406212q-0.359375 -0.203125 -0.78125 -0.3125q-0.421875 -0.109375 -0.828125 -0.109375q-0.9375 0 -1.375 0.59375q-0.4375 0.59375 -0.4375 1.625q0 1.140625 0.40625 1.8125q0.40625 0.65625 1.46875 0.65625q0.640625 0 1.09375 -0.140625q0.453125 -0.15625 0.453125 -0.359375l0 -3.765625zm5.109253 -1.21875q1.375 0 2.0 0.890625q0.640625 0.890625 0.625 2.359375l-4.375 0q0 1.078125 0.5 1.65625q0.515625 0.578125 1.453125 0.578125q1.203125 0 2.046875 -0.515625l0 0.890625q-0.875 0.421875 -2.09375 0.421875q-1.3125 0 -2.046875 -0.8125q-0.734375 -0.8125 -0.734375 -2.375q0 -1.53125 0.6875 -2.3125q0.703125 -0.78125 1.9375 -0.78125zm0 0.796875q-0.78125 0 -1.1875 0.359375q-0.40625 0.359375 -0.515625 1.296875l3.40625 0q-0.046875 -0.828125 -0.46875 -1.234375q-0.40625 -0.421875 -1.234375 -0.421875zm6.673462 -0.796875q1.1875 0 1.984375 0.78125q0.796875 0.765625 0.796875 2.46875q0 1.40625 -0.75 2.21875q-0.734375 0.796875 -2.109375 0.796875q-0.3125 0 -0.71875 -0.109375q-0.40625 -0.09375 -0.765625 -0.25l0 2.796875l-0.875 0l0 -7.515625q0 -0.65625 0.71875 -0.90625q0.734375 -0.265625 1.71875 -0.28125zm-0.078125 5.46875q0.953125 0 1.4375 -0.59375q0.5 -0.609375 0.5 -1.625q0 -1.125 -0.40625 -1.78125q-0.40625 -0.671875 -1.46875 -0.671875q-0.65625 0 -1.109375 0.15625q-0.4375 0.140625 -0.4375 0.390625l0 3.703125q0.71875 0.421875 1.484375 0.421875zm6.796753 -5.46875q1.375 0 2.0 0.890625q0.640625 0.890625 0.625 2.359375l-4.375 0q0 1.078125 0.5 1.65625q0.515625 0.578125 1.453125 0.578125q1.203125 0 2.046875 -0.515625l0 0.890625q-0.875 0.421875 -2.09375 0.421875q-1.3125 0 -2.046875 -0.8125q-0.734375 -0.8125 -0.734375 -2.375q0 -1.53125 0.6875 -2.3125q0.703125 -0.78125 1.9375 -0.78125zm0 0.796875q-0.78125 0 -1.1875 0.359375q-0.40625 0.359375 -0.515625 1.296875l3.40625 0q-0.046875 -0.828125 -0.46875 -1.234375q-0.40625 -0.421875 -1.234375 -0.421875zm4.235962 -0.21875q1.171875 -0.578125 2.53125 -0.578125q1.265625 0 1.828125 0.5625q0.5625 0.546875 0.5625 1.625l0 3.90625l-0.875 0l0 -3.90625q0 -1.40625 -1.609375 -1.40625q-0.734375 0 -1.5625 0.234375l0 5.078125l-0.875 0l0 -5.515625zm11.749878 -2.9999962l0 7.484371q0 0.609375 -0.78125 0.921875q-0.78125 0.296875 -1.6875 0.296875q-1.109375 0 -1.921875 -0.71875q-0.8125 -0.71875 -0.828125 -2.546875q0 -1.40625 0.6875 -2.203125q0.703125 -0.796875 2.046875 -0.796875q0.3125 0 0.765625 0.109375q0.46875 0.09375 0.84375 0.234375l0 -2.7812462l0.875 0zm-0.875 3.6406212q-0.359375 -0.203125 -0.78125 -0.3125q-0.421875 -0.109375 -0.828125 -0.109375q-0.9375 0 -1.375 0.59375q-0.4375 0.59375 -0.4375 1.625q0 1.140625 0.40625 1.8125q0.40625 0.65625 1.46875 0.65625q0.640625 0 1.09375 -0.140625q0.453125 -0.15625 0.453125 -0.359375l0 -3.765625zm4.484314 5.0625q-0.609375 0 -1.046875 -0.125q-0.4375 -0.125 -0.953125 -0.390625l0 -0.90625q0.609375 0.34375 1.0 0.484375q0.390625 0.140625 0.9375 0.140625q0.59375 0 0.96875 -0.265625q0.390625 -0.265625 0.390625 -0.6875q0 -0.375 -0.234375 -0.546875q-0.234375 -0.1875 -0.71875 -0.390625l-0.3125 -0.125q-0.6875 -0.1875 -1.0625 -0.34375q-0.375 -0.15625 -0.65625 -0.484375q-0.28125 -0.34375 -0.28125 -0.921875q0 -0.578125 0.296875 -0.953125q0.296875 -0.390625 0.78125 -0.578125q0.484375 -0.1875 1.0 -0.1875q0.484375 0 0.8125 0.109375q0.328125 0.109375 0.90625 0.359375l0 0.859375q-0.59375 -0.296875 -0.921875 -0.40625q-0.3125 -0.125 -0.75 -0.125q-0.515625 0 -0.890625 0.203125q-0.375 0.203125 -0.375 0.59375q0 0.3125 0.1875 0.515625q0.1875 0.1875 0.46875 0.3125q0.28125 0.109375 0.765625 0.234375q0.59375 0.203125 0.9375 0.359375q0.359375 0.15625 0.625 0.5q0.28125 0.328125 0.28125 0.90625q0 0.609375 -0.3125 1.03125q-0.3125 0.40625 -0.8125 0.625q-0.5 0.203125 -1.03125 0.203125zm9.717712 0q-1.375 0 -2.078125 -0.8125q-0.6875 -0.828125 -0.6875 -2.34375q0 -1.5625 0.703125 -2.34375q0.703125 -0.78125 2.03125 -0.78125q1.40625 0 2.09375 0.84375q0.6875 0.828125 0.6875 2.28125q0 1.484375 -0.71875 2.328125q-0.71875 0.828125 -2.03125 0.828125zm-0.015625 -0.796875q1.890625 0 1.890625 -2.359375q0 -1.140625 -0.4375 -1.734375q-0.4375 -0.59375 -1.453125 -0.59375q-1.875 0 -1.875 2.328125q0 2.359375 1.875 2.359375zm4.374939 -4.90625q1.171875 -0.578125 2.53125 -0.578125q1.265625 0 1.828125 0.5625q0.5625 0.546875 0.5625 1.625l0 3.90625l-0.875 0l0 -3.90625q0 -1.40625 -1.609375 -1.40625q-0.734375 0 -1.5625 0.234375l0 5.078125l-0.875 0l0 -5.515625zm12.198669 5.609375q-0.65625 0 -1.078125 -0.390625q-0.421875 -0.40625 -0.421875 -1.15625l0 -3.75l-1.046875 0l0 -0.78125l1.046875 0l0 -1.7031212l0.859375 0l0 1.7031212l1.546875 0l0 0.78125l-1.546875 0l0 3.46875q0 0.53125 0.171875 0.78125q0.171875 0.234375 0.625 0.234375q0.4375 0 0.75 -0.140625l0 0.8125q-0.15625 0.0625 -0.421875 0.09375q-0.25 0.046875 -0.484375 0.046875zm5.152893 -6.1875q1.125 0 1.703125 0.625q0.59375 0.625 0.59375 1.921875l0 3.546875l-0.859375 0l0 -3.546875q0 -0.84375 -0.390625 -1.296875q-0.390625 -0.453125 -1.140625 -0.453125q-0.84375 0 -1.71875 0.46875l0 4.828125l-0.875 0l0 -8.640621l0.875 0l0 3.0468712q0.4375 -0.234375 0.90625 -0.359375q0.484375 -0.140625 0.90625 -0.140625zm4.2125854 -1.9062462l0.96875 0l0 0.9374962l-0.96875 0l0 -0.9374962zm0.0625 2.0156212l0.859375 0l0 5.984375l-0.859375 0l0 -5.984375zm4.52063 6.171875q-0.609375 0 -1.046875 -0.125q-0.4375 -0.125 -0.953125 -0.390625l0 -0.90625q0.609375 0.34375 1.0 0.484375q0.390625 0.140625 0.9375 0.140625q0.59375 0 0.96875 -0.265625q0.390625 -0.265625 0.390625 -0.6875q0 -0.375 -0.234375 -0.546875q-0.234375 -0.1875 -0.71875 -0.390625l-0.3125 -0.125q-0.6875 -0.1875 -1.0625 -0.34375q-0.375 -0.15625 -0.65625 -0.484375q-0.28125 -0.34375 -0.28125 -0.921875q0 -0.578125 0.296875 -0.953125q0.296875 -0.390625 0.78125 -0.578125q0.484375 -0.1875 1.0 -0.1875q0.484375 0 0.8125 0.109375q0.328125 0.109375 0.90625 0.359375l0 0.859375q-0.59375 -0.296875 -0.921875 -0.40625q-0.3125 -0.125 -0.75 -0.125q-0.515625 0 -0.890625 0.203125q-0.375 0.203125 -0.375 0.59375q0 0.3125 0.1875 0.515625q0.1875 0.1875 0.46875 0.3125q0.28125 0.109375 0.765625 0.234375q0.59375 0.203125 0.9375 0.359375q0.359375 0.15625 0.625 0.5q0.28125 0.328125 0.28125 0.90625q0 0.609375 -0.3125 1.03125q-0.3125 0.40625 -0.8125 0.625q-0.5 0.203125 -1.03125 0.203125zm3.597046 1.171875q0.453125 -0.765625 0.921875 -2.078125q0.46875 -1.328125 0.46875 -2.953125q0 -1.625 -0.484375 -2.953125q-0.46875 -1.3437462 -0.90625 -2.0624962l0.921875 0q0.5 0.90625 0.90625 2.2031212q0.421875 1.28125 0.421875 2.8125q0 1.53125 -0.421875 2.828125q-0.40625 1.28125 -0.90625 2.203125l-0.921875 0z" fill-rule="nonzero"/><path fill="#000000" fill-opacity="0.0" d="m144.10529 105.514275l144.0 0l0 48.000008l-144.0 0z" fill-rule="evenodd"/><path stroke="#0000ff" stroke-width="1.0" stroke-linejoin="round" stroke-linecap="butt" d="m144.10529 105.514275l144.0 0l0 48.000008l-144.0 0z" fill-rule="evenodd"/><path fill="#0000ff" d="m172.2497 125.2624l-4.40625 0l0 -1.265625l10.125 0l0 1.265625l-4.375 0l0 11.171883l-1.34375 0l0 -11.171883zm8.439102 3.0937576l-1.59375 0l0 -1.2343826l1.59375 0l0 -0.5q0 -1.546875 0.546875 -2.296875q0.546875 -0.765625 1.171875 -0.9375q0.625 -0.1875 1.296875 -0.1875q0.5 0 0.890625 0.125l0 1.1875q-0.375 -0.078125 -0.671875 -0.078125q-0.59375 0 -0.96875 0.125q-0.375 0.109375 -0.65625 0.578125q-0.265625 0.453125 -0.265625 1.46875l0 0.515625l2.5625 0l0 1.2343826l-2.5625 0l0 8.078125l-1.34375 0l0 -8.078125zm6.2304688 -4.3593826l1.34375 0l0 11.125008l6.375 0l0 1.3125l-7.71875 0l0 -12.437508zm16.663467 5.7812576q0.875 0.390625 1.484375 1.15625q0.625 0.75 0.625 1.96875q0 1.8125 -1.171875 2.671875q-1.171875 0.859375 -3.34375 0.859375l-4.5 0l0 -12.437508l4.125 0q4.140625 0 4.140625 3.328125q0 0.9062576 -0.296875 1.3593826q-0.296875 0.453125 -0.640625 0.734375q-0.328125 0.28125 -0.421875 0.359375zm-5.5625 -0.390625l3.078125 0q1.140625 0 1.8125 -0.390625q0.6875 -0.390625 0.6875 -1.5781326q0 -1.203125 -0.65625 -1.671875q-0.65625 -0.46875 -2.0 -0.46875l-2.921875 0l0 4.1093826zm3.265625 5.796875q1.421875 0 2.234375 -0.484375q0.828125 -0.5 0.828125 -1.859375q0 -1.34375 -0.84375 -1.765625q-0.84375 -0.421875 -2.265625 -0.421875l-3.21875 0l0 4.53125l3.265625 0zm10.9192505 1.53125q-1.859375 0 -2.875 -0.953125q-1.015625 -0.96875 -1.015625 -2.75l0 -5.8906326l1.328125 0l0 5.5937576q0 1.421875 0.609375 2.09375q0.625 0.65625 1.953125 0.65625q1.3125 0 1.9375 -0.65625q0.625 -0.671875 0.625 -2.09375l0 -5.5937576l1.34375 0l0 5.8906326q0 1.78125 -1.03125 2.75q-1.015625 0.953125 -2.875 0.953125zm9.517685 0q-0.953125 0 -1.625 -0.1875q-0.671875 -0.1875 -1.46875 -0.59375l0 -1.421875q0.953125 0.546875 1.546875 0.765625q0.609375 0.203125 1.453125 0.203125q0.9375 0 1.515625 -0.40625q0.59375 -0.40625 0.59375 -1.0625q0 -0.578125 -0.359375 -0.859375q-0.359375 -0.296875 -1.109375 -0.59375l-0.5 -0.203125q-1.0625 -0.3125 -1.65625 -0.546875q-0.578125 -0.25 -1.015625 -0.765625q-0.4375 -0.515625 -0.4375 -1.421875q0 -0.890625 0.46875 -1.484375q0.46875 -0.6093826 1.203125 -0.8906326q0.75 -0.296875 1.578125 -0.296875q0.75 0 1.25 0.171875q0.515625 0.171875 1.421875 0.5625l0 1.3437576q-0.9375 -0.46875 -1.4375 -0.65625q-0.484375 -0.1875 -1.15625 -0.1875q-0.828125 0 -1.40625 0.328125q-0.578125 0.328125 -0.578125 0.921875q0 0.484375 0.28125 0.796875q0.296875 0.3125 0.734375 0.484375q0.4375 0.171875 1.1875 0.390625q0.9375 0.296875 1.484375 0.546875q0.546875 0.234375 0.96875 0.765625q0.421875 0.53125 0.421875 1.421875q0 0.953125 -0.484375 1.59375q-0.484375 0.640625 -1.265625 0.96875q-0.765625 0.3125 -1.609375 0.3125zm18.480057 -4.15625l-5.359375 0l-1.5 3.875l-1.453125 0l4.953125 -12.437508l1.34375 0l4.953125 12.437508l-1.4375 0l-1.5 -3.875zm-0.5 -1.296875l-2.1875 -5.6875076l-2.171875 5.6875076l4.359375 0zm9.074097 -4.3125076q1.859375 0 3.09375 1.2031326q1.234375 1.203125 1.234375 3.859375q0 2.1875 -1.15625 3.4375q-1.15625 1.25 -3.28125 1.25q-0.484375 0 -1.125 -0.15625q-0.640625 -0.140625 -1.203125 -0.390625l0 4.328125l-1.328125 0l0 -11.671875q0 -1.0312576 1.125 -1.4218826q1.125 -0.40625 2.640625 -0.4375zm-0.109375 8.515633q1.46875 0 2.234375 -0.921875q0.78125 -0.9375 0.78125 -2.53125q0 -1.75 -0.640625 -2.78125q-0.625 -1.046875 -2.28125 -1.046875q-1.015625 0 -1.71875 0.234375q-0.703125 0.234375 -0.703125 0.625l0 5.765625q1.125 0.65625 2.328125 0.65625zm10.7247925 -8.515633q1.859375 0 3.09375 1.2031326q1.234375 1.203125 1.234375 3.859375q0 2.1875 -1.15625 3.4375q-1.15625 1.25 -3.28125 1.25q-0.484375 0 -1.125 -0.15625q-0.640625 -0.140625 -1.203125 -0.390625l0 4.328125l-1.3281403 0l0 -11.671875q0 -1.0312576 1.1250153 -1.4218826q1.125 -0.40625 2.640625 -0.4375zm-0.109375 8.515633q1.46875 0 2.234375 -0.921875q0.78125 -0.9375 0.78125 -2.53125q0 -1.75 -0.640625 -2.78125q-0.625 -1.046875 -2.28125 -1.046875q-1.015625 0 -1.71875 0.234375q-0.703125 0.234375 -0.703125 0.625l0 5.765625q1.125 0.65625 2.328125 0.65625z" fill-rule="nonzero"/><path fill="#000000" fill-opacity="0.0" d="m216.10529 153.51428l0 18.167786l-108.50394 0l0 53.86371" fill-rule="evenodd"/><path stroke="#666666" stroke-width="1.0" stroke-linejoin="round" stroke-linecap="butt" d="m216.1053 153.51428l0 18.167786l-108.503944 0l0 47.863693" fill-rule="evenodd"/><path fill="#666666" stroke="#666666" stroke-width="1.0" stroke-linecap="butt" d="m105.94962 219.54576l1.6517334 4.538101l1.6517334 -4.538101z" fill-rule="evenodd"/><path fill="#000000" fill-opacity="0.0" d="m324.58813 9.6l144.0 0l0 48.0l-144.0 0z" fill-rule="evenodd"/><path stroke="#6aa84f" stroke-width="1.0" stroke-linejoin="round" stroke-linecap="butt" d="m324.58813 9.6l144.0 0l0 48.0l-144.0 0z" fill-rule="evenodd"/><path fill="#6aa84f" d="m382.98578 40.707497q-2.3125 0 -3.59375 -1.359375q-1.28125 -1.359375 -1.28125 -3.90625l0 -7.359373l1.34375 0l0 7.437498q0 3.921875 3.53125 3.921875q3.5625 0 3.5625 -3.921875l0 -7.437498l1.3125 0l0 7.359373q0 2.546875 -1.28125 3.90625q-1.28125 1.359375 -3.59375 1.359375zm8.035126 -12.624998l1.34375 0l0 12.437498l-1.34375 0l0 -12.437498zm7.202301 6.828123l-1.34375 1.46875l0 4.140625l-1.34375 0l0 -12.437498l1.34375 0l0 6.546873l5.90625 -6.546873l1.71875 0l-5.34375 5.812498l5.765625 6.625l-1.859375 0l-4.84375 -5.609375zm8.670654 -6.828123l1.484375 0l0 1.46875l-1.484375 0l0 -1.46875zm0.0625 3.125l1.34375 0l0 9.312498l-1.34375 0l0 -9.312498zm7.3368835 9.468748q-1.03125 0 -1.6875 -0.625q-0.640625 -0.625 -0.640625 -1.78125l0 -5.828125l-1.625 0l0 -1.2343731l1.625 0l0 -2.625l1.34375 0l0 2.625l2.40625 0l0 1.2343731l-2.40625 0l0 5.390625q0 0.828125 0.25 1.203125q0.265625 0.359375 0.984375 0.359375q0.6875 0 1.171875 -0.21875l0 1.265625q-0.265625 0.09375 -0.671875 0.15625q-0.390625 0.078125 -0.75 0.078125z" fill-rule="nonzero"/><path fill="#000000" fill-opacity="0.0" d="m216.10529 105.514275l0 -23.957062l180.47244 0l0 -23.948448" fill-rule="evenodd"/><path stroke="#666666" stroke-width="1.0" stroke-linejoin="round" stroke-linecap="butt" d="m216.1053 105.51428l0 -23.95707l180.47243 0l0 -17.948448" fill-rule="evenodd"/><path stroke="#666666" stroke-width="1.0" stroke-linecap="butt" d="m398.22946 63.608765l-1.6517334 -4.5380974l-1.6517334 4.5380974z" fill-rule="evenodd"/><path fill="#000000" fill-opacity="0.0" d="m576.564 153.49985l0 72.06299" fill-rule="evenodd"/><path stroke="#666666" stroke-width="1.0" stroke-linejoin="round" stroke-linecap="butt" d="m576.564 153.49985l0 66.06299" fill-rule="evenodd"/><path fill="#666666" stroke="#666666" stroke-width="1.0" stroke-linecap="butt" d="m574.9123 219.56284l1.6517334 4.538086l1.6517334 -4.538086z" fill-rule="evenodd"/><path fill="#000000" fill-opacity="0.0" d="m504.56403 105.49984l144.0 0l0 48.000008l-144.0 0z" fill-rule="evenodd"/><path stroke="#0000ff" stroke-width="1.0" stroke-linejoin="round" stroke-linecap="butt" d="m504.56403 105.49984l144.0 0l0 48.000008l-144.0 0z" fill-rule="evenodd"/><path fill="#0000ff" d="m563.8514 123.98234l-4.0 12.437508l-1.359375 0l-3.265625 -10.312508l-3.265625 10.312508l-1.390625 0l-3.984375 -12.437508l1.421875 0l3.359375 10.609383l3.1875 -10.609383l1.34375 0l3.234375 10.609383l3.3125 -10.609383l1.40625 0zm1.9741211 0l1.484375 0l0 1.46875l-1.484375 0l0 -1.46875zm0.0625 3.125l1.34375 0l0 9.312508l-1.34375 0l0 -9.312508zm12.040039 -3.9375l0 11.640633q0 0.953125 -1.203125 1.421875q-1.203125 0.46875 -2.625 0.46875q-1.71875 0 -2.984375 -1.109375q-1.265625 -1.109375 -1.28125 -3.953125q0 -2.203125 1.0625 -3.4375q1.078125 -1.2343826 3.1875 -1.2343826q0.484375 0 1.203125 0.15625q0.71875 0.15625 1.296875 0.375l0 -4.328125l1.34375 0zm-1.34375 5.6718826q-0.5625 -0.3125 -1.234375 -0.484375q-0.65625 -0.171875 -1.265625 -0.171875q-1.453125 0 -2.15625 0.9375q-0.6875 0.921875 -0.6875 2.515625q0 1.765625 0.640625 2.796875q0.640625 1.03125 2.296875 1.03125q0.984375 0 1.6875 -0.21875q0.71875 -0.234375 0.71875 -0.5625l0 -5.84375zm8.3966675 -1.8750076q1.484375 0 2.515625 0.5625q1.046875 0.5625076 1.046875 1.7500076l0 7.53125q0 1.375 -0.90625 2.328125q-0.890625 0.96875 -3.140625 0.96875q-0.640625 0 -1.1875 -0.109375q-0.546875 -0.09375 -0.953125 -0.203125q-0.40625 -0.09375 -0.515625 -0.109375l0 -1.265625q0.734375 0.203125 1.28125 0.3125q0.546875 0.109375 1.21875 0.109375q1.703125 0 2.28125 -0.5625q0.578125 -0.546875 0.578125 -1.4375l0 -0.6875q-0.578125 0.234375 -1.296875 0.390625q-0.71875 0.15625 -1.203125 0.15625q-2.109375 0 -3.1875 -1.234375q-1.0625 -1.25 -1.0625 -3.453125q0.015625 -2.84375 1.3125 -3.9375q1.3125 -1.1093826 3.21875 -1.1093826zm-3.125 5.0468826q0 1.609375 0.6875 2.53125q0.703125 0.921875 2.15625 0.921875q0.609375 0 1.265625 -0.15625q0.671875 -0.171875 1.234375 -0.5l0 -5.34375q0 -0.734375 -0.578125 -1.0q-0.5625 -0.28125 -1.53125 -0.28125q-1.859375 0 -2.546875 1.03125q-0.6875 1.03125 -0.6875 2.796875zm13.287231 -5.0781326q2.125 0 3.109375 1.3906326q1.0 1.375 0.953125 3.671875l-6.78125 0q0 1.671875 0.78125 2.578125q0.78125 0.890625 2.234375 0.890625q1.875 0 3.1875 -0.796875l0 1.375q-1.359375 0.65625 -3.265625 0.65625q-2.03125 0 -3.171875 -1.25q-1.125 -1.265625 -1.125 -3.703125q0 -2.359375 1.0625 -3.578125q1.078125 -1.2343826 3.015625 -1.2343826zm0 1.2343826q-1.234375 0 -1.875 0.578125q-0.625 0.5625 -0.796875 2.015625l5.328125 0q-0.09375 -1.296875 -0.75 -1.9375q-0.640625 -0.65625 -1.90625 -0.65625zm9.517517 8.40625q-1.03125 0 -1.6875 -0.625q-0.640625 -0.625 -0.640625 -1.78125l0 -5.828125l-1.625 0l0 -1.2343826l1.625 0l0 -2.625l1.34375 0l0 2.625l2.40625 0l0 1.2343826l-2.40625 0l0 5.390625q0 0.828125 0.25 1.203125q0.265625 0.359375 0.984375 0.359375q0.6875 0 1.171875 -0.21875l0 1.265625q-0.265625 0.09375 -0.671875 0.15625q-0.390625 0.078125 -0.75 0.078125z" fill-rule="nonzero"/><path fill="#000000" fill-opacity="0.0" d="m576.564 105.49984l0 -23.949883l-179.9685 0l0 -23.955627" fill-rule="evenodd"/><path stroke="#666666" stroke-width="1.0" stroke-linejoin="round" stroke-linecap="butt" d="m576.564 105.49985l0 -23.94989l-179.9685 0l0 -17.955627" fill-rule="evenodd"/><path stroke="#666666" stroke-width="1.0" stroke-linecap="butt" d="m398.24725 63.59433l-1.6517334 -4.5380974l-1.6517334 4.5380974z" fill-rule="evenodd"/><path fill="#000000" fill-opacity="0.0" d="m648.564 129.49985l24.999023 0l0 384.03146l-240.93604 0" fill-rule="evenodd"/><path stroke="#b7b7b7" stroke-width="1.0" stroke-linejoin="round" stroke-linecap="butt" d="m648.564 129.49985l24.999023 0l0 384.03146l-234.93604 0" fill-rule="evenodd"/><path fill="#b7b7b7" stroke="#b7b7b7" stroke-width="1.0" stroke-linecap="butt" d="m438.627 511.8796l-4.5381165 1.6517029l4.5381165 1.6517334z" fill-rule="evenodd"/><path fill="#000000" fill-opacity="0.0" d="m144.10529 129.51428l-134.50528 0l0 384.0315l255.00922 0" fill-rule="evenodd"/><path stroke="#b7b7b7" stroke-width="1.0" stroke-linejoin="round" stroke-linecap="butt" d="m144.1053 129.51428l-134.5053 0l0 384.0315l249.00922 0" fill-rule="evenodd"/><path fill="#b7b7b7" stroke="#b7b7b7" stroke-width="1.0" stroke-linecap="butt" d="m258.60922 515.1975l4.5381165 -1.6517334l-4.5381165 -1.6517334z" fill-rule="evenodd"/><path fill="#000000" fill-opacity="0.0" d="m144.10529 129.51428l-134.50507 0l0 288.0315l254.97751 0" fill-rule="evenodd"/><path stroke="#b7b7b7" stroke-width="1.0" stroke-linejoin="round" stroke-linecap="butt" d="m144.1053 129.51428l-134.50508 0l0 288.0315l248.97751 0" fill-rule="evenodd"/><path fill="#b7b7b7" stroke="#b7b7b7" stroke-width="1.0" stroke-linecap="butt" d="m258.57773 419.1975l4.5381165 -1.6517334l-4.5381165 -1.6517334z" fill-rule="evenodd"/><path fill="#000000" fill-opacity="0.0" d="m648.564 129.49985l25.000488 0l0 288.0315l-240.969 0" fill-rule="evenodd"/><path stroke="#b7b7b7" stroke-width="1.0" stroke-linejoin="round" stroke-linecap="butt" d="m648.564 129.49985l25.000488 0l0 288.0315l-234.969 0" fill-rule="evenodd"/><path fill="#b7b7b7" stroke="#b7b7b7" stroke-width="1.0" stroke-linecap="butt" d="m438.59552 415.8796l-4.5381165 1.6517334l4.5381165 1.6517334z" fill-rule="evenodd"/><path fill="#000000" fill-opacity="0.0" d="m35.604015 297.5449l144.0 0l0 48.0l-144.0 0z" fill-rule="evenodd"/><path stroke="#cc0000" stroke-width="1.0" stroke-linejoin="round" stroke-linecap="butt" d="m35.604015 297.5449l144.0 0l0 48.0l-144.0 0z" fill-rule="evenodd"/><path fill="#cc0000" d="m73.66635 328.65237q-2.3125 0 -3.59375 -1.359375q-1.28125 -1.359375 -1.28125 -3.90625l0 -7.359375l1.34375 0l0 7.4375q0 3.921875 3.53125 3.921875q3.5625 0 3.5625 -3.921875l0 -7.4375l1.3125 0l0 7.359375q0 2.546875 -1.28125 3.90625q-1.28125 1.359375 -3.59375 1.359375zm10.582001 0.09375q-0.953125 0 -1.625 -0.1875q-0.671875 -0.1875 -1.46875 -0.59375l0 -1.421875q0.953125 0.546875 1.546875 0.765625q0.609375 0.203125 1.453125 0.203125q0.9375 0 1.515625 -0.40625q0.59375 -0.40625 0.59375 -1.0625q0 -0.578125 -0.359375 -0.859375q-0.359375 -0.296875 -1.109375 -0.59375l-0.5 -0.203125q-1.0625 -0.3125 -1.65625 -0.546875q-0.578125 -0.25 -1.015625 -0.765625q-0.4375 -0.515625 -0.4375 -1.421875q0 -0.890625 0.46875 -1.484375q0.46875 -0.609375 1.203125 -0.890625q0.75 -0.296875 1.578125 -0.296875q0.75 0 1.25 0.171875q0.515625 0.171875 1.421875 0.5625l0 1.34375q-0.9375 -0.46875 -1.4375 -0.65625q-0.484375 -0.1875 -1.15625 -0.1875q-0.828125 0 -1.40625 0.328125q-0.578125 0.328125 -0.578125 0.921875q0 0.484375 0.28125 0.796875q0.296875 0.3125 0.734375 0.484375q0.4375 0.171875 1.1875 0.390625q0.9375 0.296875 1.484375 0.546875q0.546875 0.234375 0.96875 0.765625q0.421875 0.53125 0.421875 1.421875q0 0.953125 -0.484375 1.59375q-0.484375 0.640625 -1.265625 0.96875q-0.765625 0.3125 -1.609375 0.3125zm9.491623 -9.765625q2.125 0 3.109375 1.390625q1.0 1.375 0.953125 3.671875l-6.78125 0q0 1.671875 0.78125 2.578125q0.78125 0.890625 2.234375 0.890625q1.875 0 3.1875 -0.796875l0 1.375q-1.359375 0.65625 -3.265625 0.65625q-2.03125 0 -3.171875 -1.25q-1.125 -1.265625 -1.125 -3.703125q0 -2.359375 1.0625 -3.578125q1.078125 -1.234375 3.015625 -1.234375zm0 1.234375q-1.234375 0 -1.875 0.578125q-0.625 0.5625 -0.796875 2.015625l5.328125 0q-0.09375 -1.296875 -0.75 -1.9375q-0.640625 -0.65625 -1.90625 -0.65625zm11.892471 8.40625q-2.875 0 -4.328125 -1.609375q-1.4375 -1.609375 -1.4375 -4.78125q0 -3.171875 1.4375 -4.765625q1.453125 -1.609375 4.328125 -1.609375q1.890625 0 3.78125 0.90625l0 1.296875q-1.75 -0.9375 -3.640625 -0.9375q-2.34375 0 -3.4375 1.234375q-1.078125 1.234375 -1.078125 3.875q0 2.671875 1.078125 3.890625q1.078125 1.21875 3.4375 1.21875q1.984375 0 3.640625 -0.90625l0 1.28125q-1.90625 0.90625 -3.78125 0.90625zm10.276062 -9.640625q1.5625 0 2.46875 0.765625q0.90625 0.765625 0.90625 2.21875l0 4.515625q0 1.34375 -1.109375 1.8125q-1.09375 0.453125 -3.03125 0.453125q-1.46875 0 -2.53125 -0.65625q-1.046875 -0.65625 -1.046875 -2.1875q0 -1.65625 0.90625 -2.40625q0.921875 -0.765625 2.515625 -0.765625q1.8125 0 2.9375 0.65625l0 -1.09375q0 -2.09375 -2.453125 -2.09375q-0.796875 0 -1.625 0.234375q-0.8125 0.21875 -1.375 0.65625l0 -1.34375q0.5625 -0.34375 1.515625 -0.546875q0.96875 -0.21875 1.921875 -0.21875zm-0.453125 8.5625q1.3125 0 1.890625 -0.1875q0.578125 -0.203125 0.578125 -0.796875l0 -2.09375q-0.5 -0.234375 -1.171875 -0.375q-0.671875 -0.140625 -1.40625 -0.140625q-1.171875 0 -1.8125 0.453125q-0.625 0.4375 -0.625 1.296875q0 0.96875 0.734375 1.40625q0.75 0.4375 1.8125 0.4375zm9.444946 1.203125q-0.953125 0 -1.625 -0.1875q-0.671875 -0.1875 -1.46875 -0.59375l0 -1.421875q0.953125 0.546875 1.546875 0.765625q0.609375 0.203125 1.453125 0.203125q0.9375 0 1.515625 -0.40625q0.59375 -0.40625 0.59375 -1.0625q0 -0.578125 -0.359375 -0.859375q-0.359375 -0.296875 -1.109375 -0.59375l-0.5 -0.203125q-1.0625 -0.3125 -1.65625 -0.546875q-0.578125 -0.25 -1.015625 -0.765625q-0.4375 -0.515625 -0.4375 -1.421875q0 -0.890625 0.46875 -1.484375q0.46875 -0.609375 1.203125 -0.890625q0.75 -0.296875 1.578125 -0.296875q0.75 0 1.25 0.171875q0.515625 0.171875 1.421875 0.5625l0 1.34375q-0.9375 -0.46875 -1.4375 -0.65625q-0.484375 -0.1875 -1.15625 -0.1875q-0.828125 0 -1.40625 0.328125q-0.578125 0.328125 -0.578125 0.921875q0 0.484375 0.28125 0.796875q0.296875 0.3125 0.734375 0.484375q0.4375 0.171875 1.1875 0.390625q0.9375 0.296875 1.484375 0.546875q0.546875 0.234375 0.96875 0.765625q0.421875 0.53125 0.421875 1.421875q0 0.953125 -0.484375 1.59375q-0.484375 0.640625 -1.265625 0.96875q-0.765625 0.3125 -1.609375 0.3125zm9.491623 -9.765625q2.125 0 3.109375 1.390625q1.0 1.375 0.953125 3.671875l-6.78125 0q0 1.671875 0.78125 2.578125q0.78125 0.890625 2.234375 0.890625q1.875 0 3.1875 -0.796875l0 1.375q-1.359375 0.65625 -3.265625 0.65625q-2.03125 0 -3.171875 -1.25q-1.125 -1.265625 -1.125 -3.703125q0 -2.359375 1.0625 -3.578125q1.078125 -1.234375 3.015625 -1.234375zm0 1.234375q-1.234375 0 -1.875 0.578125q-0.625 0.5625 -0.796875 2.015625l5.328125 0q-0.09375 -1.296875 -0.75 -1.9375q-0.640625 -0.65625 -1.90625 -0.65625zm9.220596 8.53125q-0.953125 0 -1.625 -0.1875q-0.671875 -0.1875 -1.46875 -0.59375l0 -1.421875q0.953125 0.546875 1.546875 0.765625q0.609375 0.203125 1.453125 0.203125q0.9375 0 1.515625 -0.40625q0.59375 -0.40625 0.59375 -1.0625q0 -0.578125 -0.359375 -0.859375q-0.359375 -0.296875 -1.109375 -0.59375l-0.5 -0.203125q-1.0625 -0.3125 -1.65625 -0.546875q-0.578125 -0.25 -1.015625 -0.765625q-0.4375 -0.515625 -0.4375 -1.421875q0 -0.890625 0.46875 -1.484375q0.46875 -0.609375 1.203125 -0.890625q0.75 -0.296875 1.578125 -0.296875q0.75 0 1.25 0.171875q0.515625 0.171875 1.421875 0.5625l0 1.34375q-0.9375 -0.46875 -1.4375 -0.65625q-0.484375 -0.1875 -1.15625 -0.1875q-0.828125 0 -1.40625 0.328125q-0.578125 0.328125 -0.578125 0.921875q0 0.484375 0.28125 0.796875q0.296875 0.3125 0.734375 0.484375q0.4375 0.171875 1.1875 0.390625q0.9375 0.296875 1.484375 0.546875q0.546875 0.234375 0.96875 0.765625q0.421875 0.53125 0.421875 1.421875q0 0.953125 -0.484375 1.59375q-0.484375 0.640625 -1.265625 0.96875q-0.765625 0.3125 -1.609375 0.3125z" fill-rule="nonzero"/><path fill="#000000" fill-opacity="0.0" d="m348.58813 393.5449l0 -23.97522l227.9685 0l0 -23.961792" fill-rule="evenodd"/><path stroke="#666666" stroke-width="1.0" stroke-linejoin="round" stroke-linecap="butt" stroke-dasharray="4.0,3.0" d="m348.58813 393.54486l0 -23.97519l227.9685 0l0 -17.961823" fill-rule="evenodd"/><path stroke="#666666" stroke-width="1.0" stroke-linecap="butt" d="m578.2084 351.60785l-1.6517334 -4.538086l-1.6517334 4.538086z" fill-rule="evenodd"/><path fill="#000000" fill-opacity="0.0" d="m348.58813 393.5449l0 -24.0l-240.97638 0l0 -24.0" fill-rule="evenodd"/><path stroke="#666666" stroke-width="1.0" stroke-linejoin="round" stroke-linecap="butt" stroke-dasharray="4.0,3.0" d="m348.58813 393.54486l0 -24.0l-240.9764 0l0 -18.0" fill-rule="evenodd"/><path stroke="#666666" stroke-width="1.0" stroke-linecap="butt" d="m109.26347 351.54486l-1.6517334 -4.538086l-1.6517258 4.538086z" fill-rule="evenodd"/><path fill="#000000" fill-opacity="0.0" d="m288.1053 129.51428l216.47244 0" fill-rule="evenodd"/><path stroke="#b7b7b7" stroke-width="1.0" stroke-linejoin="round" stroke-linecap="butt" stroke-dasharray="1.0,3.0" d="m288.1053 129.51428l212.68243 0" fill-rule="evenodd"/><path stroke="#b7b7b7" stroke-width="1.0" stroke-linecap="butt" d="m504.07773 129.51428c0 0.9085083 -0.73651123 1.6450043 -1.6450195 1.6450043c-0.9085083 0 -1.644989 -0.736496 -1.644989 -1.6450043c0 -0.9085083 0.7364807 -1.6449966 1.644989 -1.6449966c0.9085083 0 1.6450195 0.73648834 1.6450195 1.6449966z" fill-rule="nonzero"/><path fill="#000000" fill-opacity="0.0" d="m252.60397 297.5449l144.0 0l0 48.0l-144.0 0z" fill-rule="evenodd"/><path stroke="#cc0000" stroke-width="1.0" stroke-linejoin="round" stroke-linecap="butt" d="m252.60397 297.5449l144.0 0l0 48.0l-144.0 0z" fill-rule="evenodd"/><path fill="#cc0000" d="m290.66632 328.65237q-2.3125 0 -3.59375 -1.359375q-1.28125 -1.359375 -1.28125 -3.90625l0 -7.359375l1.34375 0l0 7.4375q0 3.921875 3.53125 3.921875q3.5625 0 3.5625 -3.921875l0 -7.4375l1.3125 0l0 7.359375q0 2.546875 -1.28125 3.90625q-1.28125 1.359375 -3.59375 1.359375zm10.582001 0.09375q-0.953125 0 -1.625 -0.1875q-0.671875 -0.1875 -1.46875 -0.59375l0 -1.421875q0.953125 0.546875 1.546875 0.765625q0.609375 0.203125 1.453125 0.203125q0.9375 0 1.515625 -0.40625q0.59375 -0.40625 0.59375 -1.0625q0 -0.578125 -0.359375 -0.859375q-0.359375 -0.296875 -1.109375 -0.59375l-0.5 -0.203125q-1.0625 -0.3125 -1.65625 -0.546875q-0.578125 -0.25 -1.015625 -0.765625q-0.4375 -0.515625 -0.4375 -1.421875q0 -0.890625 0.46875 -1.484375q0.46875 -0.609375 1.203125 -0.890625q0.75 -0.296875 1.578125 -0.296875q0.75 0 1.25 0.171875q0.515625 0.171875 1.421875 0.5625l0 1.34375q-0.9375 -0.46875 -1.4375 -0.65625q-0.484375 -0.1875 -1.15625 -0.1875q-0.828125 0 -1.40625 0.328125q-0.578125 0.328125 -0.578125 0.921875q0 0.484375 0.28125 0.796875q0.296875 0.3125 0.734375 0.484375q0.4375 0.171875 1.1875 0.390625q0.9375 0.296875 1.484375 0.546875q0.546875 0.234375 0.96875 0.765625q0.421875 0.53125 0.421875 1.421875q0 0.953125 -0.484375 1.59375q-0.484375 0.640625 -1.265625 0.96875q-0.765625 0.3125 -1.609375 0.3125zm9.491608 -9.765625q2.125 0 3.109375 1.390625q1.0 1.375 0.953125 3.671875l-6.78125 0q0 1.671875 0.78125 2.578125q0.78125 0.890625 2.234375 0.890625q1.875 0 3.1875 -0.796875l0 1.375q-1.359375 0.65625 -3.265625 0.65625q-2.03125 0 -3.171875 -1.25q-1.125 -1.265625 -1.125 -3.703125q0 -2.359375 1.0625 -3.578125q1.078125 -1.234375 3.015625 -1.234375zm0 1.234375q-1.234375 0 -1.875 0.578125q-0.625 0.5625 -0.796875 2.015625l5.328125 0q-0.09375 -1.296875 -0.75 -1.9375q-0.640625 -0.65625 -1.90625 -0.65625zm11.892487 8.40625q-2.875 0 -4.328125 -1.609375q-1.4375 -1.609375 -1.4375 -4.78125q0 -3.171875 1.4375 -4.765625q1.453125 -1.609375 4.328125 -1.609375q1.890625 0 3.78125 0.90625l0 1.296875q-1.75 -0.9375 -3.640625 -0.9375q-2.34375 0 -3.4375 1.234375q-1.078125 1.234375 -1.078125 3.875q0 2.671875 1.078125 3.890625q1.078125 1.21875 3.4375 1.21875q1.984375 0 3.640625 -0.90625l0 1.28125q-1.90625 0.90625 -3.78125 0.90625zm10.276062 -9.640625q1.5625 0 2.46875 0.765625q0.90625 0.765625 0.90625 2.21875l0 4.515625q0 1.34375 -1.109375 1.8125q-1.09375 0.453125 -3.03125 0.453125q-1.46875 0 -2.53125 -0.65625q-1.046875 -0.65625 -1.046875 -2.1875q0 -1.65625 0.90625 -2.40625q0.921875 -0.765625 2.515625 -0.765625q1.8125 0 2.9375 0.65625l0 -1.09375q0 -2.09375 -2.453125 -2.09375q-0.796875 0 -1.625 0.234375q-0.8125 0.21875 -1.375 0.65625l0 -1.34375q0.5625 -0.34375 1.515625 -0.546875q0.96875 -0.21875 1.921875 -0.21875zm-0.453125 8.5625q1.3125 0 1.890625 -0.1875q0.578125 -0.203125 0.578125 -0.796875l0 -2.09375q-0.5 -0.234375 -1.171875 -0.375q-0.671875 -0.140625 -1.40625 -0.140625q-1.171875 0 -1.8125 0.453125q-0.625 0.4375 -0.625 1.296875q0 0.96875 0.734375 1.40625q0.75 0.4375 1.8125 0.4375zm9.444946 1.203125q-0.953125 0 -1.625 -0.1875q-0.671875 -0.1875 -1.46875 -0.59375l0 -1.421875q0.953125 0.546875 1.546875 0.765625q0.609375 0.203125 1.453125 0.203125q0.9375 0 1.515625 -0.40625q0.59375 -0.40625 0.59375 -1.0625q0 -0.578125 -0.359375 -0.859375q-0.359375 -0.296875 -1.109375 -0.59375l-0.5 -0.203125q-1.0625 -0.3125 -1.65625 -0.546875q-0.578125 -0.25 -1.015625 -0.765625q-0.4375 -0.515625 -0.4375 -1.421875q0 -0.890625 0.46875 -1.484375q0.46875 -0.609375 1.203125 -0.890625q0.75 -0.296875 1.578125 -0.296875q0.75 0 1.25 0.171875q0.515625 0.171875 1.421875 0.5625l0 1.34375q-0.9375 -0.46875 -1.4375 -0.65625q-0.484375 -0.1875 -1.15625 -0.1875q-0.828125 0 -1.40625 0.328125q-0.578125 0.328125 -0.578125 0.921875q0 0.484375 0.28125 0.796875q0.296875 0.3125 0.734375 0.484375q0.4375 0.171875 1.1875 0.390625q0.9375 0.296875 1.484375 0.546875q0.546875 0.234375 0.96875 0.765625q0.421875 0.53125 0.421875 1.421875q0 0.953125 -0.484375 1.59375q-0.484375 0.640625 -1.265625 0.96875q-0.765625 0.3125 -1.609375 0.3125zm9.491608 -9.765625q2.125 0 3.109375 1.390625q1.0 1.375 0.953125 3.671875l-6.78125 0q0 1.671875 0.78125 2.578125q0.78125 0.890625 2.234375 0.890625q1.875 0 3.1875 -0.796875l0 1.375q-1.359375 0.65625 -3.265625 0.65625q-2.03125 0 -3.171875 -1.25q-1.125 -1.265625 -1.125 -3.703125q0 -2.359375 1.0625 -3.578125q1.078125 -1.234375 3.015625 -1.234375zm0 1.234375q-1.234375 0 -1.875 0.578125q-0.625 0.5625 -0.796875 2.015625l5.328125 0q-0.09375 -1.296875 -0.75 -1.9375q-0.640625 -0.65625 -1.90625 -0.65625zm9.220612 8.53125q-0.953125 0 -1.625 -0.1875q-0.671875 -0.1875 -1.46875 -0.59375l0 -1.421875q0.953125 0.546875 1.546875 0.765625q0.609375 0.203125 1.453125 0.203125q0.9375 0 1.515625 -0.40625q0.59375 -0.40625 0.59375 -1.0625q0 -0.578125 -0.359375 -0.859375q-0.359375 -0.296875 -1.109375 -0.59375l-0.5 -0.203125q-1.0625 -0.3125 -1.65625 -0.546875q-0.578125 -0.25 -1.015625 -0.765625q-0.4375 -0.515625 -0.4375 -1.421875q0 -0.890625 0.46875 -1.484375q0.46875 -0.609375 1.203125 -0.890625q0.75 -0.296875 1.578125 -0.296875q0.75 0 1.25 0.171875q0.515625 0.171875 1.421875 0.5625l0 1.34375q-0.9375 -0.46875 -1.4375 -0.65625q-0.484375 -0.1875 -1.15625 -0.1875q-0.828125 0 -1.40625 0.328125q-0.578125 0.328125 -0.578125 0.921875q0 0.484375 0.28125 0.796875q0.296875 0.3125 0.734375 0.484375q0.4375 0.171875 1.1875 0.390625q0.9375 0.296875 1.484375 0.546875q0.546875 0.234375 0.96875 0.765625q0.421875 0.53125 0.421875 1.421875q0 0.953125 -0.484375 1.59375q-0.484375 0.640625 -1.265625 0.96875q-0.765625 0.3125 -1.609375 0.3125z" fill-rule="nonzero"/><path fill="#000000" fill-opacity="0.0" d="m192.10376 273.54593l48.0 0l0 18.992126l-48.0 0z" fill-rule="evenodd"/><path fill="#666666" d="m212.37685 286.35886l1.203125 0l0 1.203125l-1.203125 0l0 -1.203125zm3.1200256 0l1.203125 0l0 1.203125l-1.203125 0l0 -1.203125zm3.1200256 0l1.203125 0l0 1.203125l-1.203125 0l0 -1.203125z" fill-rule="nonzero"/><path fill="#000000" fill-opacity="0.0" d="m348.58813 393.5449l0 -24.0l-23.968506 0l0 -24.0" fill-rule="evenodd"/><path stroke="#666666" stroke-width="1.0" stroke-linejoin="round" stroke-linecap="butt" stroke-dasharray="4.0,3.0" d="m348.58813 393.54486l0 -24.0l-23.968506 0l0 -18.0" fill-rule="evenodd"/><path stroke="#666666" stroke-width="1.0" stroke-linecap="butt" d="m326.27136 351.54486l-1.6517334 -4.538086l-1.6517334 4.538086z" fill-rule="evenodd"/><path fill="#000000" fill-opacity="0.0" d="m216.10529 153.51428l0 18.167786l108.50394 0l0 53.86371" fill-rule="evenodd"/><path stroke="#666666" stroke-width="1.0" stroke-linejoin="round" stroke-linecap="butt" d="m216.1053 153.51428l0 18.167786l108.50392 0l0 47.863693" fill-rule="evenodd"/><path fill="#666666" stroke="#666666" stroke-width="1.0" stroke-linecap="butt" d="m322.9575 219.54576l1.6517334 4.538101l1.6517334 -4.538101z" fill-rule="evenodd"/><path fill="#000000" fill-opacity="0.0" d="m624.1076 33.664043l48.0 -0.12598419" fill-rule="evenodd"/><path stroke="#666666" stroke-width="1.0" stroke-linejoin="round" stroke-linecap="butt" d="m624.1076 33.664043l42.00006 -0.11023712" fill-rule="evenodd"/><path stroke="#666666" stroke-width="1.0" stroke-linecap="butt" d="m666.11194 35.205532l4.5337524 -1.6636391l-4.5424194 -1.6398144z" fill-rule="evenodd"/><path fill="#000000" fill-opacity="0.0" d="m648.5614 321.59424l51.968506 -0.09451294" fill-rule="evenodd"/><path stroke="#666666" stroke-width="1.0" stroke-linejoin="round" stroke-linecap="butt" d="m648.5614 321.5942l45.968445 -0.08355713" fill-rule="evenodd"/><path fill="#666666" stroke="#666666" stroke-width="1.0" stroke-linecap="butt" d="m694.5329 323.16238l4.535034 -1.6600037l-4.5410767 -1.6434631z" fill-rule="evenodd"/><path fill="#000000" fill-opacity="0.0" d="m252.60397 225.54488l144.0 0l0 48.000015l-144.0 0z" fill-rule="evenodd"/><path stroke="#9900ff" stroke-width="1.0" stroke-linejoin="round" stroke-linecap="butt" d="m252.60397 225.54488l144.0 0l0 48.000015l-144.0 0z" fill-rule="evenodd"/><path fill="#9900ff" d="m290.07153 244.02737l-4.78125 12.4375l-1.3125 0l-4.78125 -12.4375l1.4375 0l4.0625 10.671875l4.0 -10.640625l1.375 -0.03125zm1.8728638 0l1.484375 0l0 1.46875l-1.484375 0l0 -1.46875zm0.0625 3.125l1.34375 0l0 9.3125l-1.34375 0l0 -9.3125zm8.024384 -0.171875q2.125 0 3.109375 1.390625q1.0 1.375 0.953125 3.671875l-6.78125 0q0 1.671875 0.78125 2.578125q0.78125 0.890625 2.234375 0.890625q1.875 0 3.1875 -0.796875l0 1.375q-1.359375 0.65625 -3.265625 0.65625q-2.03125 0 -3.171875 -1.25q-1.125 -1.265625 -1.125 -3.703125q0 -2.359375 1.0625 -3.578125q1.078125 -1.234375 3.015625 -1.234375zm0 1.234375q-1.234375 0 -1.875 0.578125q-0.625 0.5625 -0.796875 2.015625l5.328125 0q-0.09375 -1.296875 -0.75 -1.9375q-0.640625 -0.65625 -1.90625 -0.65625zm19.298706 -1.0625l-3.109375 9.3125l-1.359375 0l-2.328125 -7.71875l-2.296875 7.71875l-1.359375 0l-3.09375 -9.3125l1.421875 0l2.421875 7.78125l2.265625 -7.78125l1.296875 0l2.34375 7.796875l2.46875 -7.796875l1.328125 0zm13.709747 -3.125l0 12.4375l-1.34375 0l0 -10.265625l-4.53125 6.359375l-4.265625 -6.3125l0 10.21875l-1.34375 0l0 -12.4375l1.46875 0l4.203125 6.46875l4.359375 -6.46875l1.453125 0zm6.895172 12.71875q-2.140625 0 -3.21875 -1.265625q-1.0625 -1.265625 -1.0625 -3.640625q0 -2.40625 1.078125 -3.625q1.09375 -1.234375 3.171875 -1.234375q2.1875 0 3.25 1.296875q1.0625 1.296875 1.0625 3.5625q0 2.3125 -1.125 3.609375q-1.125 1.296875 -3.15625 1.296875zm-0.015625 -1.234375q2.953125 0 2.953125 -3.671875q0 -1.75 -0.703125 -2.6875q-0.6875 -0.9375 -2.25 -0.9375q-2.921875 0 -2.921875 3.625q0 3.671875 2.921875 3.671875zm14.443512 -12.296875l0 11.640625q0 0.953125 -1.203125 1.421875q-1.203125 0.46875 -2.625 0.46875q-1.71875 0 -2.984375 -1.109375q-1.265625 -1.109375 -1.28125 -3.953125q0 -2.203125 1.0625 -3.4375q1.078125 -1.234375 3.1875 -1.234375q0.484375 0 1.203125 0.15625q0.71875 0.15625 1.296875 0.375l0 -4.328125l1.34375 0zm-1.34375 5.671875q-0.5625 -0.3125 -1.234375 -0.484375q-0.65625 -0.171875 -1.265625 -0.171875q-1.453125 0 -2.15625 0.9375q-0.6875 0.921875 -0.6875 2.515625q0 1.765625 0.640625 2.796875q0.640625 1.03125 2.296875 1.03125q0.984375 0 1.6875 -0.21875q0.71875 -0.234375 0.71875 -0.5625l0 -5.84375zm7.9435425 -1.90625q2.125 0 3.109375 1.390625q1.0 1.375 0.953125 3.671875l-6.78125 0q0 1.671875 0.78125 2.578125q0.78125 0.890625 2.234375 0.890625q1.875 0 3.1875 -0.796875l0 1.375q-1.359375 0.65625 -3.265625 0.65625q-2.03125 0 -3.171875 -1.25q-1.125 -1.265625 -1.125 -3.703125q0 -2.359375 1.0625 -3.578125q1.078125 -1.234375 3.015625 -1.234375zm0 1.234375q-1.234375 0 -1.875 0.578125q-0.625 0.5625 -0.796875 2.015625l5.328125 0q-0.09375 -1.296875 -0.75 -1.9375q-0.640625 -0.65625 -1.90625 -0.65625zm6.595581 8.25l0 -12.859375l1.328125 0l0 12.859375l-1.328125 0z" fill-rule="nonzero"/><path fill="#000000" fill-opacity="0.0" d="m35.604015 225.54488l144.0 0l0 48.000015l-144.0 0z" fill-rule="evenodd"/><path stroke="#9900ff" stroke-width="1.0" stroke-linejoin="round" stroke-linecap="butt" d="m35.604015 225.54488l144.0 0l0 48.000015l-144.0 0z" fill-rule="evenodd"/><path fill="#9900ff" d="m73.07157 244.02737l-4.78125 12.4375l-1.3125 0l-4.781246 -12.4375l1.4375 0l4.062496 10.671875l4.0 -10.640625l1.375 -0.03125zm1.8728485 0l1.484375 0l0 1.46875l-1.484375 0l0 -1.46875zm0.0625 3.125l1.34375 0l0 9.3125l-1.34375 0l0 -9.3125zm8.024384 -0.171875q2.125 0 3.109375 1.390625q1.0 1.375 0.953125 3.671875l-6.78125 0q0 1.671875 0.78125 2.578125q0.78125 0.890625 2.234375 0.890625q1.875 0 3.1875 -0.796875l0 1.375q-1.359375 0.65625 -3.265625 0.65625q-2.03125 0 -3.171875 -1.25q-1.125 -1.265625 -1.125 -3.703125q0 -2.359375 1.0625 -3.578125q1.078125 -1.234375 3.015625 -1.234375zm0 1.234375q-1.234375 0 -1.875 0.578125q-0.625 0.5625 -0.796875 2.015625l5.328125 0q-0.09375 -1.296875 -0.75 -1.9375q-0.640625 -0.65625 -1.90625 -0.65625zm19.298721 -1.0625l-3.109375 9.3125l-1.359375 0l-2.328125 -7.71875l-2.296875 7.71875l-1.359375 0l-3.09375 -9.3125l1.421875 0l2.421875 7.78125l2.265625 -7.78125l1.296875 0l2.34375 7.796875l2.46875 -7.796875l1.328125 0zm13.709747 -3.125l0 12.4375l-1.34375 0l0 -10.265625l-4.53125 6.359375l-4.265625 -6.3125l0 10.21875l-1.34375 0l0 -12.4375l1.46875 0l4.203125 6.46875l4.359375 -6.46875l1.453125 0zm6.895157 12.71875q-2.140625 0 -3.21875 -1.265625q-1.0625 -1.265625 -1.0625 -3.640625q0 -2.40625 1.078125 -3.625q1.09375 -1.234375 3.171875 -1.234375q2.1875 0 3.25 1.296875q1.0625 1.296875 1.0625 3.5625q0 2.3125 -1.125 3.609375q-1.125 1.296875 -3.15625 1.296875zm-0.015625 -1.234375q2.953125 0 2.953125 -3.671875q0 -1.75 -0.703125 -2.6875q-0.6875 -0.9375 -2.25 -0.9375q-2.921875 0 -2.921875 3.625q0 3.671875 2.921875 3.671875zm14.443535 -12.296875l0 11.640625q0 0.953125 -1.203125 1.421875q-1.203125 0.46875 -2.625 0.46875q-1.71875 0 -2.984375 -1.109375q-1.265625 -1.109375 -1.28125 -3.953125q0 -2.203125 1.0625 -3.4375q1.078125 -1.234375 3.1875 -1.234375q0.484375 0 1.203125 0.15625q0.71875 0.15625 1.296875 0.375l0 -4.328125l1.34375 0zm-1.34375 5.671875q-0.5625 -0.3125 -1.234375 -0.484375q-0.65625 -0.171875 -1.265625 -0.171875q-1.453125 0 -2.15625 0.9375q-0.6875 0.921875 -0.6875 2.515625q0 1.765625 0.640625 2.796875q0.640625 1.03125 2.296875 1.03125q0.984375 0 1.6875 -0.21875q0.71875 -0.234375 0.71875 -0.5625l0 -5.84375zm7.943527 -1.90625q2.125 0 3.109375 1.390625q1.0 1.375 0.953125 3.671875l-6.78125 0q0 1.671875 0.78125 2.578125q0.78125 0.890625 2.234375 0.890625q1.875 0 3.1875 -0.796875l0 1.375q-1.359375 0.65625 -3.265625 0.65625q-2.03125 0 -3.171875 -1.25q-1.125 -1.265625 -1.125 -3.703125q0 -2.359375 1.0625 -3.578125q1.078125 -1.234375 3.015625 -1.234375zm0 1.234375q-1.234375 0 -1.875 0.578125q-0.625 0.5625 -0.796875 2.015625l5.328125 0q-0.09375 -1.296875 -0.75 -1.9375q-0.640625 -0.65625 -1.90625 -0.65625zm6.5955963 8.25l0 -12.859375l1.328125 0l0 12.859375l-1.328125 0z" fill-rule="nonzero"/><path fill="#000000" fill-opacity="0.0" d="m324.60397 273.5449l0 24.0" fill-rule="evenodd"/><path stroke="#666666" stroke-width="1.0" stroke-linejoin="round" stroke-linecap="butt" d="m324.60397 273.5449l0 18.0" fill-rule="evenodd"/><path fill="#666666" stroke="#666666" stroke-width="1.0" stroke-linecap="butt" d="m322.95224 291.5449l1.6517334 4.538086l1.6517334 -4.538086z" fill-rule="evenodd"/><path fill="#000000" fill-opacity="0.0" d="m107.60401 273.5449l0 24.0" fill-rule="evenodd"/><path stroke="#666666" stroke-width="1.0" stroke-linejoin="round" stroke-linecap="butt" d="m107.60401 273.5449l0 18.0" fill-rule="evenodd"/><path fill="#666666" stroke="#666666" stroke-width="1.0" stroke-linecap="butt" d="m105.95228 291.5449l1.6517334 4.538086l1.6517334 -4.538086z" fill-rule="evenodd"/><path fill="#000000" fill-opacity="0.0" d="m504.5646 225.56062l144.00003 0l0 48.000015l-144.00003 0z" fill-rule="evenodd"/><path stroke="#9900ff" stroke-width="1.0" stroke-linejoin="round" stroke-linecap="butt" d="m504.5646 225.56062l144.00003 0l0 48.000015l-144.00003 0z" fill-rule="evenodd"/><path fill="#9900ff" d="m542.03217 244.04312l-4.78125 12.4375l-1.3125 0l-4.78125 -12.4375l1.4375 0l4.0625 10.671875l4.0 -10.640625l1.375 -0.03125zm1.8728638 0l1.484375 0l0 1.46875l-1.484375 0l0 -1.46875zm0.0625 3.125l1.34375 0l0 9.3125l-1.34375 0l0 -9.3125zm8.024353 -0.171875q2.125 0 3.109375 1.390625q1.0 1.375 0.953125 3.671875l-6.78125 0q0 1.671875 0.78125 2.578125q0.78125 0.890625 2.234375 0.890625q1.875 0 3.1875 -0.796875l0 1.375q-1.359375 0.65625 -3.265625 0.65625q-2.03125 0 -3.171875 -1.25q-1.125 -1.265625 -1.125 -3.703125q0 -2.359375 1.0625 -3.578125q1.078125 -1.234375 3.015625 -1.234375zm0 1.234375q-1.234375 0 -1.875 0.578125q-0.625 0.5625 -0.796875 2.015625l5.328125 0q-0.09375 -1.296875 -0.75 -1.9375q-0.640625 -0.65625 -1.90625 -0.65625zm19.298767 -1.0625l-3.109375 9.3125l-1.359375 0l-2.328125 -7.71875l-2.296875 7.71875l-1.359375 0l-3.09375 -9.3125l1.421875 0l2.421875 7.78125l2.265625 -7.78125l1.296875 0l2.34375 7.796875l2.46875 -7.796875l1.328125 0zm13.709717 -3.125l0 12.4375l-1.34375 0l0 -10.265625l-4.53125 6.359375l-4.265625 -6.3125l0 10.21875l-1.34375 0l0 -12.4375l1.46875 0l4.203125 6.46875l4.359375 -6.46875l1.453125 0zm6.8951416 12.71875q-2.140625 0 -3.21875 -1.265625q-1.0625 -1.265625 -1.0625 -3.640625q0 -2.40625 1.078125 -3.625q1.09375 -1.234375 3.171875 -1.234375q2.1875 0 3.25 1.296875q1.0625 1.296875 1.0625 3.5625q0 2.3125 -1.125 3.609375q-1.125 1.296875 -3.15625 1.296875zm-0.015625 -1.234375q2.953125 0 2.953125 -3.671875q0 -1.75 -0.703125 -2.6875q-0.6875 -0.9375 -2.25 -0.9375q-2.921875 0 -2.921875 3.625q0 3.671875 2.921875 3.671875zm14.4435425 -12.296875l0 11.640625q0 0.953125 -1.203125 1.421875q-1.203125 0.46875 -2.625 0.46875q-1.71875 0 -2.984375 -1.109375q-1.265625 -1.109375 -1.28125 -3.953125q0 -2.203125 1.0625 -3.4375q1.078125 -1.234375 3.1875 -1.234375q0.484375 0 1.203125 0.15625q0.71875 0.15625 1.296875 0.375l0 -4.328125l1.34375 0zm-1.34375 5.671875q-0.5625 -0.3125 -1.234375 -0.484375q-0.65625 -0.171875 -1.265625 -0.171875q-1.453125 0 -2.15625 0.9375q-0.6875 0.921875 -0.6875 2.515625q0 1.765625 0.640625 2.796875q0.640625 1.03125 2.296875 1.03125q0.984375 0 1.6875 -0.21875q0.71875 -0.234375 0.71875 -0.5625l0 -5.84375zm7.9435425 -1.90625q2.125 0 3.109375 1.390625q1.0 1.375 0.953125 3.671875l-6.78125 0q0 1.671875 0.78125 2.578125q0.78125 0.890625 2.234375 0.890625q1.875 0 3.1875 -0.796875l0 1.375q-1.359375 0.65625 -3.265625 0.65625q-2.03125 0 -3.171875 -1.25q-1.125 -1.265625 -1.125 -3.703125q0 -2.359375 1.0625 -3.578125q1.078125 -1.234375 3.015625 -1.234375zm0 1.234375q-1.234375 0 -1.875 0.578125q-0.625 0.5625 -0.796875 2.015625l5.328125 0q-0.09375 -1.296875 -0.75 -1.9375q-0.640625 -0.65625 -1.90625 -0.65625zm6.595581 8.25l0 -12.859375l1.328125 0l0 12.859375l-1.328125 0z" fill-rule="nonzero"/><path fill="#000000" fill-opacity="0.0" d="m576.56464 273.56064l0 24.031494" fill-rule="evenodd"/><path stroke="#666666" stroke-width="1.0" stroke-linejoin="round" stroke-linecap="butt" d="m576.5646 273.56064l0 18.031494" fill-rule="evenodd"/><path fill="#666666" stroke="#666666" stroke-width="1.0" stroke-linecap="butt" d="m574.91284 291.59213l1.6517334 4.538086l1.6517334 -4.538086z" fill-rule="evenodd"/><path fill="#000000" fill-opacity="0.0" d="m9.601049 190.5538l74.14173 0l0 18.992126l-74.14173 0z" fill-rule="evenodd"/><path fill="#434343" d="m26.916544 196.56987l4.90625 0l-0.171875 0.8125l-4.03125 0l-0.59375 2.765625l3.546875 0l-0.171875 0.828125l-3.546875 0l-0.765625 3.59375l-0.875 0l1.703125 -8.0zm8.027422 1.90625q1.375 0 1.8125 0.890625q0.453125 0.890625 0.125 2.359375l-4.375 0q-0.234375 1.078125 0.140625 1.65625q0.390625 0.578125 1.328125 0.578125q1.203125 0 2.15625 -0.515625l-0.1875 0.890625q-0.96875 0.421875 -2.1875 0.421875q-1.3125 0 -1.8750019 -0.8125q-0.546875 -0.8125 -0.21875 -2.375q0.328125 -1.53125 1.1875019 -2.3125q0.859375 -0.78125 2.09375 -0.78125zm-0.171875 0.796875q-0.78125 0 -1.265625 0.359375q-0.484375 0.359375 -0.78125 1.296875l3.40625 0q0.125 -0.828125 -0.203125 -1.234375q-0.328125 -0.421875 -1.15625 -0.421875zm6.970291 -0.796875q1.015625 0 1.484375 0.5q0.484375 0.484375 0.28125 1.421875l-0.625 2.90625q-0.171875 0.859375 -0.953125 1.15625q-0.78125 0.296875 -2.015625 0.296875q-0.953125 0 -1.546875 -0.421875q-0.578125 -0.421875 -0.375 -1.40625q0.234375 -1.078125 0.921875 -1.5625q0.6875 -0.484375 1.71875 -0.484375q1.171875 0 1.796875 0.421875l0.15625 -0.703125q0.28125 -1.34375 -1.296875 -1.34375q-0.515625 0 -1.078125 0.140625q-0.546875 0.140625 -0.96875 0.4375l0.1875 -0.875q0.40625 -0.21875 1.046875 -0.34375q0.65625 -0.140625 1.265625 -0.140625zm-1.453125 5.5q0.828125 0 1.21875 -0.125q0.40625 -0.125 0.5 -0.5l0.28125 -1.34375q-0.296875 -0.15625 -0.703125 -0.25q-0.40625 -0.09375 -0.875 -0.09375q-0.75 0 -1.234375 0.296875q-0.46875 0.28125 -0.59375 0.828125q-0.125 0.625 0.296875 0.90625q0.421875 0.28125 1.109375 0.28125zm6.116791 0.6875q-0.65625 0 -1.0 -0.390625q-0.328125 -0.40625 -0.171875 -1.15625l0.796875 -3.75l-1.046875 0l0.15625 -0.78125l1.046875 0l0.375 -1.703125l0.859375 0l-0.375 1.703125l1.546875 0l-0.15625 0.78125l-1.546875 0l-0.734375 3.46875q-0.125 0.53125 0 0.78125q0.125 0.234375 0.578125 0.234375q0.4375 0 0.78125 -0.140625l-0.171875 0.8125q-0.171875 0.0625 -0.4375 0.09375q-0.265625 0.046875 -0.5 0.046875zm4.9497833 0.09375q-1.203125 0 -1.734375 -0.625q-0.515625 -0.625 -0.265625 -1.765625l0.796875 -3.78125l0.875 0l-0.75 3.59375q-0.203125 0.921875 0.09375 1.34375q0.3125 0.421875 1.171875 0.421875q0.84375 0 1.328125 -0.421875q0.484375 -0.421875 0.6875 -1.34375l0.75 -3.59375l0.859375 0l-0.796875 3.78125q-0.25 1.140625 -1.03125 1.765625q-0.78125 0.625 -1.984375 0.625zm5.6391754 -5.703125q0.515625 -0.1875 1.296875 -0.375q0.796875 -0.203125 1.59375 -0.203125q0.125 0 0.375 0.0625l-0.171875 0.78125q-0.28125 -0.046875 -0.5625 -0.046875q-0.40625 0 -0.75 0.046875q-0.34375 0.046875 -1.0 0.15625l-1.078125 5.09375l-0.875 0l1.171875 -5.515625zm6.5571594 -0.578125q1.3749962 0 1.8124962 0.890625q0.453125 0.890625 0.125 2.359375l-4.374996 0q-0.234375 1.078125 0.140625 1.65625q0.390625 0.578125 1.328125 0.578125q1.203125 0 2.1562462 -0.515625l-0.1875 0.890625q-0.9687462 0.421875 -2.1874962 0.421875q-1.3125 0 -1.875 -0.8125q-0.546875 -0.8125 -0.21875 -2.375q0.328125 -1.53125 1.1875 -2.3125q0.859375 -0.78125 2.09375 -0.78125zm-0.171875 0.796875q-0.78125 0 -1.265625 0.359375q-0.484375 0.359375 -0.78125 1.296875l3.4062462 0q0.125 -0.828125 -0.203125 -1.234375q-0.328125 -0.421875 -1.1562462 -0.421875z" fill-rule="nonzero"/><path fill="#434343" d="m68.4287 204.3355l-1.203125 0.703125l0.140625 -0.6875l1.109375 -0.609375l0.65625 0l-1.125 5.328125l-0.578125 0l1.0 -4.734375z" fill-rule="nonzero"/><path fill="#000000" fill-opacity="0.0" d="m227.94489 190.5538l74.14172 0l0 18.992126l-74.14172 0z" fill-rule="evenodd"/><path fill="#434343" d="m244.78839 196.56987l4.90625 0l-0.171875 0.8125l-4.03125 0l-0.59375 2.765625l3.546875 0l-0.171875 0.828125l-3.546875 0l-0.765625 3.59375l-0.875 0l1.703125 -8.0zm8.02742 1.90625q1.375 0 1.8125 0.890625q0.453125 0.890625 0.125 2.359375l-4.375 0q-0.234375 1.078125 0.140625 1.65625q0.390625 0.578125 1.328125 0.578125q1.203125 0 2.15625 -0.515625l-0.1875 0.890625q-0.96875 0.421875 -2.1875 0.421875q-1.3125 0 -1.875 -0.8125q-0.546875 -0.8125 -0.21875 -2.375q0.328125 -1.53125 1.1875 -2.3125q0.859375 -0.78125 2.09375 -0.78125zm-0.171875 0.796875q-0.78125 0 -1.265625 0.359375q-0.484375 0.359375 -0.78125 1.296875l3.40625 0q0.125 -0.828125 -0.203125 -1.234375q-0.328125 -0.421875 -1.15625 -0.421875zm6.970291 -0.796875q1.015625 0 1.484375 0.5q0.484375 0.484375 0.28125 1.421875l-0.625 2.90625q-0.171875 0.859375 -0.953125 1.15625q-0.78125 0.296875 -2.015625 0.296875q-0.953125 0 -1.546875 -0.421875q-0.578125 -0.421875 -0.375 -1.40625q0.234375 -1.078125 0.921875 -1.5625q0.6875 -0.484375 1.71875 -0.484375q1.171875 0 1.796875 0.421875l0.15625 -0.703125q0.28125 -1.34375 -1.296875 -1.34375q-0.515625 0 -1.078125 0.140625q-0.546875 0.140625 -0.96875 0.4375l0.1875 -0.875q0.40625 -0.21875 1.046875 -0.34375q0.65625 -0.140625 1.265625 -0.140625zm-1.453125 5.5q0.828125 0 1.21875 -0.125q0.40625 -0.125 0.5 -0.5l0.28125 -1.34375q-0.296875 -0.15625 -0.703125 -0.25q-0.40625 -0.09375 -0.875 -0.09375q-0.75 0 -1.234375 0.296875q-0.46875 0.28125 -0.59375 0.828125q-0.125 0.625 0.296875 0.90625q0.421875 0.28125 1.109375 0.28125zm6.116791 0.6875q-0.65625 0 -1.0 -0.390625q-0.328125 -0.40625 -0.171875 -1.15625l0.796875 -3.75l-1.046875 0l0.15625 -0.78125l1.046875 0l0.375 -1.703125l0.859375 0l-0.375 1.703125l1.546875 0l-0.15625 0.78125l-1.546875 0l-0.734375 3.46875q-0.125 0.53125 0 0.78125q0.125 0.234375 0.578125 0.234375q0.4375 0 0.78125 -0.140625l-0.171875 0.8125q-0.171875 0.0625 -0.4375 0.09375q-0.265625 0.046875 -0.5 0.046875zm4.949768 0.09375q-1.203125 0 -1.734375 -0.625q-0.515625 -0.625 -0.265625 -1.765625l0.796875 -3.78125l0.875 0l-0.75 3.59375q-0.203125 0.921875 0.09375 1.34375q0.3125 0.421875 1.171875 0.421875q0.84375 0 1.328125 -0.421875q0.484375 -0.421875 0.6875 -1.34375l0.75 -3.59375l0.859375 0l-0.796875 3.78125q-0.25 1.140625 -1.03125 1.765625q-0.78125 0.625 -1.984375 0.625zm5.6391907 -5.703125q0.515625 -0.1875 1.296875 -0.375q0.796875 -0.203125 1.59375 -0.203125q0.125 0 0.375 0.0625l-0.171875 0.78125q-0.28125 -0.046875 -0.5625 -0.046875q-0.40625 0 -0.75 0.046875q-0.34375 0.046875 -1.0 0.15625l-1.078125 5.09375l-0.875 0l1.171875 -5.515625zm6.5571594 -0.578125q1.375 0 1.8125 0.890625q0.453125 0.890625 0.125 2.359375l-4.375 0q-0.234375 1.078125 0.140625 1.65625q0.390625 0.578125 1.328125 0.578125q1.203125 0 2.15625 -0.515625l-0.1875 0.890625q-0.96875 0.421875 -2.1875 0.421875q-1.3125 0 -1.875 -0.8125q-0.546875 -0.8125 -0.21875 -2.375q0.328125 -1.53125 1.1875 -2.3125q0.859375 -0.78125 2.09375 -0.78125zm-0.171875 0.796875q-0.78125 0 -1.265625 0.359375q-0.484375 0.359375 -0.78125 1.296875l3.40625 0q0.125 -0.828125 -0.203125 -1.234375q-0.328125 -0.421875 -1.15625 -0.421875z" fill-rule="nonzero"/><path fill="#434343" d="m284.8318 205.398q0.859375 -0.390625 1.765625 -0.390625q0.84375 0 1.125 0.375q0.296875 0.359375 0.140625 1.09375l-0.546875 2.59375l-0.5625 0l0.546875 -2.59375q0.203125 -0.953125 -0.875 -0.953125q-0.5 0 -1.078125 0.15625l-0.71875 3.390625l-0.578125 0l0.78125 -3.671875z" fill-rule="nonzero"/></g></svg>