<svg version="1.1" viewBox="0.0 0.0 954.1233595800525 451.6430446194226" fill="none" stroke="none" stroke-linecap="square" stroke-miterlimit="10" xmlns:xlink="http://www.w3.org/1999/xlink" xmlns="http://www.w3.org/2000/svg"><clipPath id="p.0"><path d="m0 0l954.12335 0l0 451.64304l-954.12335 0l0 -451.64304z" clip-rule="nonzero"/></clipPath><g clip-path="url(#p.0)"><path fill="#000000" fill-opacity="0.0" d="m0 0l954.12335 0l0 451.64304l-954.12335 0z" fill-rule="evenodd"/><path fill="#000000" fill-opacity="0.0" d="m214.61691 393.3873l168.0 0l0 48.0l-168.0 0z" fill-rule="evenodd"/><path stroke="#3c78d8" stroke-width="1.0" stroke-linejoin="round" stroke-linecap="butt" d="m214.61691 393.3873l168.0 0l0 48.0l-168.0 0z" fill-rule="evenodd"/><path fill="#3c78d8" d="m245.44827 411.86978l1.34375 0l0 5.59375l6.625 0l0 -5.59375l1.34375 0l0 12.4375l-1.34375 0l0 -5.578125l-6.625 0l0 5.578125l-1.34375 0l0 -12.4375zm15.324799 12.59375q-1.03125 0 -1.6875 -0.625q-0.640625 -0.625 -0.640625 -1.78125l0 -5.828125l-1.625 0l0 -1.234375l1.625 0l0 -2.625l1.34375 0l0 2.625l2.40625 0l0 1.234375l-2.40625 0l0 5.390625q0 0.828125 0.25 1.203125q0.265625 0.359375 0.984375 0.359375q0.6875 0 1.171875 -0.21875l0 1.265625q-0.265625 0.09375 -0.671875 0.15625q-0.390625 0.078125 -0.75 0.078125zm6.772217 0q-1.03125 0 -1.6875 -0.625q-0.640625 -0.625 -0.640625 -1.78125l0 -5.828125l-1.625 0l0 -1.234375l1.625 0l0 -2.625l1.34375 0l0 2.625l2.40625 0l0 1.234375l-2.40625 0l0 5.390625q0 0.828125 0.25 1.203125q0.265625 0.359375 0.984375 0.359375q0.6875 0 1.171875 -0.21875l0 1.265625q-0.265625 0.09375 -0.671875 0.15625q-0.390625 0.078125 -0.75 0.078125zm7.615967 -9.640625q1.859375 0 3.09375 1.203125q1.234375 1.203125 1.234375 3.859375q0 2.1875 -1.15625 3.4375q-1.15625 1.25 -3.28125 1.25q-0.484375 0 -1.125 -0.15625q-0.640625 -0.140625 -1.203125 -0.390625l0 4.328125l-1.328125 0l0 -11.671875q0 -1.03125 1.125 -1.421875q1.125 -0.40625 2.640625 -0.4375zm-0.109375 8.515625q1.46875 0 2.234375 -0.921875q0.78125 -0.9375 0.78125 -2.53125q0 -1.75 -0.640625 -2.78125q-0.625 -1.046875 -2.28125 -1.046875q-1.015625 0 -1.71875 0.234375q-0.703125 0.234375 -0.703125 0.625l0 5.765625q1.125 0.65625 2.328125 0.65625zm12.256012 1.125q-2.875 0 -4.328125 -1.609375q-1.4375 -1.609375 -1.4375 -4.78125q0 -3.171875 1.4375 -4.765625q1.453125 -1.609375 4.328125 -1.609375q1.890625 0 3.78125 0.90625l0 1.296875q-1.75 -0.9375 -3.640625 -0.9375q-2.34375 0 -3.4375 1.234375q-1.078125 1.234375 -1.078125 3.875q0 2.671875 1.078125 3.890625q1.078125 1.21875 3.4375 1.21875q1.984375 0 3.640625 -0.90625l0 1.28125q-1.90625 0.90625 -3.78125 0.90625zm6.307312 -0.15625l0 -12.859375l1.328125 0l0 12.859375l-1.328125 0zm4.328247 -12.4375l1.484375 0l0 1.46875l-1.484375 0l0 -1.46875zm0.0625 3.125l1.34375 0l0 9.3125l-1.34375 0l0 -9.3125zm8.024384 -0.171875q2.125 0 3.109375 1.390625q1.0 1.375 0.953125 3.671875l-6.78125 0q0 1.671875 0.78125 2.578125q0.78125 0.890625 2.234375 0.890625q1.875 0 3.1875 -0.796875l0 1.375q-1.359375 0.65625 -3.265625 0.65625q-2.03125 0 -3.171875 -1.25q-1.125 -1.265625 -1.125 -3.703125q0 -2.359375 1.0625 -3.578125q1.078125 -1.234375 3.015625 -1.234375zm0 1.234375q-1.234375 0 -1.875 0.578125q-0.625 0.5625 -0.796875 2.015625l5.328125 0q-0.09375 -1.296875 -0.75 -1.9375q-0.640625 -0.65625 -1.90625 -0.65625zm6.5956116 -0.3125q1.796875 -0.921875 3.921875 -0.921875q1.96875 0 2.828125 0.859375q0.875 0.859375 0.875 2.5625l0 6.0625l-1.34375 0l0 -6.0625q0 -2.203125 -2.5 -2.203125q-1.15625 0 -2.453125 0.375l0 7.890625l-1.328125 0l0 -8.5625zm13.537262 8.71875q-1.03125 0 -1.6875 -0.625q-0.640625 -0.625 -0.640625 -1.78125l0 -5.828125l-1.625 0l0 -1.234375l1.625 0l0 -2.625l1.34375 0l0 2.625l2.40625 0l0 1.234375l-2.40625 0l0 5.390625q0 0.828125 0.25 1.203125q0.265625 0.359375 0.984375 0.359375q0.6875 0 1.171875 -0.21875l0 1.265625q-0.265625 0.09375 -0.671875 0.15625q-0.390625 0.078125 -0.75 0.078125zm3.9284668 -12.59375l1.34375 0l0 11.125l6.375 0l0 1.3125l-7.71875 0l0 -12.4375zm9.679108 0l1.484375 0l0 1.46875l-1.484375 0l0 -1.46875zm0.0625 3.125l1.34375 0l0 9.3125l-1.34375 0l0 -9.3125zm8.243134 -0.140625q2.109375 0 3.1875 1.234375q1.078125 1.234375 1.078125 3.4375q-0.015625 2.84375 -1.3125 3.953125q-1.28125 1.109375 -3.0625 1.109375q-3.71875 0 -3.71875 -1.859375l0 -11.671875l1.328125 0l0 4.328125q0.59375 -0.21875 1.296875 -0.375q0.71875 -0.15625 1.203125 -0.15625zm-0.296875 8.5q1.8125 0 2.46875 -1.015625q0.671875 -1.03125 0.671875 -2.8125q0 -1.59375 -0.6875 -2.515625q-0.6875 -0.9375 -2.15625 -0.9375q-0.609375 0 -1.28125 0.171875q-0.65625 0.171875 -1.21875 0.484375l0 5.671875q0 0.546875 0.65625 0.75q0.65625 0.203125 1.546875 0.203125z" fill-rule="nonzero"/><path fill="#000000" fill-opacity="0.0" d="m635.5605 297.31537l144.0 0l0 48.0l-144.0 0z" fill-rule="evenodd"/><path stroke="#9900ff" stroke-width="1.0" stroke-linejoin="round" stroke-linecap="butt" d="m635.5605 297.31537l144.0 0l0 48.0l-144.0 0z" fill-rule="evenodd"/><path fill="#9900ff" d="m655.5431 328.42288q-2.765625 0 -4.171875 -1.609375q-1.40625 -1.625 -1.40625 -4.796875q0 -3.171875 1.40625 -4.78125q1.40625 -1.609375 4.171875 -1.609375q2.78125 0 4.1875 1.609375q1.40625 1.609375 1.40625 4.78125q0 3.171875 -1.40625 4.796875q-1.40625 1.609375 -4.1875 1.609375zm0 -1.265625q2.203125 0 3.203125 -1.234375q1.0 -1.234375 1.0 -3.90625q0 -2.640625 -1.0 -3.875q-1.0 -1.25 -3.203125 -1.25q-2.1875 0 -3.203125 1.25q-1.0 1.234375 -1.0 3.875q0 2.671875 1.0 3.90625q1.015625 1.234375 3.203125 1.234375zm11.976318 -8.40625q1.859375 0 3.09375 1.203125q1.234375 1.203125 1.234375 3.859375q0 2.1875 -1.15625 3.4375q-1.15625 1.25 -3.28125 1.25q-0.484375 0 -1.125 -0.15625q-0.640625 -0.140625 -1.203125 -0.390625l0 4.328125l-1.328125 0l0 -11.671875q0 -1.03125 1.125 -1.421875q1.125 -0.40625 2.640625 -0.4375zm-0.109375 8.515625q1.46875 0 2.234375 -0.921875q0.78125 -0.9375 0.78125 -2.53125q0 -1.75 -0.640625 -2.78125q-0.625 -1.046875 -2.28125 -1.046875q-1.015625 0 -1.71875 0.234375q-0.703125 0.234375 -0.703125 0.625l0 5.765625q1.125 0.65625 2.328125 0.65625zm10.5685425 -8.515625q2.125 0 3.109375 1.390625q1.0 1.375 0.953125 3.671875l-6.78125 0q0 1.671875 0.78125 2.578125q0.78125 0.890625 2.234375 0.890625q1.875 0 3.1875 -0.796875l0 1.375q-1.359375 0.65625 -3.265625 0.65625q-2.03125 0 -3.171875 -1.25q-1.125 -1.265625 -1.125 -3.703125q0 -2.359375 1.0625 -3.578125q1.078125 -1.234375 3.015625 -1.234375zm0 1.234375q-1.234375 0 -1.875 0.578125q-0.625 0.5625 -0.796875 2.015625l5.328125 0q-0.09375 -1.296875 -0.75 -1.9375q-0.640625 -0.65625 -1.90625 -0.65625zm6.595581 -0.3125q0.703125 -0.296875 1.859375 -0.609375q1.171875 -0.3125 2.421875 -0.3125q0.1875 0 0.59375 0.125l0 1.1875q-0.4375 -0.0625 -0.890625 -0.0625q-0.609375 0 -1.140625 0.078125q-0.515625 0.078125 -1.515625 0.25l0 7.90625l-1.328125 0l0 -8.5625zm11.002136 -0.921875q1.5625 0 2.46875 0.765625q0.90625 0.765625 0.90625 2.21875l0 4.515625q0 1.34375 -1.109375 1.8125q-1.09375 0.453125 -3.03125 0.453125q-1.46875 0 -2.53125 -0.65625q-1.046875 -0.65625 -1.046875 -2.1875q0 -1.65625 0.90625 -2.40625q0.921875 -0.765625 2.515625 -0.765625q1.8125 0 2.9375 0.65625l0 -1.09375q0 -2.09375 -2.453125 -2.09375q-0.796875 0 -1.625 0.234375q-0.8125 0.21875 -1.375 0.65625l0 -1.34375q0.5625 -0.34375 1.515625 -0.546875q0.96875 -0.21875 1.921875 -0.21875zm-0.453125 8.5625q1.3125 0 1.890625 -0.1875q0.578125 -0.203125 0.578125 -0.796875l0 -2.09375q-0.5 -0.234375 -1.171875 -0.375q-0.671875 -0.140625 -1.40625 -0.140625q-1.171875 0 -1.8125 0.453125q-0.625 0.4375 -0.625 1.296875q0 0.96875 0.734375 1.40625q0.75 0.4375 1.8125 0.4375zm9.741821 1.078125q-1.03125 0 -1.6875 -0.625q-0.640625 -0.625 -0.640625 -1.78125l0 -5.828125l-1.625 0l0 -1.234375l1.625 0l0 -2.625l1.34375 0l0 2.625l2.40625 0l0 1.234375l-2.40625 0l0 5.390625q0 0.828125 0.25 1.203125q0.265625 0.359375 0.984375 0.359375q0.6875 0 1.171875 -0.21875l0 1.265625q-0.265625 0.09375 -0.671875 0.15625q-0.390625 0.078125 -0.75 0.078125zm3.8503418 -12.59375l1.484375 0l0 1.46875l-1.484375 0l0 -1.46875zm0.0625 3.125l1.34375 0l0 9.3125l-1.34375 0l0 -9.3125zm8.227539 9.59375q-2.140625 0 -3.21875 -1.265625q-1.0625 -1.265625 -1.0625 -3.640625q0 -2.40625 1.078125 -3.625q1.09375 -1.234375 3.171875 -1.234375q2.1875 0 3.25 1.296875q1.0625 1.296875 1.0625 3.5625q0 2.3125 -1.125 3.609375q-1.125 1.296875 -3.15625 1.296875zm-0.015625 -1.234375q2.953125 0 2.953125 -3.671875q0 -1.75 -0.703125 -2.6875q-0.6875 -0.9375 -2.25 -0.9375q-2.921875 0 -2.921875 3.625q0 3.671875 2.921875 3.671875zm6.8185425 -7.609375q1.796875 -0.921875 3.921875 -0.921875q1.96875 0 2.828125 0.859375q0.875 0.859375 0.875 2.5625l0 6.0625l-1.34375 0l0 -6.0625q0 -2.203125 -2.5 -2.203125q-1.15625 0 -2.453125 0.375l0 7.890625l-1.328125 0l0 -8.5625zm13.240356 8.84375q-0.953125 0 -1.625 -0.1875q-0.671875 -0.1875 -1.46875 -0.59375l0 -1.421875q0.953125 0.546875 1.546875 0.765625q0.609375 0.203125 1.453125 0.203125q0.9375 0 1.515625 -0.40625q0.59375 -0.40625 0.59375 -1.0625q0 -0.578125 -0.359375 -0.859375q-0.359375 -0.296875 -1.109375 -0.59375l-0.5 -0.203125q-1.0625 -0.3125 -1.65625 -0.546875q-0.578125 -0.25 -1.015625 -0.765625q-0.4375 -0.515625 -0.4375 -1.421875q0 -0.890625 0.46875 -1.484375q0.46875 -0.609375 1.203125 -0.890625q0.75 -0.296875 1.578125 -0.296875q0.75 0 1.25 0.171875q0.515625 0.171875 1.421875 0.5625l0 1.34375q-0.9375 -0.46875 -1.4375 -0.65625q-0.484375 -0.1875 -1.15625 -0.1875q-0.828125 0 -1.40625 0.328125q-0.578125 0.328125 -0.578125 0.921875q0 0.484375 0.28125 0.796875q0.296875 0.3125 0.734375 0.484375q0.4375 0.171875 1.1875 0.390625q0.9375 0.296875 1.484375 0.546875q0.546875 0.234375 0.96875 0.765625q0.421875 0.53125 0.421875 1.421875q0 0.953125 -0.484375 1.59375q-0.484375 0.640625 -1.265625 0.96875q-0.765625 0.3125 -1.609375 0.3125zm5.960388 -12.71875l1.34375 0l0 11.125l6.375 0l0 1.3125l-7.71875 0l0 -12.4375zm9.679077 0l1.484375 0l0 1.46875l-1.484375 0l0 -1.46875zm0.0625 3.125l1.34375 0l0 9.3125l-1.34375 0l0 -9.3125zm8.243164 -0.140625q2.109375 0 3.1875 1.234375q1.078125 1.234375 1.078125 3.4375q-0.015625 2.84375 -1.3125 3.953125q-1.28125 1.109375 -3.0625 1.109375q-3.71875 0 -3.71875 -1.859375l0 -11.671875l1.328125 0l0 4.328125q0.59375 -0.21875 1.296875 -0.375q0.71875 -0.15625 1.203125 -0.15625zm-0.296875 8.5q1.8125 0 2.46875 -1.015625q0.671875 -1.03125 0.671875 -2.8125q0 -1.59375 -0.6875 -2.515625q-0.6875 -0.9375 -2.15625 -0.9375q-0.609375 0 -1.28125 0.171875q-0.65625 0.171875 -1.21875 0.484375l0 5.671875q0 0.546875 0.65625 0.75q0.65625 0.203125 1.546875 0.203125z" fill-rule="nonzero"/><path fill="#000000" fill-opacity="0.0" d="m781.69696 383.40857l144.0 0l0 48.0l-144.0 0z" fill-rule="evenodd"/><path stroke="#6aa84f" stroke-width="1.0" stroke-linejoin="round" stroke-linecap="butt" d="m781.69696 383.40857l144.0 0l0 48.0l-144.0 0z" fill-rule="evenodd"/><path fill="#6aa84f" d="m807.75775 401.89105l7.640625 0l0 1.265625l-6.296875 0l0 4.28125l5.53125 0l0 1.3125l-5.53125 0l0 5.578125l-1.34375 0l0 -12.4375zm13.323425 12.71875q-2.140625 0 -3.21875 -1.265625q-1.0625 -1.265625 -1.0625 -3.640625q0 -2.40625 1.078125 -3.625q1.09375 -1.234375 3.171875 -1.234375q2.1875 0 3.25 1.296875q1.0625 1.296875 1.0625 3.5625q0 2.3125 -1.125 3.609375q-1.125 1.296875 -3.15625 1.296875zm-0.015625 -1.234375q2.953125 0 2.953125 -3.671875q0 -1.75 -0.703125 -2.6875q-0.6875 -0.9375 -2.25 -0.9375q-2.921875 0 -2.921875 3.625q0 3.671875 2.921875 3.671875zm10.7091675 1.234375q-1.859375 0 -2.875 -0.953125q-1.015625 -0.96875 -1.015625 -2.75l0 -5.890625l1.328125 0l0 5.59375q0 1.421875 0.609375 2.09375q0.625 0.65625 1.953125 0.65625q1.3125 0 1.9375 -0.65625q0.625 -0.671875 0.625 -2.09375l0 -5.59375l1.34375 0l0 5.890625q0 1.78125 -1.03125 2.75q-1.015625 0.953125 -2.875 0.953125zm6.8927 -8.84375q1.796875 -0.921875 3.921875 -0.921875q1.96875 0 2.828125 0.859375q0.875 0.859375 0.875 2.5625l0 6.0625l-1.34375 0l0 -6.0625q0 -2.203125 -2.5 -2.203125q-1.15625 0 -2.453125 0.375l0 7.890625l-1.328125 0l0 -8.5625zm18.240417 -4.6875l0 11.640625q0 0.953125 -1.203125 1.421875q-1.203125 0.46875 -2.625 0.46875q-1.71875 0 -2.984375 -1.109375q-1.265625 -1.109375 -1.28125 -3.953125q0 -2.203125 1.0625 -3.4375q1.078125 -1.234375 3.1875 -1.234375q0.484375 0 1.203125 0.15625q0.71875 0.15625 1.296875 0.375l0 -4.328125l1.34375 0zm-1.34375 5.671875q-0.5625 -0.3125 -1.234375 -0.484375q-0.65625 -0.171875 -1.265625 -0.171875q-1.453125 0 -2.15625 0.9375q-0.6875 0.921875 -0.6875 2.515625q0 1.765625 0.640625 2.796875q0.640625 1.03125 2.296875 1.03125q0.984375 0 1.6875 -0.21875q0.71875 -0.234375 0.71875 -0.5625l0 -5.84375zm8.302856 -1.90625q1.5625 0 2.46875 0.765625q0.90625 0.765625 0.90625 2.21875l0 4.515625q0 1.34375 -1.109375 1.8125q-1.09375 0.453125 -3.03125 0.453125q-1.46875 0 -2.53125 -0.65625q-1.046875 -0.65625 -1.046875 -2.1875q0 -1.65625 0.90625 -2.40625q0.921875 -0.765625 2.515625 -0.765625q1.8125 0 2.9375 0.65625l0 -1.09375q0 -2.09375 -2.453125 -2.09375q-0.796875 0 -1.625 0.234375q-0.8125 0.21875 -1.375 0.65625l0 -1.34375q0.5625 -0.34375 1.515625 -0.546875q0.96875 -0.21875 1.921875 -0.21875zm-0.453125 8.5625q1.3125 0 1.890625 -0.1875q0.578125 -0.203125 0.578125 -0.796875l0 -2.09375q-0.5 -0.234375 -1.171875 -0.375q-0.671875 -0.140625 -1.40625 -0.140625q-1.171875 0 -1.8125 0.453125q-0.625 0.4375 -0.625 1.296875q0 0.96875 0.734375 1.40625q0.75 0.4375 1.8125 0.4375zm9.741821 1.078125q-1.03125 0 -1.6875 -0.625q-0.640625 -0.625 -0.640625 -1.78125l0 -5.828125l-1.625 0l0 -1.234375l1.625 0l0 -2.625l1.34375 0l0 2.625l2.40625 0l0 1.234375l-2.40625 0l0 5.390625q0 0.828125 0.25 1.203125q0.265625 0.359375 0.984375 0.359375q0.6875 0 1.171875 -0.21875l0 1.265625q-0.265625 0.09375 -0.671875 0.15625q-0.390625 0.078125 -0.75 0.078125zm3.8503418 -12.59375l1.484375 0l0 1.46875l-1.484375 0l0 -1.46875zm0.0625 3.125l1.34375 0l0 9.3125l-1.34375 0l0 -9.3125zm8.227539 9.59375q-2.140625 0 -3.21875 -1.265625q-1.0625 -1.265625 -1.0625 -3.640625q0 -2.40625 1.078125 -3.625q1.09375 -1.234375 3.171875 -1.234375q2.1875 0 3.25 1.296875q1.0625 1.296875 1.0625 3.5625q0 2.3125 -1.125 3.609375q-1.125 1.296875 -3.15625 1.296875zm-0.015625 -1.234375q2.953125 0 2.953125 -3.671875q0 -1.75 -0.703125 -2.6875q-0.6875 -0.9375 -2.25 -0.9375q-2.921875 0 -2.921875 3.625q0 3.671875 2.921875 3.671875zm6.8185425 -7.609375q1.796875 -0.921875 3.921875 -0.921875q1.96875 0 2.828125 0.859375q0.875 0.859375 0.875 2.5625l0 6.0625l-1.34375 0l0 -6.0625q0 -2.203125 -2.5 -2.203125q-1.15625 0 -2.453125 0.375l0 7.890625l-1.328125 0l0 -8.5625z" fill-rule="nonzero"/><path fill="#000000" fill-opacity="0.0" d="m214.5841 297.3873l168.0 0l0 48.0l-168.0 0z" fill-rule="evenodd"/><path stroke="#e69138" stroke-width="1.0" stroke-linejoin="round" stroke-linecap="butt" d="m214.5841 297.3873l168.0 0l0 48.0l-168.0 0z" fill-rule="evenodd"/><path fill="#e69138" d="m250.15878 328.30728l-3.25 -5.015625l-3.171875 0l0 5.015625l-1.34375 0l0 -12.4375l5.125 0q1.796875 0 2.734375 0.921875q0.9375 0.90625 0.9375 2.6875q0 1.4375 -0.765625 2.4375q-0.765625 0.984375 -2.046875 1.21875l3.375 5.171875l-1.59375 0zm-6.421875 -6.28125l3.15625 0q1.53125 0 2.234375 -0.609375q0.71875 -0.625 0.71875 -1.84375q0 -1.1875 -0.5625 -1.8125q-0.5625 -0.625 -1.921875 -0.625l-3.625 0l0 4.890625zm13.959595 -3.203125q2.125 0 3.109375 1.390625q1.0 1.375 0.953125 3.671875l-6.78125 0q0 1.671875 0.78125 2.578125q0.78125 0.890625 2.234375 0.890625q1.875 0 3.1875 -0.796875l0 1.375q-1.359375 0.65625 -3.265625 0.65625q-2.03125 0 -3.171875 -1.25q-1.125 -1.265625 -1.125 -3.703125q0 -2.359375 1.0625 -3.578125q1.078125 -1.234375 3.015625 -1.234375zm0 1.234375q-1.234375 0 -1.875 0.578125q-0.625 0.5625 -0.796875 2.015625l5.328125 0q-0.09375 -1.296875 -0.75 -1.9375q-0.640625 -0.65625 -1.90625 -0.65625zm10.361237 -1.234375q1.859375 0 3.09375 1.203125q1.234375 1.203125 1.234375 3.859375q0 2.1875 -1.15625 3.4375q-1.15625 1.25 -3.28125 1.25q-0.484375 0 -1.125 -0.15625q-0.640625 -0.140625 -1.203125 -0.390625l0 4.328125l-1.328125 0l0 -11.671875q0 -1.03125 1.125 -1.421875q1.125 -0.40625 2.640625 -0.4375zm-0.109375 8.515625q1.46875 0 2.234375 -0.921875q0.78125 -0.9375 0.78125 -2.53125q0 -1.75 -0.640625 -2.78125q-0.625 -1.046875 -2.28125 -1.046875q-1.015625 0 -1.71875 0.234375q-0.703125 0.234375 -0.703125 0.625l0 5.765625q1.125 0.65625 2.328125 0.65625zm10.771637 1.25q-2.140625 0 -3.21875 -1.265625q-1.0625 -1.265625 -1.0625 -3.640625q0 -2.40625 1.078125 -3.625q1.09375 -1.234375 3.171875 -1.234375q2.1875 0 3.25 1.296875q1.0625 1.296875 1.0625 3.5625q0 2.3125 -1.125 3.609375q-1.125 1.296875 -3.15625 1.296875zm-0.015625 -1.234375q2.953125 0 2.953125 -3.671875q0 -1.75 -0.703125 -2.6875q-0.6875 -0.9375 -2.25 -0.9375q-2.921875 0 -2.921875 3.625q0 3.671875 2.921875 3.671875zm9.4435425 1.234375q-0.953125 0 -1.625 -0.1875q-0.671875 -0.1875 -1.46875 -0.59375l0 -1.421875q0.953125 0.546875 1.546875 0.765625q0.609375 0.203125 1.453125 0.203125q0.9375 0 1.515625 -0.40625q0.59375 -0.40625 0.59375 -1.0625q0 -0.578125 -0.359375 -0.859375q-0.359375 -0.296875 -1.109375 -0.59375l-0.5 -0.203125q-1.0625 -0.3125 -1.65625 -0.546875q-0.578125 -0.25 -1.015625 -0.765625q-0.4375 -0.515625 -0.4375 -1.421875q0 -0.890625 0.46875 -1.484375q0.46875 -0.609375 1.203125 -0.890625q0.75 -0.296875 1.578125 -0.296875q0.75 0 1.25 0.171875q0.515625 0.171875 1.421875 0.5625l0 1.34375q-0.9375 -0.46875 -1.4375 -0.65625q-0.484375 -0.1875 -1.15625 -0.1875q-0.828125 0 -1.40625 0.328125q-0.578125 0.328125 -0.578125 0.921875q0 0.484375 0.28125 0.796875q0.296875 0.3125 0.734375 0.484375q0.4375 0.171875 1.1875 0.390625q0.9375 0.296875 1.484375 0.546875q0.546875 0.234375 0.96875 0.765625q0.421875 0.53125 0.421875 1.421875q0 0.953125 -0.484375 1.59375q-0.484375 0.640625 -1.265625 0.96875q-0.765625 0.3125 -1.609375 0.3125zm5.8822327 -12.71875l1.484375 0l0 1.46875l-1.484375 0l0 -1.46875zm0.0625 3.125l1.34375 0l0 9.3125l-1.34375 0l0 -9.3125zm7.3368835 9.46875q-1.03125 0 -1.6875 -0.625q-0.640625 -0.625 -0.640625 -1.78125l0 -5.828125l-1.625 0l0 -1.234375l1.625 0l0 -2.625l1.34375 0l0 2.625l2.40625 0l0 1.234375l-2.40625 0l0 5.390625q0 0.828125 0.25 1.203125q0.265625 0.359375 0.984375 0.359375q0.6875 0 1.171875 -0.21875l0 1.265625q-0.265625 0.09375 -0.671875 0.15625q-0.390625 0.078125 -0.75 0.078125zm7.662842 0.125q-2.140625 0 -3.21875 -1.265625q-1.0625 -1.265625 -1.0625 -3.640625q0 -2.40625 1.078125 -3.625q1.09375 -1.234375 3.171875 -1.234375q2.1875 0 3.25 1.296875q1.0625 1.296875 1.0625 3.5625q0 2.3125 -1.125 3.609375q-1.125 1.296875 -3.15625 1.296875zm-0.015625 -1.234375q2.953125 0 2.953125 -3.671875q0 -1.75 -0.703125 -2.6875q-0.6875 -0.9375 -2.25 -0.9375q-2.921875 0 -2.921875 3.625q0 3.671875 2.921875 3.671875zm6.8185425 -7.609375q0.703125 -0.296875 1.859375 -0.609375q1.171875 -0.3125 2.421875 -0.3125q0.1875 0 0.59375 0.125l0 1.1875q-0.4375 -0.0625 -0.890625 -0.0625q-0.609375 0 -1.140625 0.078125q-0.515625 0.078125 -1.515625 0.25l0 7.90625l-1.328125 0l0 -8.5625zm14.955261 -0.75l-4.0 10.234375q-0.578125 1.484375 -1.359375 2.078125q-0.765625 0.59375 -1.5625 0.59375q-0.453125 0 -0.875 -0.15625l0 -1.234375q0.375 0.171875 0.796875 0.171875q0.8125 0 1.25 -0.578125q0.453125 -0.578125 0.84375 -1.765625l-3.859375 -9.34375l1.53125 0l2.9375 7.59375l2.953125 -7.59375l1.34375 0zm2.2306213 -3.125l1.34375 0l0 11.125l6.375 0l0 1.3125l-7.71875 0l0 -12.4375zm9.679108 0l1.484375 0l0 1.46875l-1.484375 0l0 -1.46875zm0.0625 3.125l1.34375 0l0 9.3125l-1.34375 0l0 -9.3125zm8.243134 -0.140625q2.109375 0 3.1875 1.234375q1.078125 1.234375 1.078125 3.4375q-0.015625 2.84375 -1.3125 3.953125q-1.28125 1.109375 -3.0625 1.109375q-3.71875 0 -3.71875 -1.859375l0 -11.671875l1.328125 0l0 4.328125q0.59375 -0.21875 1.296875 -0.375q0.71875 -0.15625 1.203125 -0.15625zm-0.296875 8.5q1.8125 0 2.46875 -1.015625q0.671875 -1.03125 0.671875 -2.8125q0 -1.59375 -0.6875 -2.515625q-0.6875 -0.9375 -2.15625 -0.9375q-0.609375 0 -1.28125 0.171875q-0.65625 0.171875 -1.21875 0.484375l0 5.671875q0 0.546875 0.65625 0.75q0.65625 0.203125 1.546875 0.203125z" fill-rule="nonzero"/><path fill="#000000" fill-opacity="0.0" d="m418.56 201.47417l168.0 0l0 48.0l-168.0 0z" fill-rule="evenodd"/><path stroke="#cc0000" stroke-width="1.0" stroke-linejoin="round" stroke-linecap="butt" d="m418.56 201.47417l168.0 0l0 48.0l-168.0 0z" fill-rule="evenodd"/><path fill="#cc0000" d="m457.71228 219.95667l-4.0 12.4375l-1.359375 0l-3.265625 -10.3125l-3.265625 10.3125l-1.390625 0l-3.984375 -12.4375l1.421875 0l3.359375 10.609375l3.1875 -10.609375l1.34375 0l3.234375 10.609375l3.3125 -10.609375l1.40625 0zm1.9741516 0l1.484375 0l0 1.46875l-1.484375 0l0 -1.46875zm0.0625 3.125l1.34375 0l0 9.3125l-1.34375 0l0 -9.3125zm12.040009 -3.9375l0 11.640625q0 0.953125 -1.203125 1.421875q-1.203125 0.46875 -2.625 0.46875q-1.71875 0 -2.984375 -1.109375q-1.265625 -1.109375 -1.28125 -3.953125q0 -2.203125 1.0625 -3.4375q1.078125 -1.234375 3.1875 -1.234375q0.484375 0 1.203125 0.15625q0.71875 0.15625 1.296875 0.375l0 -4.328125l1.34375 0zm-1.34375 5.671875q-0.5625 -0.3125 -1.234375 -0.484375q-0.65625 -0.171875 -1.265625 -0.171875q-1.453125 0 -2.15625 0.9375q-0.6875 0.921875 -0.6875 2.515625q0 1.765625 0.640625 2.796875q0.640625 1.03125 2.296875 1.03125q0.984375 0 1.6875 -0.21875q0.71875 -0.234375 0.71875 -0.5625l0 -5.84375zm8.396637 -1.875q1.484375 0 2.515625 0.5625q1.046875 0.5625 1.046875 1.75l0 7.53125q0 1.375 -0.90625 2.328125q-0.890625 0.96875 -3.140625 0.96875q-0.640625 0 -1.1875 -0.109375q-0.546875 -0.09375 -0.953125 -0.203125q-0.40625 -0.09375 -0.515625 -0.109375l0 -1.265625q0.734375 0.203125 1.28125 0.3125q0.546875 0.109375 1.21875 0.109375q1.703125 0 2.28125 -0.5625q0.578125 -0.546875 0.578125 -1.4375l0 -0.6875q-0.578125 0.234375 -1.296875 0.390625q-0.71875 0.15625 -1.203125 0.15625q-2.109375 0 -3.1875 -1.234375q-1.0625 -1.25 -1.0625 -3.453125q0.015625 -2.84375 1.3125 -3.9375q1.3125 -1.109375 3.21875 -1.109375zm-3.125 5.046875q0 1.609375 0.6875 2.53125q0.703125 0.921875 2.15625 0.921875q0.609375 0 1.265625 -0.15625q0.671875 -0.171875 1.234375 -0.5l0 -5.34375q0 -0.734375 -0.578125 -1.0q-0.5625 -0.28125 -1.53125 -0.28125q-1.859375 0 -2.546875 1.03125q-0.6875 1.03125 -0.6875 2.796875zm13.2872925 -5.078125q2.125 0 3.109375 1.390625q1.0 1.375 0.953125 3.671875l-6.78125 0q0 1.671875 0.78125 2.578125q0.78125 0.890625 2.234375 0.890625q1.875 0 3.1875 -0.796875l0 1.375q-1.359375 0.65625 -3.265625 0.65625q-2.03125 0 -3.171875 -1.25q-1.125 -1.265625 -1.125 -3.703125q0 -2.359375 1.0625 -3.578125q1.078125 -1.234375 3.015625 -1.234375zm0 1.234375q-1.234375 0 -1.875 0.578125q-0.625 0.5625 -0.796875 2.015625l5.328125 0q-0.09375 -1.296875 -0.75 -1.9375q-0.640625 -0.65625 -1.90625 -0.65625zm9.517456 8.40625q-1.03125 0 -1.6875 -0.625q-0.640625 -0.625 -0.640625 -1.78125l0 -5.828125l-1.625 0l0 -1.234375l1.625 0l0 -2.625l1.34375 0l0 2.625l2.40625 0l0 1.234375l-2.40625 0l0 5.390625q0 0.828125 0.25 1.203125q0.265625 0.359375 0.984375 0.359375q0.6875 0 1.171875 -0.21875l0 1.265625q-0.265625 0.09375 -0.671875 0.15625q-0.390625 0.078125 -0.75 0.078125zm3.9284668 -12.59375l7.640625 0l0 1.265625l-6.296875 0l0 4.28125l5.53125 0l0 1.3125l-5.53125 0l0 5.578125l-1.34375 0l0 -12.4375zm13.120331 2.953125q2.125 0 3.109375 1.390625q1.0 1.375 0.953125 3.671875l-6.78125 0q0 1.671875 0.78125 2.578125q0.78125 0.890625 2.234375 0.890625q1.875 0 3.1875 -0.796875l0 1.375q-1.359375 0.65625 -3.265625 0.65625q-2.03125 0 -3.171875 -1.25q-1.125 -1.265625 -1.125 -3.703125q0 -2.359375 1.0625 -3.578125q1.078125 -1.234375 3.015625 -1.234375zm0 1.234375q-1.234375 0 -1.875 0.578125q-0.625 0.5625 -0.796875 2.015625l5.328125 0q-0.09375 -1.296875 -0.75 -1.9375q-0.640625 -0.65625 -1.90625 -0.65625zm10.564331 -1.234375q1.5625 0 2.46875 0.765625q0.90625 0.765625 0.90625 2.21875l0 4.515625q0 1.34375 -1.109375 1.8125q-1.09375 0.453125 -3.03125 0.453125q-1.46875 0 -2.53125 -0.65625q-1.046875 -0.65625 -1.046875 -2.1875q0 -1.65625 0.90625 -2.40625q0.921875 -0.765625 2.515625 -0.765625q1.8125 0 2.9375 0.65625l0 -1.09375q0 -2.09375 -2.453125 -2.09375q-0.796875 0 -1.625 0.234375q-0.8125 0.21875 -1.375 0.65625l0 -1.34375q0.5625 -0.34375 1.515625 -0.546875q0.96875 -0.21875 1.921875 -0.21875zm-0.453125 8.5625q1.3125 0 1.890625 -0.1875q0.578125 -0.203125 0.578125 -0.796875l0 -2.09375q-0.5 -0.234375 -1.171875 -0.375q-0.671875 -0.140625 -1.40625 -0.140625q-1.171875 0 -1.8125 0.453125q-0.625 0.4375 -0.625 1.296875q0 0.96875 0.734375 1.40625q0.75 0.4375 1.8125 0.4375zm9.741821 1.078125q-1.03125 0 -1.6875 -0.625q-0.640625 -0.625 -0.640625 -1.78125l0 -5.828125l-1.625 0l0 -1.234375l1.625 0l0 -2.625l1.34375 0l0 2.625l2.40625 0l0 1.234375l-2.40625 0l0 5.390625q0 0.828125 0.25 1.203125q0.265625 0.359375 0.984375 0.359375q0.6875 0 1.171875 -0.21875l0 1.265625q-0.265625 0.09375 -0.671875 0.15625q-0.390625 0.078125 -0.75 0.078125zm7.740967 0.125q-1.859375 0 -2.875 -0.953125q-1.015625 -0.96875 -1.015625 -2.75l0 -5.890625l1.328125 0l0 5.59375q0 1.421875 0.609375 2.09375q0.625 0.65625 1.953125 0.65625q1.3125 0 1.9375 -0.65625q0.625 -0.671875 0.625 -2.09375l0 -5.59375l1.34375 0l0 5.890625q0 1.78125 -1.03125 2.75q-1.015625 0.953125 -2.875 0.953125zm6.8927 -8.84375q0.703125 -0.296875 1.859375 -0.609375q1.171875 -0.3125 2.421875 -0.3125q0.1875 0 0.59375 0.125l0 1.1875q-0.4375 -0.0625 -0.890625 -0.0625q-0.609375 0 -1.140625 0.078125q-0.515625 0.078125 -1.515625 0.25l0 7.90625l-1.328125 0l0 -8.5625zm9.989441 -0.921875q2.125 0 3.109375 1.390625q1.0 1.375 0.953125 3.671875l-6.78125 0q0 1.671875 0.78125 2.578125q0.78125 0.890625 2.234375 0.890625q1.875 0 3.1875 -0.796875l0 1.375q-1.359375 0.65625 -3.265625 0.65625q-2.03125 0 -3.171875 -1.25q-1.125 -1.265625 -1.125 -3.703125q0 -2.359375 1.0625 -3.578125q1.078125 -1.234375 3.015625 -1.234375zm0 1.234375q-1.234375 0 -1.875 0.578125q-0.625 0.5625 -0.796875 2.015625l5.328125 0q-0.09375 -1.296875 -0.75 -1.9375q-0.640625 -0.65625 -1.90625 -0.65625z" fill-rule="nonzero"/><path fill="#000000" fill-opacity="0.0" d="m779.5625 201.63821l144.0 0l0 48.0l-144.0 0z" fill-rule="evenodd"/><path stroke="#6aa84f" stroke-width="1.0" stroke-linejoin="round" stroke-linecap="butt" d="m779.5625 201.63821l144.0 0l0 48.0l-144.0 0z" fill-rule="evenodd"/><path fill="#6aa84f" d="m816.61163 220.12071l3.90625 0q2.90625 0 4.375 1.5625q1.46875 1.546875 1.46875 4.640625q0 6.234375 -5.84375 6.234375l-3.90625 0l0 -12.4375zm3.8125 11.171875q2.375 0 3.453125 -1.1875q1.09375 -1.203125 1.09375 -3.78125q0 -2.578125 -1.09375 -3.765625q-1.078125 -1.1875 -3.453125 -1.1875l-2.46875 0l0 9.921875l2.46875 0zm8.553101 -11.171875l1.484375 0l0 1.46875l-1.484375 0l0 -1.46875zm0.0625 3.125l1.34375 0l0 9.3125l-1.34375 0l0 -9.3125zm7.040039 9.59375q-0.953125 0 -1.625 -0.1875q-0.671875 -0.1875 -1.46875 -0.59375l0 -1.421875q0.953125 0.546875 1.546875 0.765625q0.609375 0.203125 1.453125 0.203125q0.9375 0 1.515625 -0.40625q0.59375 -0.40625 0.59375 -1.0625q0 -0.578125 -0.359375 -0.859375q-0.359375 -0.296875 -1.109375 -0.59375l-0.5 -0.203125q-1.0625 -0.3125 -1.65625 -0.546875q-0.578125 -0.25 -1.015625 -0.765625q-0.4375 -0.515625 -0.4375 -1.421875q0 -0.890625 0.46875 -1.484375q0.46875 -0.609375 1.203125 -0.890625q0.75 -0.296875 1.578125 -0.296875q0.75 0 1.25 0.171875q0.515625 0.171875 1.421875 0.5625l0 1.34375q-0.9375 -0.46875 -1.4375 -0.65625q-0.484375 -0.1875 -1.15625 -0.1875q-0.828125 0 -1.40625 0.328125q-0.578125 0.328125 -0.578125 0.921875q0 0.484375 0.28125 0.796875q0.296875 0.3125 0.734375 0.484375q0.4375 0.171875 1.1875 0.390625q0.9375 0.296875 1.484375 0.546875q0.546875 0.234375 0.96875 0.765625q0.421875 0.53125 0.421875 1.421875q0 0.953125 -0.484375 1.59375q-0.484375 0.640625 -1.265625 0.96875q-0.765625 0.3125 -1.609375 0.3125zm9.647888 -9.765625q1.859375 0 3.09375 1.203125q1.234375 1.203125 1.234375 3.859375q0 2.1875 -1.15625 3.4375q-1.15625 1.25 -3.28125 1.25q-0.484375 0 -1.125 -0.15625q-0.640625 -0.140625 -1.203125 -0.390625l0 4.328125l-1.328125 0l0 -11.671875q0 -1.03125 1.125 -1.421875q1.125 -0.40625 2.640625 -0.4375zm-0.109375 8.515625q1.46875 0 2.234375 -0.921875q0.78125 -0.9375 0.78125 -2.53125q0 -1.75 -0.640625 -2.78125q-0.625 -1.046875 -2.28125 -1.046875q-1.015625 0 -1.71875 0.234375q-0.703125 0.234375 -0.703125 0.625l0 5.765625q1.125 0.65625 2.328125 0.65625zm10.927856 -8.515625q1.5625 0 2.46875 0.765625q0.90625 0.765625 0.90625 2.21875l0 4.515625q0 1.34375 -1.109375 1.8125q-1.09375 0.453125 -3.03125 0.453125q-1.46875 0 -2.53125 -0.65625q-1.046875 -0.65625 -1.046875 -2.1875q0 -1.65625 0.90625 -2.40625q0.921875 -0.765625 2.515625 -0.765625q1.8125 0 2.9375 0.65625l0 -1.09375q0 -2.09375 -2.453125 -2.09375q-0.796875 0 -1.625 0.234375q-0.8125 0.21875 -1.375 0.65625l0 -1.34375q0.5625 -0.34375 1.515625 -0.546875q0.96875 -0.21875 1.921875 -0.21875zm-0.453125 8.5625q1.3125 0 1.890625 -0.1875q0.578125 -0.203125 0.578125 -0.796875l0 -2.09375q-0.5 -0.234375 -1.171875 -0.375q-0.671875 -0.140625 -1.40625 -0.140625q-1.171875 0 -1.8125 0.453125q-0.625 0.4375 -0.625 1.296875q0 0.96875 0.734375 1.40625q0.75 0.4375 1.8125 0.4375zm9.741821 1.078125q-1.03125 0 -1.6875 -0.625q-0.640625 -0.625 -0.640625 -1.78125l0 -5.828125l-1.625 0l0 -1.234375l1.625 0l0 -2.625l1.34375 0l0 2.625l2.40625 0l0 1.234375l-2.40625 0l0 5.390625q0 0.828125 0.25 1.203125q0.265625 0.359375 0.984375 0.359375q0.6875 0 1.171875 -0.21875l0 1.265625q-0.265625 0.09375 -0.671875 0.15625q-0.390625 0.078125 -0.75 0.078125zm7.740967 0q-1.84375 0 -3.109375 -1.046875q-1.25 -1.0625 -1.25 -3.78125q0 -2.671875 1.25 -3.734375q1.265625 -1.078125 3.109375 -1.078125q1.40625 0 2.765625 0.53125l0 1.28125q-1.265625 -0.515625 -2.609375 -0.515625q-1.671875 0 -2.421875 0.84375q-0.75 0.828125 -0.75 2.671875q0 1.875 0.75 2.703125q0.75 0.828125 2.421875 0.828125q1.390625 0 2.609375 -0.515625l0 1.296875q-1.3125 0.515625 -2.765625 0.515625zm9.444519 -9.640625q1.75 0 2.65625 0.984375q0.921875 0.984375 0.921875 2.984375l0 5.515625l-1.34375 0l0 -5.515625q0 -1.3125 -0.609375 -2.015625q-0.609375 -0.71875 -1.78125 -0.71875q-1.296875 0 -2.671875 0.75l0 7.5l-1.328125 0l0 -13.4375l1.328125 0l0 4.75q0.703125 -0.375 1.4375 -0.578125q0.734375 -0.21875 1.390625 -0.21875z" fill-rule="nonzero"/><path fill="#000000" fill-opacity="0.0" d="m298.5841 345.3873l0.03149414 48.0" fill-rule="evenodd"/><path stroke="#666666" stroke-width="1.0" stroke-linejoin="round" stroke-linecap="butt" d="m298.58804 351.3873l0.027557373 42.0" fill-rule="evenodd"/><path fill="#666666" stroke="#666666" stroke-width="1.0" stroke-linecap="butt" d="m300.23978 351.38623l-1.6546936 -4.537018l-1.6487732 4.5391846z" fill-rule="evenodd"/><path fill="#000000" fill-opacity="0.0" d="m753.27295 431.4094l200.8504 0l0 18.992126l-200.8504 0z" fill-rule="evenodd"/><path fill="#434343" d="m770.15265 446.78485q-0.515625 -0.921875 -0.9375 -2.203125q-0.40625 -1.296875 -0.40625 -2.8125q0 -1.53125 0.40625 -2.828125q0.421875 -1.296875 0.9375 -2.203125l0.90625 0q-0.4375 0.75 -0.90625 2.078125q-0.46875 1.3125 -0.46875 2.953125q0 1.625 0.46875 2.96875q0.46875 1.328125 0.90625 2.046875l-0.90625 0zm4.9682007 -7.453125q1.375 0 2.0 0.890625q0.640625 0.890625 0.625 2.359375l-4.375 0q0 1.078125 0.5 1.65625q0.515625 0.578125 1.453125 0.578125q1.203125 0 2.046875 -0.515625l0 0.890625q-0.875 0.421875 -2.09375 0.421875q-1.3125 0 -2.046875 -0.8125q-0.734375 -0.8125 -0.734375 -2.375q0 -1.53125 0.6875 -2.3125q0.703125 -0.78125 1.9375 -0.78125zm0 0.796875q-0.78125 0 -1.1875 0.359375q-0.40625 0.359375 -0.515625 1.296875l3.40625 0q-0.046875 -0.828125 -0.46875 -1.234375q-0.40625 -0.421875 -1.234375 -0.421875zm9.237793 -0.6875l-2.546875 5.984375l-0.875 0l-2.53125 -5.984375l0.921875 0l2.125 5.03125l2.046875 -5.03125l0.859375 0zm3.2782593 -0.109375q1.375 0 2.0 0.890625q0.640625 0.890625 0.625 2.359375l-4.375 0q0 1.078125 0.5 1.65625q0.515625 0.578125 1.453125 0.578125q1.203125 0 2.046875 -0.515625l0 0.890625q-0.875 0.421875 -2.09375 0.421875q-1.3125 0 -2.046875 -0.8125q-0.734375 -0.8125 -0.734375 -2.375q0 -1.53125 0.6875 -2.3125q0.703125 -0.78125 1.9375 -0.78125zm0 0.796875q-0.78125 0 -1.1875 0.359375q-0.40625 0.359375 -0.515625 1.296875l3.40625 0q-0.046875 -0.828125 -0.46875 -1.234375q-0.40625 -0.421875 -1.234375 -0.421875zm4.235962 -0.21875q0.46875 -0.1875 1.21875 -0.375q0.75 -0.203125 1.546875 -0.203125q0.125 0 0.390625 0.0625l0 0.78125q-0.296875 -0.046875 -0.578125 -0.046875q-0.40625 0 -0.75 0.046875q-0.328125 0.046875 -0.953125 0.15625l0 5.09375l-0.875 0l0 -5.515625zm9.633362 -0.46875l-2.578125 6.578125q-0.359375 0.953125 -0.859375 1.328125q-0.5 0.390625 -1.015625 0.390625q-0.296875 0 -0.5625 -0.109375l0 -0.78125q0.234375 0.109375 0.515625 0.109375q0.515625 0 0.796875 -0.375q0.296875 -0.375 0.546875 -1.125l-2.484375 -6.015625l0.984375 0l1.890625 4.875l1.90625 -4.875l0.859375 0zm11.163208 -0.109375q1.25 0 1.8125 0.5625q0.5625 0.546875 0.5625 1.625l0 3.90625l-0.875 0l0 -3.90625q0 -1.40625 -1.609375 -1.40625q-0.765625 0 -1.4375 0.40625q0.15625 0.421875 0.15625 1.0l0 3.90625l-0.875 0l0 -3.90625q0 -1.40625 -1.609375 -1.40625q-0.734375 0 -1.5625 0.234375l0 5.078125l-0.875 0l0 -5.515625q1.171875 -0.578125 2.53125 -0.578125q1.171875 0 1.765625 0.484375q0.890625 -0.484375 2.015625 -0.484375zm6.7523193 6.28125q-1.375 0 -2.078125 -0.8125q-0.6875 -0.828125 -0.6875 -2.34375q0 -1.5625 0.703125 -2.34375q0.703125 -0.78125 2.03125 -0.78125q1.40625 0 2.09375 0.84375q0.6875 0.828125 0.6875 2.28125q0 1.484375 -0.71875 2.328125q-0.71875 0.828125 -2.03125 0.828125zm-0.015625 -0.796875q1.890625 0 1.890625 -2.359375q0 -1.140625 -0.4375 -1.734375q-0.4375 -0.59375 -1.453125 -0.59375q-1.875 0 -1.875 2.328125q0 2.359375 1.875 2.359375zm9.296814 -7.90625l0 7.484375q0 0.609375 -0.78125 0.921875q-0.78125 0.296875 -1.6875 0.296875q-1.109375 0 -1.921875 -0.71875q-0.8125 -0.71875 -0.828125 -2.546875q0 -1.40625 0.6875 -2.203125q0.703125 -0.796875 2.046875 -0.796875q0.3125 0 0.765625 0.109375q0.46875 0.09375 0.84375 0.234375l0 -2.78125l0.875 0zm-0.875 3.640625q-0.359375 -0.203125 -0.78125 -0.3125q-0.421875 -0.109375 -0.828125 -0.109375q-0.9375 0 -1.375 0.59375q-0.4375 0.59375 -0.4375 1.625q0 1.140625 0.40625 1.8125q0.40625 0.65625 1.46875 0.65625q0.640625 0 1.09375 -0.140625q0.453125 -0.15625 0.453125 -0.359375l0 -3.765625zm5.296814 5.0625q-1.203125 0 -1.859375 -0.625q-0.65625 -0.625 -0.65625 -1.765625l0 -3.78125l0.875 0l0 3.59375q0 0.921875 0.390625 1.34375q0.390625 0.421875 1.25 0.421875q0.84375 0 1.234375 -0.421875q0.40625 -0.421875 0.40625 -1.34375l0 -3.59375l0.859375 0l0 3.78125q0 1.140625 -0.65625 1.765625q-0.640625 0.625 -1.84375 0.625zm4.42041 -0.1875l0 -8.265625l0.875 0l0 8.265625l-0.875 0zm5.1121216 -6.09375q1.375 0 2.0 0.890625q0.640625 0.890625 0.625 2.359375l-4.375 0q0 1.078125 0.5 1.65625q0.515625 0.578125 1.453125 0.578125q1.203125 0 2.046875 -0.515625l0 0.890625q-0.875 0.421875 -2.09375 0.421875q-1.3125 0 -2.046875 -0.8125q-0.734375 -0.8125 -0.734375 -2.375q0 -1.53125 0.6875 -2.3125q0.703125 -0.78125 1.9375 -0.78125zm0 0.796875q-0.78125 0 -1.1875 0.359375q-0.40625 0.359375 -0.515625 1.296875l3.40625 0q-0.046875 -0.828125 -0.46875 -1.234375q-0.40625 -0.421875 -1.234375 -0.421875zm12.637817 -3.21875l0 7.484375q0 0.609375 -0.78125 0.921875q-0.78125 0.296875 -1.6875 0.296875q-1.109375 0 -1.921875 -0.71875q-0.8125 -0.71875 -0.828125 -2.546875q0 -1.40625 0.6875 -2.203125q0.703125 -0.796875 2.046875 -0.796875q0.3125 0 0.765625 0.109375q0.46875 0.09375 0.84375 0.234375l0 -2.78125l0.875 0zm-0.875 3.640625q-0.359375 -0.203125 -0.78125 -0.3125q-0.421875 -0.109375 -0.828125 -0.109375q-0.9375 0 -1.375 0.59375q-0.4375 0.59375 -0.4375 1.625q0 1.140625 0.40625 1.8125q0.40625 0.65625 1.46875 0.65625q0.640625 0 1.09375 -0.140625q0.453125 -0.15625 0.453125 -0.359375l0 -3.765625zm5.109314 -1.21875q1.375 0 2.0 0.890625q0.640625 0.890625 0.625 2.359375l-4.375 0q0 1.078125 0.5 1.65625q0.515625 0.578125 1.453125 0.578125q1.203125 0 2.046875 -0.515625l0 0.890625q-0.875 0.421875 -2.09375 0.421875q-1.3125 0 -2.046875 -0.8125q-0.734375 -0.8125 -0.734375 -2.375q0 -1.53125 0.6875 -2.3125q0.703125 -0.78125 1.9375 -0.78125zm0 0.796875q-0.78125 0 -1.1875 0.359375q-0.40625 0.359375 -0.515625 1.296875l3.40625 0q-0.046875 -0.828125 -0.46875 -1.234375q-0.40625 -0.421875 -1.234375 -0.421875zm6.673401 -0.796875q1.1875 0 1.984375 0.78125q0.796875 0.765625 0.796875 2.46875q0 1.40625 -0.75 2.21875q-0.734375 0.796875 -2.109375 0.796875q-0.3125 0 -0.71875 -0.109375q-0.40625 -0.09375 -0.765625 -0.25l0 2.796875l-0.875 0l0 -7.515625q0 -0.65625 0.71875 -0.90625q0.734375 -0.265625 1.71875 -0.28125zm-0.078125 5.46875q0.953125 0 1.4375 -0.59375q0.5 -0.609375 0.5 -1.625q0 -1.125 -0.40625 -1.78125q-0.40625 -0.671875 -1.46875 -0.671875q-0.65625 0 -1.109375 0.15625q-0.4375 0.140625 -0.4375 0.390625l0 3.703125q0.71875 0.421875 1.484375 0.421875zm6.796814 -5.46875q1.375 0 2.0 0.890625q0.640625 0.890625 0.625 2.359375l-4.375 0q0 1.078125 0.5 1.65625q0.515625 0.578125 1.453125 0.578125q1.203125 0 2.046875 -0.515625l0 0.890625q-0.875 0.421875 -2.09375 0.421875q-1.3125 0 -2.046875 -0.8125q-0.734375 -0.8125 -0.734375 -2.375q0 -1.53125 0.6875 -2.3125q0.703125 -0.78125 1.9375 -0.78125zm0 0.796875q-0.78125 0 -1.1875 0.359375q-0.40625 0.359375 -0.515625 1.296875l3.40625 0q-0.046875 -0.828125 -0.46875 -1.234375q-0.40625 -0.421875 -1.234375 -0.421875zm4.235901 -0.21875q1.171875 -0.578125 2.53125 -0.578125q1.265625 0 1.828125 0.5625q0.5625 0.546875 0.5625 1.625l0 3.90625l-0.875 0l0 -3.90625q0 -1.40625 -1.609375 -1.40625q-0.734375 0 -1.5625 0.234375l0 5.078125l-0.875 0l0 -5.515625zm11.749939 -3.0l0 7.484375q0 0.609375 -0.78125 0.921875q-0.78125 0.296875 -1.6875 0.296875q-1.109375 0 -1.921875 -0.71875q-0.8125 -0.71875 -0.828125 -2.546875q0 -1.40625 0.6875 -2.203125q0.703125 -0.796875 2.046875 -0.796875q0.3125 0 0.765625 0.109375q0.46875 0.09375 0.84375 0.234375l0 -2.78125l0.875 0zm-0.875 3.640625q-0.359375 -0.203125 -0.78125 -0.3125q-0.421875 -0.109375 -0.828125 -0.109375q-0.9375 0 -1.375 0.59375q-0.4375 0.59375 -0.4375 1.625q0 1.140625 0.40625 1.8125q0.40625 0.65625 1.46875 0.65625q0.640625 0 1.09375 -0.140625q0.453125 -0.15625 0.453125 -0.359375l0 -3.765625zm4.484314 5.0625q-0.609375 0 -1.046875 -0.125q-0.4375 -0.125 -0.953125 -0.390625l0 -0.90625q0.609375 0.34375 1.0 0.484375q0.390625 0.140625 0.9375 0.140625q0.59375 0 0.96875 -0.265625q0.390625 -0.265625 0.390625 -0.6875q0 -0.375 -0.234375 -0.546875q-0.234375 -0.1875 -0.71875 -0.390625l-0.3125 -0.125q-0.6875 -0.1875 -1.0625 -0.34375q-0.375 -0.15625 -0.65625 -0.484375q-0.28125 -0.34375 -0.28125 -0.921875q0 -0.578125 0.296875 -0.953125q0.296875 -0.390625 0.78125 -0.578125q0.484375 -0.1875 1.0 -0.1875q0.484375 0 0.8125 0.109375q0.328125 0.109375 0.90625 0.359375l0 0.859375q-0.59375 -0.296875 -0.921875 -0.40625q-0.3125 -0.125 -0.75 -0.125q-0.515625 0 -0.890625 0.203125q-0.375 0.203125 -0.375 0.59375q0 0.3125 0.1875 0.515625q0.1875 0.1875 0.46875 0.3125q0.28125 0.109375 0.765625 0.234375q0.59375 0.203125 0.9375 0.359375q0.359375 0.15625 0.625 0.5q0.28125 0.328125 0.28125 0.90625q0 0.609375 -0.3125 1.03125q-0.3125 0.40625 -0.8125 0.625q-0.5 0.203125 -1.03125 0.203125zm9.717712 0q-1.375 0 -2.078125 -0.8125q-0.6875 -0.828125 -0.6875 -2.34375q0 -1.5625 0.703125 -2.34375q0.703125 -0.78125 2.03125 -0.78125q1.40625 0 2.09375 0.84375q0.6875 0.828125 0.6875 2.28125q0 1.484375 -0.71875 2.328125q-0.71875 0.828125 -2.03125 0.828125zm-0.015625 -0.796875q1.890625 0 1.890625 -2.359375q0 -1.140625 -0.4375 -1.734375q-0.4375 -0.59375 -1.453125 -0.59375q-1.875 0 -1.875 2.328125q0 2.359375 1.875 2.359375zm4.374878 -4.90625q1.171875 -0.578125 2.53125 -0.578125q1.265625 0 1.828125 0.5625q0.5625 0.546875 0.5625 1.625l0 3.90625l-0.875 0l0 -3.90625q0 -1.40625 -1.609375 -1.40625q-0.734375 0 -1.5625 0.234375l0 5.078125l-0.875 0l0 -5.515625zm12.19873 5.609375q-0.65625 0 -1.078125 -0.390625q-0.421875 -0.40625 -0.421875 -1.15625l0 -3.75l-1.046875 0l0 -0.78125l1.046875 0l0 -1.703125l0.859375 0l0 1.703125l1.546875 0l0 0.78125l-1.546875 0l0 3.46875q0 0.53125 0.171875 0.78125q0.171875 0.234375 0.625 0.234375q0.4375 0 0.75 -0.140625l0 0.8125q-0.15625 0.0625 -0.421875 0.09375q-0.25 0.046875 -0.484375 0.046875zm5.152893 -6.1875q1.125 0 1.703125 0.625q0.59375 0.625 0.59375 1.921875l0 3.546875l-0.859375 0l0 -3.546875q0 -0.84375 -0.390625 -1.296875q-0.390625 -0.453125 -1.140625 -0.453125q-0.84375 0 -1.71875 0.46875l0 4.828125l-0.875 0l0 -8.640625l0.875 0l0 3.046875q0.4375 -0.234375 0.90625 -0.359375q0.484375 -0.140625 0.90625 -0.140625zm4.2125854 -1.90625l0.96875 0l0 0.9375l-0.96875 0l0 -0.9375zm0.0625 2.015625l0.859375 0l0 5.984375l-0.859375 0l0 -5.984375zm4.52063 6.171875q-0.609375 0 -1.046875 -0.125q-0.4375 -0.125 -0.953125 -0.390625l0 -0.90625q0.609375 0.34375 1.0 0.484375q0.390625 0.140625 0.9375 0.140625q0.59375 0 0.96875 -0.265625q0.390625 -0.265625 0.390625 -0.6875q0 -0.375 -0.234375 -0.546875q-0.234375 -0.1875 -0.71875 -0.390625l-0.3125 -0.125q-0.6875 -0.1875 -1.0625 -0.34375q-0.375 -0.15625 -0.65625 -0.484375q-0.28125 -0.34375 -0.28125 -0.921875q0 -0.578125 0.296875 -0.953125q0.296875 -0.390625 0.78125 -0.578125q0.484375 -0.1875 1.0 -0.1875q0.484375 0 0.8125 0.109375q0.328125 0.109375 0.90625 0.359375l0 0.859375q-0.59375 -0.296875 -0.921875 -0.40625q-0.3125 -0.125 -0.75 -0.125q-0.515625 0 -0.890625 0.203125q-0.375 0.203125 -0.375 0.59375q0 0.3125 0.1875 0.515625q0.1875 0.1875 0.46875 0.3125q0.28125 0.109375 0.765625 0.234375q0.59375 0.203125 0.9375 0.359375q0.359375 0.15625 0.625 0.5q0.28125 0.328125 0.28125 0.90625q0 0.609375 -0.3125 1.03125q-0.3125 0.40625 -0.8125 0.625q-0.5 0.203125 -1.03125 0.203125zm3.597046 1.171875q0.453125 -0.765625 0.921875 -2.078125q0.46875 -1.328125 0.46875 -2.953125q0 -1.625 -0.484375 -2.953125q-0.46875 -1.34375 -0.90625 -2.0625l0.921875 0q0.5 0.90625 0.90625 2.203125q0.421875 1.28125 0.421875 2.8125q0 1.53125 -0.421875 2.828125q-0.40625 1.28125 -0.90625 2.203125l-0.921875 0z" fill-rule="nonzero"/><path fill="#000000" fill-opacity="0.0" d="m586.56 225.47417l96.502014 0l0 0.15748596l96.50586 0" fill-rule="evenodd"/><path stroke="#999999" stroke-width="1.0" stroke-linejoin="round" stroke-linecap="butt" stroke-dasharray="1.0,3.0" d="m586.56 225.47417l96.502014 0l0 0.1574707l90.50592 0" fill-rule="evenodd"/><path stroke="#999999" stroke-width="1.0" stroke-linecap="butt" d="m773.56793 227.28337l4.538086 -1.6517334l-4.538086 -1.6517334z" fill-rule="evenodd"/><path fill="#000000" fill-opacity="0.0" d="m130.59996 105.5694l144.00002 0l0 48.0l-144.00002 0z" fill-rule="evenodd"/><path stroke="#0000ff" stroke-width="1.0" stroke-linejoin="round" stroke-linecap="butt" d="m130.59996 105.5694l144.00002 0l0 48.0l-144.00002 0z" fill-rule="evenodd"/><path fill="#0000ff" d="m158.74437 125.31752l-4.40625 0l0 -1.265625l10.125 0l0 1.265625l-4.375 0l0 11.171875l-1.34375 0l0 -11.171875zm8.439102 3.09375l-1.59375 0l0 -1.234375l1.59375 0l0 -0.5q0 -1.546875 0.546875 -2.296875q0.546875 -0.765625 1.171875 -0.9375q0.625 -0.1875 1.296875 -0.1875q0.5 0 0.890625 0.125l0 1.1875q-0.375 -0.078125 -0.671875 -0.078125q-0.59375 0 -0.96875 0.125q-0.375 0.109375 -0.65625 0.578125q-0.265625 0.453125 -0.265625 1.46875l0 0.515625l2.5625 0l0 1.234375l-2.5625 0l0 8.078125l-1.34375 0l0 -8.078125zm6.2304688 -4.359375l1.34375 0l0 11.125l6.375 0l0 1.3125l-7.71875 0l0 -12.4375zm16.663467 5.78125q0.875 0.390625 1.484375 1.15625q0.625 0.75 0.625 1.96875q0 1.8125 -1.171875 2.671875q-1.171875 0.859375 -3.34375 0.859375l-4.5 0l0 -12.4375l4.125 0q4.140625 0 4.140625 3.328125q0 0.90625 -0.296875 1.359375q-0.296875 0.453125 -0.640625 0.734375q-0.328125 0.28125 -0.421875 0.359375zm-5.5625 -0.390625l3.078125 0q1.140625 0 1.8125 -0.390625q0.6875 -0.390625 0.6875 -1.578125q0 -1.203125 -0.65625 -1.671875q-0.65625 -0.46875 -2.0 -0.46875l-2.921875 0l0 4.109375zm3.265625 5.796875q1.421875 0 2.234375 -0.484375q0.828125 -0.5 0.828125 -1.859375q0 -1.34375 -0.84375 -1.765625q-0.84375 -0.421875 -2.265625 -0.421875l-3.21875 0l0 4.53125l3.265625 0zm10.9192505 1.53125q-1.859375 0 -2.875 -0.953125q-1.015625 -0.96875 -1.015625 -2.75l0 -5.890625l1.328125 0l0 5.59375q0 1.421875 0.609375 2.09375q0.625 0.65625 1.953125 0.65625q1.3125 0 1.9375 -0.65625q0.625 -0.671875 0.625 -2.09375l0 -5.59375l1.34375 0l0 5.890625q0 1.78125 -1.03125 2.75q-1.015625 0.953125 -2.875 0.953125zm9.517685 0q-0.953125 0 -1.625 -0.1875q-0.671875 -0.1875 -1.46875 -0.59375l0 -1.421875q0.953125 0.546875 1.546875 0.765625q0.609375 0.203125 1.453125 0.203125q0.9375 0 1.515625 -0.40625q0.59375 -0.40625 0.59375 -1.0625q0 -0.578125 -0.359375 -0.859375q-0.359375 -0.296875 -1.109375 -0.59375l-0.5 -0.203125q-1.0625 -0.3125 -1.65625 -0.546875q-0.578125 -0.25 -1.015625 -0.765625q-0.4375 -0.515625 -0.4375 -1.421875q0 -0.890625 0.46875 -1.484375q0.46875 -0.609375 1.203125 -0.890625q0.75 -0.296875 1.578125 -0.296875q0.75 0 1.25 0.171875q0.515625 0.171875 1.421875 0.5625l0 1.34375q-0.9375 -0.46875 -1.4375 -0.65625q-0.484375 -0.1875 -1.15625 -0.1875q-0.828125 0 -1.40625 0.328125q-0.578125 0.328125 -0.578125 0.921875q0 0.484375 0.28125 0.796875q0.296875 0.3125 0.734375 0.484375q0.4375 0.171875 1.1875 0.390625q0.9375 0.296875 1.484375 0.546875q0.546875 0.234375 0.96875 0.765625q0.421875 0.53125 0.421875 1.421875q0 0.953125 -0.484375 1.59375q-0.484375 0.640625 -1.265625 0.96875q-0.765625 0.3125 -1.609375 0.3125zm18.480057 -4.15625l-5.359375 0l-1.5 3.875l-1.453125 0l4.953125 -12.4375l1.34375 0l4.953125 12.4375l-1.4375 0l-1.5 -3.875zm-0.5 -1.296875l-2.1875 -5.6875l-2.171875 5.6875l4.359375 0zm9.074097 -4.3125q1.859375 0 3.09375 1.203125q1.234375 1.203125 1.234375 3.859375q0 2.1875 -1.15625 3.4375q-1.15625 1.25 -3.28125 1.25q-0.484375 0 -1.125 -0.15625q-0.640625 -0.140625 -1.203125 -0.390625l0 4.328125l-1.328125 0l0 -11.671875q0 -1.03125 1.125 -1.421875q1.125 -0.40625 2.640625 -0.4375zm-0.109375 8.515625q1.46875 0 2.234375 -0.921875q0.78125 -0.9375 0.78125 -2.53125q0 -1.75 -0.640625 -2.78125q-0.625 -1.046875 -2.28125 -1.046875q-1.015625 0 -1.71875 0.234375q-0.703125 0.234375 -0.703125 0.625l0 5.765625q1.125 0.65625 2.328125 0.65625zm10.724777 -8.515625q1.859375 0 3.09375 1.203125q1.234375 1.203125 1.234375 3.859375q0 2.1875 -1.15625 3.4375q-1.15625 1.25 -3.28125 1.25q-0.484375 0 -1.125 -0.15625q-0.640625 -0.140625 -1.203125 -0.390625l0 4.328125l-1.328125 0l0 -11.671875q0 -1.03125 1.125 -1.421875q1.125 -0.40625 2.640625 -0.4375zm-0.109375 8.515625q1.46875 0 2.234375 -0.921875q0.78125 -0.9375 0.78125 -2.53125q0 -1.75 -0.640625 -2.78125q-0.625 -1.046875 -2.28125 -1.046875q-1.015625 0 -1.71875 0.234375q-0.703125 0.234375 -0.703125 0.625l0 5.765625q1.125 0.65625 2.328125 0.65625z" fill-rule="nonzero"/><path fill="#000000" fill-opacity="0.0" d="m202.59996 153.5694l0 23.98233l-96.0 0l0 23.986176" fill-rule="evenodd"/><path stroke="#666666" stroke-width="1.0" stroke-linejoin="round" stroke-linecap="butt" d="m202.59996 153.5694l0 23.98233l-96.0 0l0 17.98616" fill-rule="evenodd"/><path fill="#666666" stroke="#666666" stroke-width="1.0" stroke-linecap="butt" d="m104.94823 195.53789l1.6517334 4.538101l1.6517334 -4.538101z" fill-rule="evenodd"/><path fill="#000000" fill-opacity="0.0" d="m280.42664 9.670866l144.0 0l0 48.0l-144.0 0z" fill-rule="evenodd"/><path stroke="#6aa84f" stroke-width="1.0" stroke-linejoin="round" stroke-linecap="butt" d="m280.42664 9.670866l144.0 0l0 48.0l-144.0 0z" fill-rule="evenodd"/><path fill="#6aa84f" d="m338.82428 40.778366q-2.3125 0 -3.59375 -1.359375q-1.28125 -1.359375 -1.28125 -3.90625l0 -7.359377l1.34375 0l0 7.437502q0 3.921875 3.53125 3.921875q3.5625 0 3.5625 -3.921875l0 -7.437502l1.3125 0l0 7.359377q0 2.546875 -1.28125 3.90625q-1.28125 1.359375 -3.59375 1.359375zm8.035126 -12.625002l1.34375 0l0 12.437502l-1.34375 0l0 -12.437502zm7.2023315 6.828127l-1.34375 1.46875l0 4.140625l-1.34375 0l0 -12.437502l1.34375 0l0 6.546877l5.90625 -6.546877l1.71875 0l-5.34375 5.812502l5.765625 6.625l-1.859375 0l-4.84375 -5.609375zm8.670654 -6.828127l1.484375 0l0 1.46875l-1.484375 0l0 -1.46875zm0.0625 3.125l1.34375 0l0 9.312502l-1.34375 0l0 -9.312502zm7.3368835 9.468752q-1.03125 0 -1.6875 -0.625q-0.640625 -0.625 -0.640625 -1.78125l0 -5.828125l-1.625 0l0 -1.2343769l1.625 0l0 -2.625l1.34375 0l0 2.625l2.40625 0l0 1.2343769l-2.40625 0l0 5.390625q0 0.828125 0.25 1.203125q0.265625 0.359375 0.984375 0.359375q0.6875 0 1.171875 -0.21875l0 1.265625q-0.265625 0.09375 -0.671875 0.15625q-0.390625 0.078125 -0.75 0.078125z" fill-rule="nonzero"/><path fill="#000000" fill-opacity="0.0" d="m202.59996 105.5694l0 -23.949402l149.82677 0l0 -23.956112" fill-rule="evenodd"/><path stroke="#999999" stroke-width="1.0" stroke-linejoin="round" stroke-linecap="butt" stroke-dasharray="1.0,3.0" d="m202.59996 105.5694l0 -23.949402l149.82677 0l0 -17.956112" fill-rule="evenodd"/><path stroke="#999999" stroke-width="1.0" stroke-linecap="butt" d="m354.07846 63.663883l-1.6517334 -4.5380974l-1.6517334 4.5380974z" fill-rule="evenodd"/><path fill="#000000" fill-opacity="0.0" d="m502.56 153.57333l0 47.905518" fill-rule="evenodd"/><path stroke="#666666" stroke-width="1.0" stroke-linejoin="round" stroke-linecap="butt" d="m502.56 153.57333l0 41.905502" fill-rule="evenodd"/><path fill="#666666" stroke="#666666" stroke-width="1.0" stroke-linecap="butt" d="m500.90826 195.47884l1.6517334 4.538101l1.6517334 -4.538101z" fill-rule="evenodd"/><path fill="#000000" fill-opacity="0.0" d="m418.56 105.57333l168.0 0l0 48.0l-168.0 0z" fill-rule="evenodd"/><path stroke="#0000ff" stroke-width="1.0" stroke-linejoin="round" stroke-linecap="butt" d="m418.56 105.57333l168.0 0l0 48.0l-168.0 0z" fill-rule="evenodd"/><path fill="#0000ff" d="m489.84738 124.05583l-4.0 12.4375l-1.359375 0l-3.265625 -10.3125l-3.265625 10.3125l-1.390625 0l-3.984375 -12.4375l1.421875 0l3.359375 10.609375l3.1875 -10.609375l1.34375 0l3.234375 10.609375l3.3125 -10.609375l1.40625 0zm1.9741211 0l1.484375 0l0 1.46875l-1.484375 0l0 -1.46875zm0.0625 3.125l1.34375 0l0 9.3125l-1.34375 0l0 -9.3125zm12.040009 -3.9375l0 11.640625q0 0.953125 -1.203125 1.421875q-1.203125 0.46875 -2.625 0.46875q-1.71875 0 -2.984375 -1.109375q-1.265625 -1.109375 -1.28125 -3.953125q0 -2.203125 1.0625 -3.4375q1.078125 -1.234375 3.1875 -1.234375q0.484375 0 1.203125 0.15625q0.71875 0.15625 1.296875 0.375l0 -4.328125l1.34375 0zm-1.34375 5.671875q-0.5625 -0.3125 -1.234375 -0.484375q-0.65625 -0.171875 -1.265625 -0.171875q-1.453125 0 -2.15625 0.9375q-0.6875 0.921875 -0.6875 2.515625q0 1.765625 0.640625 2.796875q0.640625 1.03125 2.296875 1.03125q0.984375 0 1.6875 -0.21875q0.71875 -0.234375 0.71875 -0.5625l0 -5.84375zm8.3966675 -1.875q1.484375 0 2.515625 0.5625q1.046875 0.5625 1.046875 1.75l0 7.53125q0 1.375 -0.90625 2.328125q-0.890625 0.96875 -3.140625 0.96875q-0.640625 0 -1.1875 -0.109375q-0.546875 -0.09375 -0.953125 -0.203125q-0.40625 -0.09375 -0.515625 -0.109375l0 -1.265625q0.734375 0.203125 1.28125 0.3125q0.546875 0.109375 1.21875 0.109375q1.703125 0 2.28125 -0.5625q0.578125 -0.546875 0.578125 -1.4375l0 -0.6875q-0.578125 0.234375 -1.296875 0.390625q-0.71875 0.15625 -1.203125 0.15625q-2.109375 0 -3.1875 -1.234375q-1.0625 -1.25 -1.0625 -3.453125q0.015625 -2.84375 1.3125 -3.9375q1.3125 -1.109375 3.21875 -1.109375zm-3.125 5.046875q0 1.609375 0.6875 2.53125q0.703125 0.921875 2.15625 0.921875q0.609375 0 1.265625 -0.15625q0.671875 -0.171875 1.234375 -0.5l0 -5.34375q0 -0.734375 -0.578125 -1.0q-0.5625 -0.28125 -1.53125 -0.28125q-1.859375 0 -2.546875 1.03125q-0.6875 1.03125 -0.6875 2.796875zm13.2872925 -5.078125q2.125 0 3.109375 1.390625q1.0 1.375 0.953125 3.671875l-6.78125 0q0 1.671875 0.78125 2.578125q0.78125 0.890625 2.234375 0.890625q1.875 0 3.1875 -0.796875l0 1.375q-1.359375 0.65625 -3.265625 0.65625q-2.03125 0 -3.171875 -1.25q-1.125 -1.265625 -1.125 -3.703125q0 -2.359375 1.0625 -3.578125q1.078125 -1.234375 3.015625 -1.234375zm0 1.234375q-1.234375 0 -1.875 0.578125q-0.625 0.5625 -0.796875 2.015625l5.328125 0q-0.09375 -1.296875 -0.75 -1.9375q-0.640625 -0.65625 -1.90625 -0.65625zm9.517456 8.40625q-1.03125 0 -1.6875 -0.625q-0.640625 -0.625 -0.640625 -1.78125l0 -5.828125l-1.625 0l0 -1.234375l1.625 0l0 -2.625l1.34375 0l0 2.625l2.40625 0l0 1.234375l-2.40625 0l0 5.390625q0 0.828125 0.25 1.203125q0.265625 0.359375 0.984375 0.359375q0.6875 0 1.171875 -0.21875l0 1.265625q-0.265625 0.09375 -0.671875 0.15625q-0.390625 0.078125 -0.75 0.078125z" fill-rule="nonzero"/><path fill="#000000" fill-opacity="0.0" d="m502.56 105.57333l0 -23.951317l-150.14172 0l0 -23.954197" fill-rule="evenodd"/><path stroke="#999999" stroke-width="1.0" stroke-linejoin="round" stroke-linecap="butt" stroke-dasharray="1.0,3.0" d="m502.56 105.57333l0 -23.951317l-150.14172 0l0 -17.954197" fill-rule="evenodd"/><path stroke="#999999" stroke-width="1.0" stroke-linecap="butt" d="m354.07 63.66782l-1.6517334 -4.5380974l-1.6517334 4.5380974z" fill-rule="evenodd"/><path fill="#000000" fill-opacity="0.0" d="m586.56 129.57333l25.00061 0l0 287.81104l-228.93762 0" fill-rule="evenodd"/><path stroke="#666666" stroke-width="1.0" stroke-linejoin="round" stroke-linecap="butt" stroke-dasharray="4.0,3.0" d="m586.56 129.57333l25.000671 0l0 287.811l-222.93768 0" fill-rule="evenodd"/><path fill="#666666" stroke="#666666" stroke-width="1.0" stroke-linecap="butt" d="m388.623 415.7326l-4.538086 1.6517334l4.538086 1.6517334z" fill-rule="evenodd"/><path fill="#000000" fill-opacity="0.0" d="m130.59996 129.5694l-119.69698 0l0 287.81104l203.72847 0" fill-rule="evenodd"/><path stroke="#666666" stroke-width="1.0" stroke-linejoin="round" stroke-linecap="butt" stroke-dasharray="4.0,3.0" d="m130.59996 129.5694l-119.69698 0l0 287.811l197.72847 0" fill-rule="evenodd"/><path fill="#666666" stroke="#666666" stroke-width="1.0" stroke-linecap="butt" d="m208.63145 419.03214l4.538101 -1.6517334l-4.538101 -1.6517334z" fill-rule="evenodd"/><path fill="#000000" fill-opacity="0.0" d="m130.59996 129.5694l-119.6971 0l0 191.81104l203.6656 0" fill-rule="evenodd"/><path stroke="#666666" stroke-width="1.0" stroke-linejoin="round" stroke-linecap="butt" stroke-dasharray="4.0,3.0" d="m130.59996 129.5694l-119.6971 0l0 191.811l197.6656 0" fill-rule="evenodd"/><path fill="#666666" stroke="#666666" stroke-width="1.0" stroke-linecap="butt" d="m208.56847 323.03214l4.538101 -1.6517334l-4.538101 -1.6517334z" fill-rule="evenodd"/><path fill="#000000" fill-opacity="0.0" d="m586.56 129.57333l25.000427 0l0 191.81104l-228.96893 0" fill-rule="evenodd"/><path stroke="#666666" stroke-width="1.0" stroke-linejoin="round" stroke-linecap="butt" stroke-dasharray="4.0,3.0" d="m586.56 129.57333l25.000427 0l0 191.811l-222.96893 0" fill-rule="evenodd"/><path fill="#666666" stroke="#666666" stroke-width="1.0" stroke-linecap="butt" d="m388.5915 319.7326l-4.538086 1.6517334l4.538086 1.6517334z" fill-rule="evenodd"/><path fill="#000000" fill-opacity="0.0" d="m34.59996 201.53427l144.0 0l0 48.0l-144.0 0z" fill-rule="evenodd"/><path stroke="#cc0000" stroke-width="1.0" stroke-linejoin="round" stroke-linecap="butt" d="m34.59996 201.53427l144.0 0l0 48.0l-144.0 0z" fill-rule="evenodd"/><path fill="#cc0000" d="m63.73436 228.57927l-5.359375 0l-1.5 3.875l-1.453125 0l4.953125 -12.4375l1.34375 0l4.953125 12.4375l-1.4375 0l-1.5 -3.875zm-0.5 -1.296875l-2.1875 -5.6875l-2.171875 5.6875l4.359375 0zm9.074097 -4.3125q1.859375 0 3.09375 1.203125q1.234375 1.203125 1.234375 3.859375q0 2.1875 -1.15625 3.4375q-1.15625 1.25 -3.28125 1.25q-0.484375 0 -1.125 -0.15625q-0.640625 -0.140625 -1.203125 -0.390625l0 4.328125l-1.328125 0l0 -11.671875q0 -1.03125 1.125 -1.421875q1.125 -0.40625 2.640625 -0.4375zm-0.109375 8.515625q1.46875 0 2.234375 -0.921875q0.78125 -0.9375 0.78125 -2.53125q0 -1.75 -0.640625 -2.78125q-0.625 -1.046875 -2.28125 -1.046875q-1.015625 0 -1.71875 0.234375q-0.703125 0.234375 -0.703125 0.625l0 5.765625q1.125 0.65625 2.328125 0.65625zm10.724777 -8.515625q1.859375 0 3.09375 1.203125q1.234375 1.203125 1.234375 3.859375q0 2.1875 -1.15625 3.4375q-1.15625 1.25 -3.28125 1.25q-0.484375 0 -1.125 -0.15625q-0.640625 -0.140625 -1.203125 -0.390625l0 4.328125l-1.328125 0l0 -11.671875q0 -1.03125 1.125 -1.421875q1.125 -0.40625 2.640625 -0.4375zm-0.109375 8.515625q1.46875 0 2.234375 -0.921875q0.78125 -0.9375 0.78125 -2.53125q0 -1.75 -0.640625 -2.78125q-0.625 -1.046875 -2.28125 -1.046875q-1.015625 0 -1.71875 0.234375q-0.703125 0.234375 -0.703125 0.625l0 5.765625q1.125 0.65625 2.328125 0.65625zm7.037277 -11.46875l7.640625 0l0 1.265625l-6.296875 0l0 4.28125l5.53125 0l0 1.3125l-5.53125 0l0 5.578125l-1.34375 0l0 -12.4375zm13.120316 2.953125q2.125 0 3.109375 1.390625q1.0 1.375 0.953125 3.671875l-6.78125 0q0 1.671875 0.78125 2.578125q0.78125 0.890625 2.234375 0.890625q1.875 0 3.1875 -0.796875l0 1.375q-1.359375 0.65625 -3.265625 0.65625q-2.03125 0 -3.171875 -1.25q-1.125 -1.265625 -1.125 -3.703125q0 -2.359375 1.0625 -3.578125q1.078125 -1.234375 3.015625 -1.234375zm0 1.234375q-1.234375 0 -1.875 0.578125q-0.625 0.5625 -0.796875 2.015625l5.328125 0q-0.09375 -1.296875 -0.75 -1.9375q-0.640625 -0.65625 -1.90625 -0.65625zm10.564346 -1.234375q1.5625 0 2.46875 0.765625q0.90625 0.765625 0.90625 2.21875l0 4.515625q0 1.34375 -1.109375 1.8125q-1.09375 0.453125 -3.03125 0.453125q-1.46875 0 -2.53125 -0.65625q-1.046875 -0.65625 -1.046875 -2.1875q0 -1.65625 0.90625 -2.40625q0.921875 -0.765625 2.515625 -0.765625q1.8125 0 2.9375 0.65625l0 -1.09375q0 -2.09375 -2.453125 -2.09375q-0.796875 0 -1.625 0.234375q-0.8125 0.21875 -1.375 0.65625l0 -1.34375q0.5625 -0.34375 1.515625 -0.546875q0.96875 -0.21875 1.921875 -0.21875zm-0.453125 8.5625q1.3125 0 1.890625 -0.1875q0.578125 -0.203125 0.578125 -0.796875l0 -2.09375q-0.5 -0.234375 -1.171875 -0.375q-0.671875 -0.140625 -1.40625 -0.140625q-1.171875 0 -1.8125 0.453125q-0.625 0.4375 -0.625 1.296875q0 0.96875 0.734375 1.40625q0.75 0.4375 1.8125 0.4375zm9.741821 1.078125q-1.03125 0 -1.6875 -0.625q-0.640625 -0.625 -0.640625 -1.78125l0 -5.828125l-1.625 0l0 -1.234375l1.625 0l0 -2.625l1.34375 0l0 2.625l2.40625 0l0 1.234375l-2.40625 0l0 5.390625q0 0.828125 0.25 1.203125q0.265625 0.359375 0.984375 0.359375q0.6875 0 1.171875 -0.21875l0 1.265625q-0.265625 0.09375 -0.671875 0.15625q-0.390625 0.078125 -0.75 0.078125zm7.740967 0.125q-1.859375 0 -2.875 -0.953125q-1.015625 -0.96875 -1.015625 -2.75l0 -5.890625l1.328125 0l0 5.59375q0 1.421875 0.609375 2.09375q0.625 0.65625 1.953125 0.65625q1.3125 0 1.9375 -0.65625q0.625 -0.671875 0.625 -2.09375l0 -5.59375l1.34375 0l0 5.890625q0 1.78125 -1.03125 2.75q-1.015625 0.953125 -2.875 0.953125zm6.892685 -8.84375q0.703125 -0.296875 1.859375 -0.609375q1.171875 -0.3125 2.421875 -0.3125q0.1875 0 0.59375 0.125l0 1.1875q-0.4375 -0.0625 -0.890625 -0.0625q-0.609375 0 -1.140625 0.078125q-0.515625 0.078125 -1.515625 0.25l0 7.90625l-1.328125 0l0 -8.5625zm9.989441 -0.921875q2.125 0 3.109375 1.390625q1.0 1.375 0.953125 3.671875l-6.78125 0q0 1.671875 0.78125 2.578125q0.78125 0.890625 2.234375 0.890625q1.875 0 3.1875 -0.796875l0 1.375q-1.359375 0.65625 -3.265625 0.65625q-2.03125 0 -3.171875 -1.25q-1.125 -1.265625 -1.125 -3.703125q0 -2.359375 1.0625 -3.578125q1.078125 -1.234375 3.015625 -1.234375zm0 1.234375q-1.234375 0 -1.875 0.578125q-0.625 0.5625 -0.796875 2.015625l5.328125 0q-0.09375 -1.296875 -0.75 -1.9375q-0.640625 -0.65625 -1.90625 -0.65625z" fill-rule="nonzero"/><path fill="#cc0000" d="m155.48131 232.0949l-1.65625 1.09375l0 -1.0625l1.53125 -0.96875l1.015625 0l0 8.296875l-0.890625 0l0 -7.359375z" fill-rule="nonzero"/><path fill="#000000" fill-opacity="0.0" d="m586.56 225.47417l121.00787 0l0 71.842514" fill-rule="evenodd"/><path stroke="#666666" stroke-width="1.0" stroke-linejoin="round" stroke-linecap="butt" d="m586.56 225.47417l121.007935 0l0 65.842514" fill-rule="evenodd"/><path fill="#666666" stroke="#666666" stroke-width="1.0" stroke-linecap="butt" d="m705.9162 291.31668l1.6517334 4.538086l1.6517334 -4.538086z" fill-rule="evenodd"/><path fill="#000000" fill-opacity="0.0" d="m298.5841 297.3873l0 -23.956604l203.9685 0l0 -23.948914" fill-rule="evenodd"/><path stroke="#666666" stroke-width="1.0" stroke-linejoin="round" stroke-linecap="butt" d="m298.5841 297.3873l0 -23.956573l203.9685 0l0 -17.948929" fill-rule="evenodd"/><path fill="#666666" stroke="#666666" stroke-width="1.0" stroke-linecap="butt" d="m504.20435 255.4818l-1.6517334 -4.538101l-1.6517334 4.538101z" fill-rule="evenodd"/><path fill="#000000" fill-opacity="0.0" d="m298.5841 297.3873l0 -23.926514l-191.9685 0l0 -23.916016" fill-rule="evenodd"/><path stroke="#666666" stroke-width="1.0" stroke-linejoin="round" stroke-linecap="butt" d="m298.5841 297.3873l0 -23.926514l-191.9685 0l0 -17.916" fill-rule="evenodd"/><path fill="#666666" stroke="#666666" stroke-width="1.0" stroke-linecap="butt" d="m108.26734 255.54478l-1.6517334 -4.538101l-1.6517334 4.538101z" fill-rule="evenodd"/><path fill="#000000" fill-opacity="0.0" d="m274.59998 129.5694l143.96848 0" fill-rule="evenodd"/><path stroke="#666666" stroke-width="1.0" stroke-linejoin="round" stroke-linecap="butt" d="m274.59998 129.5694l137.96848 0" fill-rule="evenodd"/><path fill="#666666" stroke="#666666" stroke-width="1.0" stroke-linecap="butt" d="m412.56845 131.22113l4.538086 -1.6517334l-4.538086 -1.6517258z" fill-rule="evenodd"/><path fill="#000000" fill-opacity="0.0" d="m709.6982 27.813648l72.0 -0.12598419" fill-rule="evenodd"/><path stroke="#666666" stroke-width="1.0" stroke-linejoin="round" stroke-linecap="butt" d="m709.6982 27.813648l66.0 -0.115486145" fill-rule="evenodd"/><path fill="#666666" stroke="#666666" stroke-width="1.0" stroke-linecap="butt" d="m775.70105 29.349894l4.5352173 -1.6596718l-4.5409546 -1.6437893z" fill-rule="evenodd"/><path fill="#000000" fill-opacity="0.0" d="m709.69684 47.4147l72.0 -0.12598419" fill-rule="evenodd"/><path stroke="#666666" stroke-width="1.0" stroke-linejoin="round" stroke-linecap="butt" stroke-dasharray="4.0,3.0" d="m709.69684 47.4147l66.0 -0.115486145" fill-rule="evenodd"/><path fill="#666666" stroke="#666666" stroke-width="1.0" stroke-linecap="butt" d="m775.69977 48.950943l4.5351562 -1.6596718l-4.5409546 -1.6437874z" fill-rule="evenodd"/><path fill="#000000" fill-opacity="0.0" d="m709.6982 67.01575l72.0 -0.12598419" fill-rule="evenodd"/><path stroke="#999999" stroke-width="1.0" stroke-linejoin="round" stroke-linecap="butt" stroke-dasharray="1.0,3.0" d="m709.6982 67.01575l66.0 -0.115486145" fill-rule="evenodd"/><path stroke="#999999" stroke-width="1.0" stroke-linecap="butt" d="m775.70105 68.551994l4.5352173 -1.6596756l-4.5409546 -1.6437836z" fill-rule="evenodd"/><path fill="#000000" fill-opacity="0.0" d="m781.6982 18.254593l144.0 0l0 18.992126l-144.0 0z" fill-rule="evenodd"/><path fill="#434343" d="m793.97943 32.395657q-0.828125 0 -1.328125 -0.15625q-0.484375 -0.15625 -1.171875 -0.53125l0 -0.9375q0.4375 0.359375 1.078125 0.59375q0.65625 0.234375 1.46875 0.234375q0.875 0 1.296875 -0.375q0.4375 -0.375 0.4375 -1.0q0 -0.46875 -0.25 -0.765625q-0.25 -0.3125 -0.609375 -0.484375q-0.34375 -0.1875 -1.03125 -0.453125q-0.75 -0.25 -1.1875 -0.46875q-0.4375 -0.234375 -0.75 -0.671875q-0.3125 -0.453125 -0.3125 -1.1875q0 -0.484375 0.25 -0.953125q0.25 -0.46875 0.796875 -0.78125q0.546875 -0.3125 1.40625 -0.3125q0.640625 0 1.03125 0.125q0.40625 0.109375 1.0625 0.4375l0 0.890625q-0.078125 -0.046875 -0.453125 -0.25q-0.359375 -0.21875 -0.75 -0.3125q-0.390625 -0.09375 -0.84375 -0.09375q-0.828125 0 -1.234375 0.34375q-0.390625 0.34375 -0.390625 0.859375q0 0.46875 0.203125 0.75q0.21875 0.28125 0.5625 0.46875q0.359375 0.171875 1.015625 0.390625q0.734375 0.25 1.203125 0.5q0.484375 0.25 0.8125 0.703125q0.34375 0.453125 0.34375 1.171875q0 0.9375 -0.625 1.609375q-0.625 0.65625 -2.03125 0.65625zm6.800659 0.0625q-1.375 0 -2.078125 -0.8125q-0.6875 -0.828125 -0.6875 -2.34375q0 -1.5625 0.703125 -2.34375q0.703125 -0.78125 2.03125 -0.78125q1.40625 0 2.09375 0.84375q0.6875 0.828125 0.6875 2.28125q0 1.484375 -0.71875 2.328125q-0.71875 0.828125 -2.03125 0.828125zm-0.015625 -0.796875q1.890625 0 1.890625 -2.359375q0 -1.140625 -0.4375 -1.734375q-0.4375 -0.59375 -1.453125 -0.59375q-1.875 0 -1.875 2.328125q0 2.359375 1.875 2.359375zm6.890564 0.796875q-1.203125 0 -1.859375 -0.625q-0.65625 -0.625 -0.65625 -1.765625l0 -3.78125l0.875 0l0 3.59375q0 0.921875 0.390625 1.34375q0.390625 0.421875 1.25 0.421875q0.84375 0 1.234375 -0.421875q0.40625 -0.421875 0.40625 -1.34375l0 -3.59375l0.859375 0l0 3.78125q0 1.140625 -0.65625 1.765625q-0.640625 0.625 -1.84375 0.625zm4.42041 -5.703125q0.46875 -0.1875 1.21875 -0.375q0.75 -0.203125 1.546875 -0.203125q0.125 0 0.390625 0.0625l0 0.78125q-0.296875 -0.046875 -0.578125 -0.046875q-0.40625 0 -0.75 0.046875q-0.328125 0.046875 -0.953125 0.15625l0 5.09375l-0.875 0l0 -5.515625zm6.619629 5.609375q-1.1875 0 -2.0 -0.671875q-0.8125 -0.6875 -0.8125 -2.421875q0 -1.734375 0.8125 -2.40625q0.8125 -0.6875 2.0 -0.6875q0.90625 0 1.78125 0.328125l0 0.828125q-0.828125 -0.328125 -1.6875 -0.328125q-1.0625 0 -1.546875 0.546875q-0.484375 0.53125 -0.484375 1.71875q0 1.203125 0.484375 1.734375q0.484375 0.53125 1.546875 0.53125q0.90625 0 1.6875 -0.328125l0 0.828125q-0.84375 0.328125 -1.78125 0.328125zm5.7165527 -6.1875q1.375 0 2.0 0.890625q0.640625 0.890625 0.625 2.359375l-4.375 0q0 1.078125 0.5 1.65625q0.515625 0.578125 1.453125 0.578125q1.203125 0 2.046875 -0.515625l0 0.890625q-0.875 0.421875 -2.09375 0.421875q-1.3125 0 -2.046875 -0.8125q-0.734375 -0.8125 -0.734375 -2.375q0 -1.53125 0.6875 -2.3125q0.703125 -0.78125 1.9375 -0.78125zm0 0.796875q-0.78125 0 -1.1875 0.359375q-0.40625 0.359375 -0.515625 1.296875l3.40625 0q-0.046875 -0.828125 -0.46875 -1.234375q-0.40625 -0.421875 -1.234375 -0.421875zm12.637817 -3.21875l0 7.484375q0 0.609375 -0.78125 0.921875q-0.78125 0.296875 -1.6875 0.296875q-1.109375 0 -1.921875 -0.71875q-0.8125 -0.71875 -0.828125 -2.546875q0 -1.40625 0.6875 -2.203125q0.703125 -0.796875 2.046875 -0.796875q0.3125 0 0.765625 0.109375q0.46875 0.09375 0.84375 0.234375l0 -2.78125l0.875 0zm-0.875 3.640625q-0.359375 -0.203125 -0.78125 -0.3125q-0.421875 -0.109375 -0.828125 -0.109375q-0.9375 0 -1.375 0.59375q-0.4375 0.59375 -0.4375 1.625q0 1.140625 0.40625 1.8125q0.40625 0.65625 1.46875 0.65625q0.640625 0 1.09375 -0.140625q0.453125 -0.15625 0.453125 -0.359375l0 -3.765625zm5.109314 -1.21875q1.375 0 2.0 0.890625q0.640625 0.890625 0.625 2.359375l-4.375 0q0 1.078125 0.5 1.65625q0.515625 0.578125 1.453125 0.578125q1.203125 0 2.046875 -0.515625l0 0.890625q-0.875 0.421875 -2.09375 0.421875q-1.3125 0 -2.046875 -0.8125q-0.734375 -0.8125 -0.734375 -2.375q0 -1.53125 0.6875 -2.3125q0.703125 -0.78125 1.9375 -0.78125zm0 0.796875q-0.78125 0 -1.1875 0.359375q-0.40625 0.359375 -0.515625 1.296875l3.40625 0q-0.046875 -0.828125 -0.46875 -1.234375q-0.40625 -0.421875 -1.234375 -0.421875zm6.673401 -0.796875q1.1875 0 1.984375 0.78125q0.796875 0.765625 0.796875 2.46875q0 1.40625 -0.75 2.21875q-0.734375 0.796875 -2.109375 0.796875q-0.3125 0 -0.71875 -0.109375q-0.40625 -0.09375 -0.765625 -0.25l0 2.796875l-0.875 0l0 -7.515625q0 -0.65625 0.71875 -0.90625q0.734375 -0.265625 1.71875 -0.28125zm-0.078125 5.46875q0.953125 0 1.4375 -0.59375q0.5 -0.609375 0.5 -1.625q0 -1.125 -0.40625 -1.78125q-0.40625 -0.671875 -1.46875 -0.671875q-0.65625 0 -1.109375 0.15625q-0.4375 0.140625 -0.4375 0.390625l0 3.703125q0.71875 0.421875 1.484375 0.421875zm6.796814 -5.46875q1.375 0 2.0 0.890625q0.640625 0.890625 0.625 2.359375l-4.375 0q0 1.078125 0.5 1.65625q0.515625 0.578125 1.453125 0.578125q1.203125 0 2.046875 -0.515625l0 0.890625q-0.875 0.421875 -2.09375 0.421875q-1.3125 0 -2.046875 -0.8125q-0.734375 -0.8125 -0.734375 -2.375q0 -1.53125 0.6875 -2.3125q0.703125 -0.78125 1.9375 -0.78125zm0 0.796875q-0.78125 0 -1.1875 0.359375q-0.40625 0.359375 -0.515625 1.296875l3.40625 0q-0.046875 -0.828125 -0.46875 -1.234375q-0.40625 -0.421875 -1.234375 -0.421875zm4.235901 -0.21875q1.171875 -0.578125 2.53125 -0.578125q1.265625 0 1.828125 0.5625q0.5625 0.546875 0.5625 1.625l0 3.90625l-0.875 0l0 -3.90625q0 -1.40625 -1.609375 -1.40625q-0.734375 0 -1.5625 0.234375l0 5.078125l-0.875 0l0 -5.515625zm11.749939 -3.0l0 7.484375q0 0.609375 -0.78125 0.921875q-0.78125 0.296875 -1.6875 0.296875q-1.109375 0 -1.921875 -0.71875q-0.8125 -0.71875 -0.828125 -2.546875q0 -1.40625 0.6875 -2.203125q0.703125 -0.796875 2.046875 -0.796875q0.3125 0 0.765625 0.109375q0.46875 0.09375 0.84375 0.234375l0 -2.78125l0.875 0zm-0.875 3.640625q-0.359375 -0.203125 -0.78125 -0.3125q-0.421875 -0.109375 -0.828125 -0.109375q-0.9375 0 -1.375 0.59375q-0.4375 0.59375 -0.4375 1.625q0 1.140625 0.40625 1.8125q0.40625 0.65625 1.46875 0.65625q0.640625 0 1.09375 -0.140625q0.453125 -0.15625 0.453125 -0.359375l0 -3.765625zm5.109314 -1.21875q1.375 0 2.0 0.890625q0.640625 0.890625 0.625 2.359375l-4.375 0q0 1.078125 0.5 1.65625q0.515625 0.578125 1.453125 0.578125q1.203125 0 2.046875 -0.515625l0 0.890625q-0.875 0.421875 -2.09375 0.421875q-1.3125 0 -2.046875 -0.8125q-0.734375 -0.8125 -0.734375 -2.375q0 -1.53125 0.6875 -2.3125q0.703125 -0.78125 1.9375 -0.78125zm0 0.796875q-0.78125 0 -1.1875 0.359375q-0.40625 0.359375 -0.515625 1.296875l3.40625 0q-0.046875 -0.828125 -0.46875 -1.234375q-0.40625 -0.421875 -1.234375 -0.421875zm4.235901 -0.21875q1.171875 -0.578125 2.53125 -0.578125q1.265625 0 1.828125 0.5625q0.5625 0.546875 0.5625 1.625l0 3.90625l-0.875 0l0 -3.90625q0 -1.40625 -1.609375 -1.40625q-0.734375 0 -1.5625 0.234375l0 5.078125l-0.875 0l0 -5.515625zm9.343689 5.609375q-1.1875 0 -2.0 -0.671875q-0.8125 -0.6875 -0.8125 -2.421875q0 -1.734375 0.8125 -2.40625q0.8125 -0.6875 2.0 -0.6875q0.90625 0 1.78125 0.328125l0 0.828125q-0.828125 -0.328125 -1.6875 -0.328125q-1.0625 0 -1.546875 0.546875q-0.484375 0.53125 -0.484375 1.71875q0 1.203125 0.484375 1.734375q0.484375 0.53125 1.546875 0.53125q0.90625 0 1.6875 -0.328125l0 0.828125q-0.84375 0.328125 -1.78125 0.328125zm8.497742 -6.078125l-2.578125 6.578125q-0.359375 0.953125 -0.859375 1.328125q-0.5 0.390625 -1.015625 0.390625q-0.296875 0 -0.5625 -0.109375l0 -0.78125q0.234375 0.109375 0.515625 0.109375q0.515625 0 0.796875 -0.375q0.296875 -0.375 0.546875 -1.125l-2.484375 -6.015625l0.984375 0l1.890625 4.875l1.90625 -4.875l0.859375 0z" fill-rule="nonzero"/><path fill="#000000" fill-opacity="0.0" d="m781.6982 37.856956l144.0 0l0 18.992126l-144.0 0z" fill-rule="evenodd"/><path fill="#434343" d="m796.7138 51.873016l-2.09375 -3.234375l-2.03125 0l0 3.234375l-0.875 0l0 -8.0l3.296875 0q1.15625 0 1.75 0.59375q0.609375 0.578125 0.609375 1.734375q0 0.921875 -0.5 1.5625q-0.484375 0.625 -1.3125 0.78125l2.171875 3.328125l-1.015625 0zm-4.125 -4.046875l2.015625 0q0.984375 0 1.4375 -0.390625q0.46875 -0.40625 0.46875 -1.171875q0 -0.78125 -0.359375 -1.171875q-0.359375 -0.40625 -1.234375 -0.40625l-2.328125 0l0 3.140625zm9.1032715 4.234375q-1.375 0 -2.078125 -0.8125q-0.6875 -0.828125 -0.6875 -2.34375q0 -1.5625 0.703125 -2.34375q0.703125 -0.78125 2.03125 -0.78125q1.40625 0 2.09375 0.84375q0.6875 0.828125 0.6875 2.28125q0 1.484375 -0.71875 2.328125q-0.71875 0.828125 -2.03125 0.828125zm-0.015625 -0.796875q1.890625 0 1.890625 -2.359375q0 -1.140625 -0.4375 -1.734375q-0.4375 -0.59375 -1.453125 -0.59375q-1.875 0 -1.875 2.328125q0 2.359375 1.875 2.359375zm6.843689 0.796875q-1.375 0 -2.078125 -0.8125q-0.6875 -0.828125 -0.6875 -2.34375q0 -1.5625 0.703125 -2.34375q0.703125 -0.78125 2.03125 -0.78125q1.40625 0 2.09375 0.84375q0.6875 0.828125 0.6875 2.28125q0 1.484375 -0.71875 2.328125q-0.71875 0.828125 -2.03125 0.828125zm-0.015625 -0.796875q1.890625 0 1.890625 -2.359375q0 -1.140625 -0.4375 -1.734375q-0.4375 -0.59375 -1.453125 -0.59375q-1.875 0 -1.875 2.328125q0 2.359375 1.875 2.359375zm6.265564 0.703125q-0.65625 0 -1.078125 -0.390625q-0.421875 -0.40625 -0.421875 -1.15625l0 -3.75l-1.046875 0l0 -0.78125l1.046875 0l0 -1.703125l0.859375 0l0 1.703125l1.546875 0l0 0.78125l-1.546875 0l0 3.46875q0 0.53125 0.171875 0.78125q0.171875 0.234375 0.625 0.234375q0.4375 0 0.75 -0.140625l0 0.8125q-0.15625 0.0625 -0.421875 0.09375q-0.25 0.046875 -0.484375 0.046875zm6.0079346 -8.09375l2.515625 0q1.875 0 2.8125 1.0q0.9375 1.0 0.9375 2.984375q0 4.015625 -3.75 4.015625l-2.515625 0l0 -8.0zm2.453125 7.1875q1.515625 0 2.21875 -0.765625q0.703125 -0.78125 0.703125 -2.4375q0 -1.640625 -0.703125 -2.40625q-0.703125 -0.78125 -2.21875 -0.78125l-1.578125 0l0 6.390625l1.578125 0zm5.5509033 -7.1875l0.875 0l0 8.0l-0.875 0l0 -8.0z" fill-rule="nonzero"/><path fill="#000000" fill-opacity="0.0" d="m781.6982 57.45669l144.0 0l0 18.99213l-144.0 0z" fill-rule="evenodd"/><path fill="#434343" d="m791.7138 63.472755l5.0625 0l0 0.8125l-4.1875 0l0 2.765625l3.671875 0l0 0.828125l-3.671875 0l0 2.78125l4.1875 0l0 0.8125l-5.0625 0l0 -8.0zm10.815796 8.0l-1.703125 -2.34375l-1.765625 2.34375l-0.96875 0l2.234375 -3.015625l-2.171875 -2.96875l1.09375 0l1.65625 2.265625l1.703125 -2.265625l1.0 0l-2.1875 2.953125l2.21875 3.03125l-1.109375 0zm4.368408 0.09375q-0.65625 0 -1.078125 -0.390625q-0.421875 -0.40625 -0.421875 -1.15625l0 -3.75l-1.046875 0l0 -0.78125l1.046875 0l0 -1.703125l0.859375 0l0 1.703125l1.546875 0l0 0.78125l-1.546875 0l0 3.46875q0 0.53125 0.171875 0.78125q0.171875 0.234375 0.625 0.234375q0.4375 0 0.75 -0.140625l0 0.8125q-0.15625 0.0625 -0.421875 0.09375q-0.25 0.046875 -0.484375 0.046875zm4.793518 -6.1875q1.375 0 2.0 0.890625q0.640625 0.890625 0.625 2.359375l-4.375 0q0 1.078125 0.5 1.65625q0.515625 0.578125 1.453125 0.578125q1.203125 0 2.046875 -0.515625l0 0.890625q-0.875 0.421875 -2.09375 0.421875q-1.3125 0 -2.046875 -0.8125q-0.734375 -0.8125 -0.734375 -2.375q0 -1.53125 0.6875 -2.3125q0.703125 -0.78125 1.9375 -0.78125zm0 0.796875q-0.78125 0 -1.1875 0.359375q-0.40625 0.359375 -0.515625 1.296875l3.40625 0q-0.046875 -0.828125 -0.46875 -1.234375q-0.40625 -0.421875 -1.234375 -0.421875zm4.235901 -0.21875q0.46875 -0.1875 1.21875 -0.375q0.75 -0.203125 1.546875 -0.203125q0.125 0 0.390625 0.0625l0 0.78125q-0.296875 -0.046875 -0.578125 -0.046875q-0.40625 0 -0.75 0.046875q-0.328125 0.046875 -0.953125 0.15625l0 5.09375l-0.875 0l0 -5.515625zm4.524048 0q1.171875 -0.578125 2.53125 -0.578125q1.265625 0 1.828125 0.5625q0.5625 0.546875 0.5625 1.625l0 3.90625l-0.875 0l0 -3.90625q0 -1.40625 -1.609375 -1.40625q-0.734375 0 -1.5625 0.234375l0 5.078125l-0.875 0l0 -5.515625zm9.390564 -0.578125q1.015625 0 1.59375 0.5q0.578125 0.484375 0.578125 1.421875l0 2.90625q0 0.859375 -0.71875 1.15625q-0.703125 0.296875 -1.9375 0.296875q-0.953125 0 -1.640625 -0.421875q-0.671875 -0.421875 -0.671875 -1.40625q0 -1.078125 0.578125 -1.5625q0.59375 -0.484375 1.625 -0.484375q1.171875 0 1.890625 0.421875l0 -0.703125q0 -1.34375 -1.578125 -1.34375q-0.515625 0 -1.046875 0.140625q-0.515625 0.140625 -0.875 0.4375l0 -0.875q0.359375 -0.21875 0.96875 -0.34375q0.625 -0.140625 1.234375 -0.140625zm-0.28125 5.5q0.828125 0 1.203125 -0.125q0.375 -0.125 0.375 -0.5l0 -1.34375q-0.328125 -0.15625 -0.765625 -0.25q-0.421875 -0.09375 -0.890625 -0.09375q-0.75 0 -1.171875 0.296875q-0.40625 0.28125 -0.40625 0.828125q0 0.625 0.484375 0.90625q0.484375 0.28125 1.171875 0.28125zm4.3667603 0.59375l0 -8.265625l0.875 0l0 8.265625l-0.875 0zm6.826599 -5.203125l-1.03125 0l0 -0.78125l1.03125 0l0 -0.328125q0 -1.0 0.34375 -1.484375q0.34375 -0.484375 0.75 -0.59375q0.40625 -0.125 0.828125 -0.125q0.328125 0 0.578125 0.078125l0 0.765625q-0.234375 -0.046875 -0.421875 -0.046875q-0.390625 0 -0.640625 0.078125q-0.234375 0.0625 -0.40625 0.375q-0.171875 0.296875 -0.171875 0.9375l0 0.34375l1.640625 0l0 0.78125l-1.640625 0l0 5.203125l-0.859375 0l0 -5.203125zm3.9375 -0.3125q0.46875 -0.1875 1.21875 -0.375q0.75 -0.203125 1.546875 -0.203125q0.125 0 0.390625 0.0625l0 0.78125q-0.296875 -0.046875 -0.578125 -0.046875q-0.40625 0 -0.75 0.046875q-0.328125 0.046875 -0.953125 0.15625l0 5.09375l-0.875 0l0 -5.515625zm7.086548 -0.578125q1.015625 0 1.59375 0.5q0.578125 0.484375 0.578125 1.421875l0 2.90625q0 0.859375 -0.71875 1.15625q-0.703125 0.296875 -1.9375 0.296875q-0.953125 0 -1.640625 -0.421875q-0.671875 -0.421875 -0.671875 -1.40625q0 -1.078125 0.578125 -1.5625q0.59375 -0.484375 1.625 -0.484375q1.171875 0 1.890625 0.421875l0 -0.703125q0 -1.34375 -1.578125 -1.34375q-0.515625 0 -1.046875 0.140625q-0.515625 0.140625 -0.875 0.4375l0 -0.875q0.359375 -0.21875 0.96875 -0.34375q0.625 -0.140625 1.234375 -0.140625zm-0.28125 5.5q0.828125 0 1.203125 -0.125q0.375 -0.125 0.375 -0.5l0 -1.34375q-0.328125 -0.15625 -0.765625 -0.25q-0.421875 -0.09375 -0.890625 -0.09375q-0.75 0 -1.171875 0.296875q-0.40625 0.28125 -0.40625 0.828125q0 0.625 0.484375 0.90625q0.484375 0.28125 1.171875 0.28125zm10.67926 -5.5q1.25 0 1.8125 0.5625q0.5625 0.546875 0.5625 1.625l0 3.90625l-0.875 0l0 -3.90625q0 -1.40625 -1.609375 -1.40625q-0.765625 0 -1.4375 0.40625q0.15625 0.421875 0.15625 1.0l0 3.90625l-0.875 0l0 -3.90625q0 -1.40625 -1.609375 -1.40625q-0.734375 0 -1.5625 0.234375l0 5.078125l-0.875 0l0 -5.515625q1.171875 -0.578125 2.53125 -0.578125q1.171875 0 1.765625 0.484375q0.890625 -0.484375 2.015625 -0.484375zm6.6116943 0q1.375 0 2.0 0.890625q0.640625 0.890625 0.625 2.359375l-4.375 0q0 1.078125 0.5 1.65625q0.515625 0.578125 1.453125 0.578125q1.203125 0 2.046875 -0.515625l0 0.890625q-0.875 0.421875 -2.09375 0.421875q-1.3125 0 -2.046875 -0.8125q-0.734375 -0.8125 -0.734375 -2.375q0 -1.53125 0.6875 -2.3125q0.703125 -0.78125 1.9375 -0.78125zm0 0.796875q-0.78125 0 -1.1875 0.359375q-0.40625 0.359375 -0.515625 1.296875l3.40625 0q-0.046875 -0.828125 -0.46875 -1.234375q-0.40625 -0.421875 -1.234375 -0.421875zm12.407837 -0.6875l-1.984375 5.984375l-0.875 0l-1.5 -4.96875l-1.484375 4.96875l-0.875 0l-1.984375 -5.984375l0.90625 0l1.5625 5.0l1.46875 -5.0l0.828125 0l1.515625 5.015625l1.578125 -5.015625l0.84375 0zm3.5488892 6.171875q-1.375 0 -2.078125 -0.8125q-0.6875 -0.828125 -0.6875 -2.34375q0 -1.5625 0.703125 -2.34375q0.703125 -0.78125 2.03125 -0.78125q1.40625 0 2.09375 0.84375q0.6875 0.828125 0.6875 2.28125q0 1.484375 -0.71875 2.328125q-0.71875 0.828125 -2.03125 0.828125zm-0.015625 -0.796875q1.890625 0 1.890625 -2.359375q0 -1.140625 -0.4375 -1.734375q-0.4375 -0.59375 -1.453125 -0.59375q-1.875 0 -1.875 2.328125q0 2.359375 1.875 2.359375zm4.374939 -4.90625q0.46875 -0.1875 1.21875 -0.375q0.75 -0.203125 1.546875 -0.203125q0.125 0 0.390625 0.0625l0 0.78125q-0.296875 -0.046875 -0.578125 -0.046875q-0.40625 0 -0.75 0.046875q-0.328125 0.046875 -0.953125 0.15625l0 5.09375l-0.875 0l0 -5.515625zm8.195923 5.515625l-2.796875 -2.828125l0 2.828125l-0.875 0l0 -8.265625l0.875 0l0 4.5l2.4375 -2.21875l1.078125 0l-2.9375 2.59375l3.359375 3.390625l-1.140625 0z" fill-rule="nonzero"/><path fill="#000000" fill-opacity="0.0" d="m226.59996 201.46603l144.00002 0l0 48.0l-144.00002 0z" fill-rule="evenodd"/><path stroke="#cc0000" stroke-width="1.0" stroke-linejoin="round" stroke-linecap="butt" d="m226.59996 201.46603l144.00002 0l0 48.0l-144.00002 0z" fill-rule="evenodd"/><path fill="#cc0000" d="m255.00056 228.51103l-5.359375 0l-1.5 3.875l-1.453125 0l4.953125 -12.4375l1.34375 0l4.9531097 12.4375l-1.4375 0l-1.4999847 -3.875zm-0.5 -1.296875l-2.1875 -5.6875l-2.171875 5.6875l4.359375 0zm9.074081 -4.3125q1.859375 0 3.09375 1.203125q1.234375 1.203125 1.234375 3.859375q0 2.1875 -1.15625 3.4375q-1.15625 1.25 -3.28125 1.25q-0.484375 0 -1.125 -0.15625q-0.640625 -0.140625 -1.203125 -0.390625l0 4.328125l-1.328125 0l0 -11.671875q0 -1.03125 1.125 -1.421875q1.125 -0.40625 2.640625 -0.4375zm-0.109375 8.515625q1.46875 0 2.234375 -0.921875q0.78125 -0.9375 0.78125 -2.53125q0 -1.75 -0.640625 -2.78125q-0.625 -1.046875 -2.28125 -1.046875q-1.015625 0 -1.71875 0.234375q-0.703125 0.234375 -0.703125 0.625l0 5.765625q1.125 0.65625 2.328125 0.65625zm10.7247925 -8.515625q1.859375 0 3.09375 1.203125q1.234375 1.203125 1.234375 3.859375q0 2.1875 -1.15625 3.4375q-1.15625 1.25 -3.28125 1.25q-0.484375 0 -1.125 -0.15625q-0.640625 -0.140625 -1.203125 -0.390625l0 4.328125l-1.328125 0l0 -11.671875q0 -1.03125 1.125 -1.421875q1.125 -0.40625 2.640625 -0.4375zm-0.109375 8.515625q1.46875 0 2.234375 -0.921875q0.78125 -0.9375 0.78125 -2.53125q0 -1.75 -0.640625 -2.78125q-0.625 -1.046875 -2.28125 -1.046875q-1.015625 0 -1.71875 0.234375q-0.703125 0.234375 -0.703125 0.625l0 5.765625q1.125 0.65625 2.328125 0.65625zm7.037262 -11.46875l7.640625 0l0 1.265625l-6.296875 0l0 4.28125l5.53125 0l0 1.3125l-5.53125 0l0 5.578125l-1.34375 0l0 -12.4375zm13.120331 2.953125q2.125 0 3.109375 1.390625q1.0 1.375 0.953125 3.671875l-6.78125 0q0 1.671875 0.78125 2.578125q0.78125 0.890625 2.234375 0.890625q1.875 0 3.1875 -0.796875l0 1.375q-1.359375 0.65625 -3.265625 0.65625q-2.03125 0 -3.171875 -1.25q-1.125 -1.265625 -1.125 -3.703125q0 -2.359375 1.0625 -3.578125q1.078125 -1.234375 3.015625 -1.234375zm0 1.234375q-1.234375 0 -1.875 0.578125q-0.625 0.5625 -0.796875 2.015625l5.328125 0q-0.09375 -1.296875 -0.75 -1.9375q-0.640625 -0.65625 -1.90625 -0.65625zm10.564331 -1.234375q1.5625 0 2.46875 0.765625q0.90625 0.765625 0.90625 2.21875l0 4.515625q0 1.34375 -1.109375 1.8125q-1.09375 0.453125 -3.03125 0.453125q-1.46875 0 -2.53125 -0.65625q-1.046875 -0.65625 -1.046875 -2.1875q0 -1.65625 0.90625 -2.40625q0.921875 -0.765625 2.515625 -0.765625q1.8125 0 2.9375 0.65625l0 -1.09375q0 -2.09375 -2.453125 -2.09375q-0.796875 0 -1.625 0.234375q-0.8125 0.21875 -1.375 0.65625l0 -1.34375q0.5625 -0.34375 1.515625 -0.546875q0.96875 -0.21875 1.921875 -0.21875zm-0.453125 8.5625q1.3125 0 1.890625 -0.1875q0.578125 -0.203125 0.578125 -0.796875l0 -2.09375q-0.5 -0.234375 -1.171875 -0.375q-0.671875 -0.140625 -1.40625 -0.140625q-1.171875 0 -1.8125 0.453125q-0.625 0.4375 -0.625 1.296875q0 0.96875 0.734375 1.40625q0.75 0.4375 1.8125 0.4375zm9.741821 1.078125q-1.03125 0 -1.6875 -0.625q-0.640625 -0.625 -0.640625 -1.78125l0 -5.828125l-1.625 0l0 -1.234375l1.625 0l0 -2.625l1.34375 0l0 2.625l2.40625 0l0 1.234375l-2.40625 0l0 5.390625q0 0.828125 0.25 1.203125q0.265625 0.359375 0.984375 0.359375q0.6875 0 1.171875 -0.21875l0 1.265625q-0.265625 0.09375 -0.671875 0.15625q-0.390625 0.078125 -0.75 0.078125zm7.740967 0.125q-1.859375 0 -2.875 -0.953125q-1.015625 -0.96875 -1.015625 -2.75l0 -5.890625l1.328125 0l0 5.59375q0 1.421875 0.609375 2.09375q0.625 0.65625 1.953125 0.65625q1.3125 0 1.9375 -0.65625q0.625 -0.671875 0.625 -2.09375l0 -5.59375l1.34375 0l0 5.890625q0 1.78125 -1.03125 2.75q-1.015625 0.953125 -2.875 0.953125zm6.8927 -8.84375q0.703125 -0.296875 1.859375 -0.609375q1.171875 -0.3125 2.421875 -0.3125q0.1875 0 0.59375 0.125l0 1.1875q-0.4375 -0.0625 -0.890625 -0.0625q-0.609375 0 -1.140625 0.078125q-0.515625 0.078125 -1.515625 0.25l0 7.90625l-1.328125 0l0 -8.5625zm9.989441 -0.921875q2.125 0 3.109375 1.390625q1.0 1.375 0.953125 3.671875l-6.78125 0q0 1.671875 0.78125 2.578125q0.78125 0.890625 2.234375 0.890625q1.875 0 3.1875 -0.796875l0 1.375q-1.359375 0.65625 -3.265625 0.65625q-2.03125 0 -3.171875 -1.25q-1.125 -1.265625 -1.125 -3.703125q0 -2.359375 1.0625 -3.578125q1.078125 -1.234375 3.015625 -1.234375zm0 1.234375q-1.234375 0 -1.875 0.578125q-0.625 0.5625 -0.796875 2.015625l5.328125 0q-0.09375 -1.296875 -0.75 -1.9375q-0.640625 -0.65625 -1.90625 -0.65625z" fill-rule="nonzero"/><path fill="#cc0000" d="m344.81 233.6829q1.203125 -0.609375 2.625 -0.609375q1.296875 0 1.875 0.578125q0.578125 0.5625 0.578125 1.6875l0 4.046875l-0.890625 0l0 -4.046875q0 -1.46875 -1.671875 -1.46875q-0.765625 0 -1.625 0.25l0 5.265625l-0.890625 0l0 -5.703125z" fill-rule="nonzero"/><path fill="#000000" fill-opacity="0.0" d="m178.60104 216.03937l48.0 0l0 18.992126l-48.0 0z" fill-rule="evenodd"/><path fill="#434343" d="m198.87413 228.85231l1.203125 0l0 1.203125l-1.203125 0l0 -1.203125zm3.1200256 0l1.203125 0l0 1.203125l-1.203125 0l0 -1.203125zm3.1200256 0l1.203125 0l0 1.203125l-1.203125 0l0 -1.203125z" fill-rule="nonzero"/><path fill="#000000" fill-opacity="0.0" d="m298.5841 297.3873l0 -23.945099l0.06298828 0l0 -23.960419" fill-rule="evenodd"/><path stroke="#666666" stroke-width="1.0" stroke-linejoin="round" stroke-linecap="butt" d="m298.5841 297.3873l0 -23.945099l0.06298828 0l0 -17.960403" fill-rule="evenodd"/><path fill="#666666" stroke="#666666" stroke-width="1.0" stroke-linecap="butt" d="m300.29883 255.4818l-1.6517334 -4.538101l-1.6517334 4.538101z" fill-rule="evenodd"/><path fill="#000000" fill-opacity="0.0" d="m202.59996 153.5694l0 23.94844l96.000015 0l0 23.957077" fill-rule="evenodd"/><path stroke="#666666" stroke-width="1.0" stroke-linejoin="round" stroke-linecap="butt" d="m202.59996 153.5694l0 23.94844l96.000015 0l0 17.957062" fill-rule="evenodd"/><path fill="#666666" stroke="#666666" stroke-width="1.0" stroke-linecap="butt" d="m296.94824 195.4749l1.6517334 4.538101l1.6517334 -4.538101z" fill-rule="evenodd"/><path fill="#000000" fill-opacity="0.0" d="m733.6982 407.47244l48.0 -0.12597656" fill-rule="evenodd"/><path stroke="#999999" stroke-width="1.0" stroke-linejoin="round" stroke-linecap="butt" stroke-dasharray="1.0,3.0" d="m733.6982 407.47244l42.0 -0.11022949" fill-rule="evenodd"/><path stroke="#999999" stroke-width="1.0" stroke-linecap="butt" d="m775.7025 409.01395l4.5337524 -1.6636658l-4.5424194 -1.639801z" fill-rule="evenodd"/></g></svg>